G04 #@! TF.FileFunction,Legend,Top*
%FSLAX46Y46*%
G04 Gerber Fmt 4.6, Leading zero omitted, Abs format (unit mm)*
G04 Created by KiCad (PCBNEW 4.0.7-e2-6376~58~ubuntu16.04.1) date Sun Sep 24 14:08:17 2017*
%MOMM*%
%LPD*%
G01*
G04 APERTURE LIST*
%ADD10C,0.100000*%
%ADD11C,0.300000*%
%ADD12C,0.200000*%
%ADD13C,0.120000*%
%ADD14C,0.150000*%
%ADD15C,0.500000*%
%ADD16C,0.152400*%
G04 APERTURE END LIST*
D10*
D11*
X73017857Y-134142857D02*
X73089286Y-133928571D01*
X73160714Y-133857143D01*
X73303571Y-133785714D01*
X73517857Y-133785714D01*
X73660714Y-133857143D01*
X73732143Y-133928571D01*
X73803571Y-134071429D01*
X73803571Y-134642857D01*
X72303571Y-134642857D01*
X72303571Y-134142857D01*
X72375000Y-134000000D01*
X72446429Y-133928571D01*
X72589286Y-133857143D01*
X72732143Y-133857143D01*
X72875000Y-133928571D01*
X72946429Y-134000000D01*
X73017857Y-134142857D01*
X73017857Y-134642857D01*
X73732143Y-132571429D02*
X73803571Y-132714286D01*
X73803571Y-133000000D01*
X73732143Y-133142857D01*
X73589286Y-133214286D01*
X73017857Y-133214286D01*
X72875000Y-133142857D01*
X72803571Y-133000000D01*
X72803571Y-132714286D01*
X72875000Y-132571429D01*
X73017857Y-132500000D01*
X73160714Y-132500000D01*
X73303571Y-133214286D01*
X72803571Y-131857143D02*
X73803571Y-131857143D01*
X72946429Y-131857143D02*
X72875000Y-131785715D01*
X72803571Y-131642857D01*
X72803571Y-131428572D01*
X72875000Y-131285715D01*
X73017857Y-131214286D01*
X73803571Y-131214286D01*
X72803571Y-130714286D02*
X72803571Y-130142857D01*
X72303571Y-130500000D02*
X73589286Y-130500000D01*
X73732143Y-130428572D01*
X73803571Y-130285714D01*
X73803571Y-130142857D01*
X73732143Y-129071429D02*
X73803571Y-129214286D01*
X73803571Y-129500000D01*
X73732143Y-129642857D01*
X73589286Y-129714286D01*
X73017857Y-129714286D01*
X72875000Y-129642857D01*
X72803571Y-129500000D01*
X72803571Y-129214286D01*
X72875000Y-129071429D01*
X73017857Y-129000000D01*
X73160714Y-129000000D01*
X73303571Y-129714286D01*
X72803571Y-128357143D02*
X73803571Y-128357143D01*
X72946429Y-128357143D02*
X72875000Y-128285715D01*
X72803571Y-128142857D01*
X72803571Y-127928572D01*
X72875000Y-127785715D01*
X73017857Y-127714286D01*
X73803571Y-127714286D01*
X73803571Y-126357143D02*
X72303571Y-126357143D01*
X73732143Y-126357143D02*
X73803571Y-126500000D01*
X73803571Y-126785714D01*
X73732143Y-126928572D01*
X73660714Y-127000000D01*
X73517857Y-127071429D01*
X73089286Y-127071429D01*
X72946429Y-127000000D01*
X72875000Y-126928572D01*
X72803571Y-126785714D01*
X72803571Y-126500000D01*
X72875000Y-126357143D01*
X73803571Y-125428571D02*
X73732143Y-125571429D01*
X73660714Y-125642857D01*
X73517857Y-125714286D01*
X73089286Y-125714286D01*
X72946429Y-125642857D01*
X72875000Y-125571429D01*
X72803571Y-125428571D01*
X72803571Y-125214286D01*
X72875000Y-125071429D01*
X72946429Y-125000000D01*
X73089286Y-124928571D01*
X73517857Y-124928571D01*
X73660714Y-125000000D01*
X73732143Y-125071429D01*
X73803571Y-125214286D01*
X73803571Y-125428571D01*
X73232143Y-123142857D02*
X73232143Y-122000000D01*
X73803571Y-119285714D02*
X73089286Y-119785714D01*
X73803571Y-120142857D02*
X72303571Y-120142857D01*
X72303571Y-119571429D01*
X72375000Y-119428571D01*
X72446429Y-119357143D01*
X72589286Y-119285714D01*
X72803571Y-119285714D01*
X72946429Y-119357143D01*
X73017857Y-119428571D01*
X73089286Y-119571429D01*
X73089286Y-120142857D01*
X73732143Y-118071429D02*
X73803571Y-118214286D01*
X73803571Y-118500000D01*
X73732143Y-118642857D01*
X73589286Y-118714286D01*
X73017857Y-118714286D01*
X72875000Y-118642857D01*
X72803571Y-118500000D01*
X72803571Y-118214286D01*
X72875000Y-118071429D01*
X73017857Y-118000000D01*
X73160714Y-118000000D01*
X73303571Y-118714286D01*
X72803571Y-117500000D02*
X73803571Y-117142857D01*
X72803571Y-116785715D01*
X73660714Y-116214286D02*
X73732143Y-116142858D01*
X73803571Y-116214286D01*
X73732143Y-116285715D01*
X73660714Y-116214286D01*
X73803571Y-116214286D01*
X73660714Y-113500000D02*
X73732143Y-113571429D01*
X73803571Y-113785715D01*
X73803571Y-113928572D01*
X73732143Y-114142857D01*
X73589286Y-114285715D01*
X73446429Y-114357143D01*
X73160714Y-114428572D01*
X72946429Y-114428572D01*
X72660714Y-114357143D01*
X72517857Y-114285715D01*
X72375000Y-114142857D01*
X72303571Y-113928572D01*
X72303571Y-113785715D01*
X72375000Y-113571429D01*
X72446429Y-113500000D01*
X74996429Y-134714286D02*
X74925000Y-134642857D01*
X74853571Y-134500000D01*
X74853571Y-134142857D01*
X74925000Y-134000000D01*
X74996429Y-133928571D01*
X75139286Y-133857143D01*
X75282143Y-133857143D01*
X75496429Y-133928571D01*
X76353571Y-134785714D01*
X76353571Y-133857143D01*
X74853571Y-132928572D02*
X74853571Y-132785715D01*
X74925000Y-132642858D01*
X74996429Y-132571429D01*
X75139286Y-132500000D01*
X75425000Y-132428572D01*
X75782143Y-132428572D01*
X76067857Y-132500000D01*
X76210714Y-132571429D01*
X76282143Y-132642858D01*
X76353571Y-132785715D01*
X76353571Y-132928572D01*
X76282143Y-133071429D01*
X76210714Y-133142858D01*
X76067857Y-133214286D01*
X75782143Y-133285715D01*
X75425000Y-133285715D01*
X75139286Y-133214286D01*
X74996429Y-133142858D01*
X74925000Y-133071429D01*
X74853571Y-132928572D01*
X76353571Y-131000001D02*
X76353571Y-131857144D01*
X76353571Y-131428572D02*
X74853571Y-131428572D01*
X75067857Y-131571429D01*
X75210714Y-131714287D01*
X75282143Y-131857144D01*
X74853571Y-130500001D02*
X74853571Y-129500001D01*
X76353571Y-130142858D01*
X75567857Y-127285716D02*
X75639286Y-127071430D01*
X75710714Y-127000002D01*
X75853571Y-126928573D01*
X76067857Y-126928573D01*
X76210714Y-127000002D01*
X76282143Y-127071430D01*
X76353571Y-127214288D01*
X76353571Y-127785716D01*
X74853571Y-127785716D01*
X74853571Y-127285716D01*
X74925000Y-127142859D01*
X74996429Y-127071430D01*
X75139286Y-127000002D01*
X75282143Y-127000002D01*
X75425000Y-127071430D01*
X75496429Y-127142859D01*
X75567857Y-127285716D01*
X75567857Y-127785716D01*
X76282143Y-125714288D02*
X76353571Y-125857145D01*
X76353571Y-126142859D01*
X76282143Y-126285716D01*
X76139286Y-126357145D01*
X75567857Y-126357145D01*
X75425000Y-126285716D01*
X75353571Y-126142859D01*
X75353571Y-125857145D01*
X75425000Y-125714288D01*
X75567857Y-125642859D01*
X75710714Y-125642859D01*
X75853571Y-126357145D01*
X75353571Y-125000002D02*
X76353571Y-125000002D01*
X75496429Y-125000002D02*
X75425000Y-124928574D01*
X75353571Y-124785716D01*
X75353571Y-124571431D01*
X75425000Y-124428574D01*
X75567857Y-124357145D01*
X76353571Y-124357145D01*
X75353571Y-123000002D02*
X76567857Y-123000002D01*
X76710714Y-123071431D01*
X76782143Y-123142859D01*
X76853571Y-123285716D01*
X76853571Y-123500002D01*
X76782143Y-123642859D01*
X76282143Y-123000002D02*
X76353571Y-123142859D01*
X76353571Y-123428573D01*
X76282143Y-123571431D01*
X76210714Y-123642859D01*
X76067857Y-123714288D01*
X75639286Y-123714288D01*
X75496429Y-123642859D01*
X75425000Y-123571431D01*
X75353571Y-123428573D01*
X75353571Y-123142859D01*
X75425000Y-123000002D01*
X76353571Y-122285716D02*
X75353571Y-122285716D01*
X74853571Y-122285716D02*
X74925000Y-122357145D01*
X74996429Y-122285716D01*
X74925000Y-122214288D01*
X74853571Y-122285716D01*
X74996429Y-122285716D01*
X75353571Y-121571430D02*
X76353571Y-121571430D01*
X75496429Y-121571430D02*
X75425000Y-121500002D01*
X75353571Y-121357144D01*
X75353571Y-121142859D01*
X75425000Y-121000002D01*
X75567857Y-120928573D01*
X76353571Y-120928573D01*
X76282143Y-119642859D02*
X76353571Y-119785716D01*
X76353571Y-120071430D01*
X76282143Y-120214287D01*
X76139286Y-120285716D01*
X75567857Y-120285716D01*
X75425000Y-120214287D01*
X75353571Y-120071430D01*
X75353571Y-119785716D01*
X75425000Y-119642859D01*
X75567857Y-119571430D01*
X75710714Y-119571430D01*
X75853571Y-120285716D01*
X76282143Y-118357145D02*
X76353571Y-118500002D01*
X76353571Y-118785716D01*
X76282143Y-118928573D01*
X76139286Y-119000002D01*
X75567857Y-119000002D01*
X75425000Y-118928573D01*
X75353571Y-118785716D01*
X75353571Y-118500002D01*
X75425000Y-118357145D01*
X75567857Y-118285716D01*
X75710714Y-118285716D01*
X75853571Y-119000002D01*
X76353571Y-117642859D02*
X75353571Y-117642859D01*
X75639286Y-117642859D02*
X75496429Y-117571431D01*
X75425000Y-117500002D01*
X75353571Y-117357145D01*
X75353571Y-117214288D01*
X76353571Y-116714288D02*
X75353571Y-116714288D01*
X74853571Y-116714288D02*
X74925000Y-116785717D01*
X74996429Y-116714288D01*
X74925000Y-116642860D01*
X74853571Y-116714288D01*
X74996429Y-116714288D01*
X75353571Y-116000002D02*
X76353571Y-116000002D01*
X75496429Y-116000002D02*
X75425000Y-115928574D01*
X75353571Y-115785716D01*
X75353571Y-115571431D01*
X75425000Y-115428574D01*
X75567857Y-115357145D01*
X76353571Y-115357145D01*
X75353571Y-114000002D02*
X76567857Y-114000002D01*
X76710714Y-114071431D01*
X76782143Y-114142859D01*
X76853571Y-114285716D01*
X76853571Y-114500002D01*
X76782143Y-114642859D01*
X76282143Y-114000002D02*
X76353571Y-114142859D01*
X76353571Y-114428573D01*
X76282143Y-114571431D01*
X76210714Y-114642859D01*
X76067857Y-114714288D01*
X75639286Y-114714288D01*
X75496429Y-114642859D01*
X75425000Y-114571431D01*
X75353571Y-114428573D01*
X75353571Y-114142859D01*
X75425000Y-114000002D01*
D12*
X113324000Y-99020000D02*
X113324000Y-69020000D01*
X173324000Y-99020000D02*
X113324000Y-99020000D01*
X173324000Y-69020000D02*
X173324000Y-99020000D01*
X113324000Y-69020000D02*
X173324000Y-69020000D01*
D13*
X132201000Y-114715000D02*
X127081000Y-114715000D01*
X132201000Y-112095000D02*
X127081000Y-112095000D01*
X132201000Y-114715000D02*
X132201000Y-112095000D01*
X127081000Y-114715000D02*
X127081000Y-112095000D01*
X171664000Y-116646000D02*
X171664000Y-111526000D01*
X174284000Y-116646000D02*
X174284000Y-111526000D01*
X171664000Y-116646000D02*
X171978000Y-116646000D01*
X173970000Y-116646000D02*
X174284000Y-116646000D01*
X171664000Y-111526000D02*
X171978000Y-111526000D01*
X173970000Y-111526000D02*
X174284000Y-111526000D01*
X169441722Y-119614277D02*
G75*
G03X164830420Y-119614000I-2305722J-1179723D01*
G01*
X169441722Y-121973723D02*
G75*
G02X164830420Y-121974000I-2305722J1179723D01*
G01*
X169441722Y-121973723D02*
G75*
G03X169441580Y-119614000I-2305722J1179723D01*
G01*
X167136000Y-118244000D02*
X167136000Y-123344000D01*
X167176000Y-118244000D02*
X167176000Y-119814000D01*
X167176000Y-121774000D02*
X167176000Y-123344000D01*
X167216000Y-118245000D02*
X167216000Y-119814000D01*
X167216000Y-121774000D02*
X167216000Y-123343000D01*
X167256000Y-118246000D02*
X167256000Y-119814000D01*
X167256000Y-121774000D02*
X167256000Y-123342000D01*
X167296000Y-118248000D02*
X167296000Y-119814000D01*
X167296000Y-121774000D02*
X167296000Y-123340000D01*
X167336000Y-118251000D02*
X167336000Y-119814000D01*
X167336000Y-121774000D02*
X167336000Y-123337000D01*
X167376000Y-118255000D02*
X167376000Y-119814000D01*
X167376000Y-121774000D02*
X167376000Y-123333000D01*
X167416000Y-118259000D02*
X167416000Y-119814000D01*
X167416000Y-121774000D02*
X167416000Y-123329000D01*
X167456000Y-118263000D02*
X167456000Y-119814000D01*
X167456000Y-121774000D02*
X167456000Y-123325000D01*
X167496000Y-118269000D02*
X167496000Y-119814000D01*
X167496000Y-121774000D02*
X167496000Y-123319000D01*
X167536000Y-118275000D02*
X167536000Y-119814000D01*
X167536000Y-121774000D02*
X167536000Y-123313000D01*
X167576000Y-118281000D02*
X167576000Y-119814000D01*
X167576000Y-121774000D02*
X167576000Y-123307000D01*
X167616000Y-118288000D02*
X167616000Y-119814000D01*
X167616000Y-121774000D02*
X167616000Y-123300000D01*
X167656000Y-118296000D02*
X167656000Y-119814000D01*
X167656000Y-121774000D02*
X167656000Y-123292000D01*
X167696000Y-118305000D02*
X167696000Y-119814000D01*
X167696000Y-121774000D02*
X167696000Y-123283000D01*
X167736000Y-118314000D02*
X167736000Y-119814000D01*
X167736000Y-121774000D02*
X167736000Y-123274000D01*
X167776000Y-118324000D02*
X167776000Y-119814000D01*
X167776000Y-121774000D02*
X167776000Y-123264000D01*
X167816000Y-118334000D02*
X167816000Y-119814000D01*
X167816000Y-121774000D02*
X167816000Y-123254000D01*
X167857000Y-118346000D02*
X167857000Y-119814000D01*
X167857000Y-121774000D02*
X167857000Y-123242000D01*
X167897000Y-118358000D02*
X167897000Y-119814000D01*
X167897000Y-121774000D02*
X167897000Y-123230000D01*
X167937000Y-118370000D02*
X167937000Y-119814000D01*
X167937000Y-121774000D02*
X167937000Y-123218000D01*
X167977000Y-118384000D02*
X167977000Y-119814000D01*
X167977000Y-121774000D02*
X167977000Y-123204000D01*
X168017000Y-118398000D02*
X168017000Y-119814000D01*
X168017000Y-121774000D02*
X168017000Y-123190000D01*
X168057000Y-118412000D02*
X168057000Y-119814000D01*
X168057000Y-121774000D02*
X168057000Y-123176000D01*
X168097000Y-118428000D02*
X168097000Y-119814000D01*
X168097000Y-121774000D02*
X168097000Y-123160000D01*
X168137000Y-118444000D02*
X168137000Y-119814000D01*
X168137000Y-121774000D02*
X168137000Y-123144000D01*
X168177000Y-118461000D02*
X168177000Y-119814000D01*
X168177000Y-121774000D02*
X168177000Y-123127000D01*
X168217000Y-118479000D02*
X168217000Y-119814000D01*
X168217000Y-121774000D02*
X168217000Y-123109000D01*
X168257000Y-118498000D02*
X168257000Y-119814000D01*
X168257000Y-121774000D02*
X168257000Y-123090000D01*
X168297000Y-118518000D02*
X168297000Y-119814000D01*
X168297000Y-121774000D02*
X168297000Y-123070000D01*
X168337000Y-118538000D02*
X168337000Y-119814000D01*
X168337000Y-121774000D02*
X168337000Y-123050000D01*
X168377000Y-118560000D02*
X168377000Y-119814000D01*
X168377000Y-121774000D02*
X168377000Y-123028000D01*
X168417000Y-118582000D02*
X168417000Y-119814000D01*
X168417000Y-121774000D02*
X168417000Y-123006000D01*
X168457000Y-118605000D02*
X168457000Y-119814000D01*
X168457000Y-121774000D02*
X168457000Y-122983000D01*
X168497000Y-118629000D02*
X168497000Y-119814000D01*
X168497000Y-121774000D02*
X168497000Y-122959000D01*
X168537000Y-118654000D02*
X168537000Y-119814000D01*
X168537000Y-121774000D02*
X168537000Y-122934000D01*
X168577000Y-118681000D02*
X168577000Y-119814000D01*
X168577000Y-121774000D02*
X168577000Y-122907000D01*
X168617000Y-118708000D02*
X168617000Y-119814000D01*
X168617000Y-121774000D02*
X168617000Y-122880000D01*
X168657000Y-118736000D02*
X168657000Y-119814000D01*
X168657000Y-121774000D02*
X168657000Y-122852000D01*
X168697000Y-118766000D02*
X168697000Y-119814000D01*
X168697000Y-121774000D02*
X168697000Y-122822000D01*
X168737000Y-118797000D02*
X168737000Y-119814000D01*
X168737000Y-121774000D02*
X168737000Y-122791000D01*
X168777000Y-118829000D02*
X168777000Y-119814000D01*
X168777000Y-121774000D02*
X168777000Y-122759000D01*
X168817000Y-118862000D02*
X168817000Y-119814000D01*
X168817000Y-121774000D02*
X168817000Y-122726000D01*
X168857000Y-118897000D02*
X168857000Y-119814000D01*
X168857000Y-121774000D02*
X168857000Y-122691000D01*
X168897000Y-118933000D02*
X168897000Y-119814000D01*
X168897000Y-121774000D02*
X168897000Y-122655000D01*
X168937000Y-118971000D02*
X168937000Y-119814000D01*
X168937000Y-121774000D02*
X168937000Y-122617000D01*
X168977000Y-119011000D02*
X168977000Y-119814000D01*
X168977000Y-121774000D02*
X168977000Y-122577000D01*
X169017000Y-119052000D02*
X169017000Y-119814000D01*
X169017000Y-121774000D02*
X169017000Y-122536000D01*
X169057000Y-119095000D02*
X169057000Y-119814000D01*
X169057000Y-121774000D02*
X169057000Y-122493000D01*
X169097000Y-119140000D02*
X169097000Y-119814000D01*
X169097000Y-121774000D02*
X169097000Y-122448000D01*
X169137000Y-119188000D02*
X169137000Y-122400000D01*
X169177000Y-119238000D02*
X169177000Y-122350000D01*
X169217000Y-119290000D02*
X169217000Y-122298000D01*
X169257000Y-119346000D02*
X169257000Y-122242000D01*
X169297000Y-119404000D02*
X169297000Y-122184000D01*
X169337000Y-119467000D02*
X169337000Y-122121000D01*
X169377000Y-119533000D02*
X169377000Y-122055000D01*
X169417000Y-119605000D02*
X169417000Y-121983000D01*
X169457000Y-119682000D02*
X169457000Y-121906000D01*
X169497000Y-119766000D02*
X169497000Y-121822000D01*
X169537000Y-119860000D02*
X169537000Y-121728000D01*
X169577000Y-119965000D02*
X169577000Y-121623000D01*
X169617000Y-120087000D02*
X169617000Y-121501000D01*
X169657000Y-120235000D02*
X169657000Y-121353000D01*
X169697000Y-120440000D02*
X169697000Y-121148000D01*
X163936000Y-120794000D02*
X165136000Y-120794000D01*
X164536000Y-120144000D02*
X164536000Y-121444000D01*
X168596000Y-109654000D02*
X163476000Y-109654000D01*
X168596000Y-107034000D02*
X163476000Y-107034000D01*
X168596000Y-109654000D02*
X168596000Y-109340000D01*
X168596000Y-107348000D02*
X168596000Y-107034000D01*
X163476000Y-109654000D02*
X163476000Y-109340000D01*
X163476000Y-107348000D02*
X163476000Y-107034000D01*
X176824000Y-121198000D02*
X171704000Y-121198000D01*
X176824000Y-118578000D02*
X171704000Y-118578000D01*
X176824000Y-121198000D02*
X176824000Y-118578000D01*
X171704000Y-121198000D02*
X171704000Y-118578000D01*
X188890000Y-120810000D02*
X188890000Y-115690000D01*
X191510000Y-120810000D02*
X191510000Y-115690000D01*
X188890000Y-120810000D02*
X191510000Y-120810000D01*
X188890000Y-115690000D02*
X191510000Y-115690000D01*
X203120000Y-132440000D02*
G75*
G03X203120000Y-132440000I-4090000J0D01*
G01*
X199030000Y-128390000D02*
X199030000Y-136490000D01*
X199070000Y-128390000D02*
X199070000Y-136490000D01*
X199110000Y-128390000D02*
X199110000Y-136490000D01*
X199150000Y-128391000D02*
X199150000Y-136489000D01*
X199190000Y-128393000D02*
X199190000Y-136487000D01*
X199230000Y-128394000D02*
X199230000Y-136486000D01*
X199270000Y-128397000D02*
X199270000Y-136483000D01*
X199310000Y-128399000D02*
X199310000Y-136481000D01*
X199350000Y-128402000D02*
X199350000Y-136478000D01*
X199390000Y-128405000D02*
X199390000Y-136475000D01*
X199430000Y-128409000D02*
X199430000Y-136471000D01*
X199470000Y-128413000D02*
X199470000Y-136467000D01*
X199510000Y-128418000D02*
X199510000Y-136462000D01*
X199550000Y-128423000D02*
X199550000Y-136457000D01*
X199590000Y-128428000D02*
X199590000Y-136452000D01*
X199630000Y-128434000D02*
X199630000Y-136446000D01*
X199670000Y-128440000D02*
X199670000Y-136440000D01*
X199710000Y-128446000D02*
X199710000Y-136434000D01*
X199751000Y-128453000D02*
X199751000Y-136427000D01*
X199791000Y-128461000D02*
X199791000Y-136419000D01*
X199831000Y-128469000D02*
X199831000Y-131460000D01*
X199831000Y-133420000D02*
X199831000Y-136411000D01*
X199871000Y-128477000D02*
X199871000Y-131460000D01*
X199871000Y-133420000D02*
X199871000Y-136403000D01*
X199911000Y-128485000D02*
X199911000Y-131460000D01*
X199911000Y-133420000D02*
X199911000Y-136395000D01*
X199951000Y-128494000D02*
X199951000Y-131460000D01*
X199951000Y-133420000D02*
X199951000Y-136386000D01*
X199991000Y-128504000D02*
X199991000Y-131460000D01*
X199991000Y-133420000D02*
X199991000Y-136376000D01*
X200031000Y-128514000D02*
X200031000Y-131460000D01*
X200031000Y-133420000D02*
X200031000Y-136366000D01*
X200071000Y-128524000D02*
X200071000Y-131460000D01*
X200071000Y-133420000D02*
X200071000Y-136356000D01*
X200111000Y-128535000D02*
X200111000Y-131460000D01*
X200111000Y-133420000D02*
X200111000Y-136345000D01*
X200151000Y-128546000D02*
X200151000Y-131460000D01*
X200151000Y-133420000D02*
X200151000Y-136334000D01*
X200191000Y-128557000D02*
X200191000Y-131460000D01*
X200191000Y-133420000D02*
X200191000Y-136323000D01*
X200231000Y-128570000D02*
X200231000Y-131460000D01*
X200231000Y-133420000D02*
X200231000Y-136310000D01*
X200271000Y-128582000D02*
X200271000Y-131460000D01*
X200271000Y-133420000D02*
X200271000Y-136298000D01*
X200311000Y-128595000D02*
X200311000Y-131460000D01*
X200311000Y-133420000D02*
X200311000Y-136285000D01*
X200351000Y-128608000D02*
X200351000Y-131460000D01*
X200351000Y-133420000D02*
X200351000Y-136272000D01*
X200391000Y-128622000D02*
X200391000Y-131460000D01*
X200391000Y-133420000D02*
X200391000Y-136258000D01*
X200431000Y-128637000D02*
X200431000Y-131460000D01*
X200431000Y-133420000D02*
X200431000Y-136243000D01*
X200471000Y-128651000D02*
X200471000Y-131460000D01*
X200471000Y-133420000D02*
X200471000Y-136229000D01*
X200511000Y-128667000D02*
X200511000Y-131460000D01*
X200511000Y-133420000D02*
X200511000Y-136213000D01*
X200551000Y-128682000D02*
X200551000Y-131460000D01*
X200551000Y-133420000D02*
X200551000Y-136198000D01*
X200591000Y-128699000D02*
X200591000Y-131460000D01*
X200591000Y-133420000D02*
X200591000Y-136181000D01*
X200631000Y-128715000D02*
X200631000Y-131460000D01*
X200631000Y-133420000D02*
X200631000Y-136165000D01*
X200671000Y-128733000D02*
X200671000Y-131460000D01*
X200671000Y-133420000D02*
X200671000Y-136147000D01*
X200711000Y-128750000D02*
X200711000Y-131460000D01*
X200711000Y-133420000D02*
X200711000Y-136130000D01*
X200751000Y-128769000D02*
X200751000Y-131460000D01*
X200751000Y-133420000D02*
X200751000Y-136111000D01*
X200791000Y-128788000D02*
X200791000Y-131460000D01*
X200791000Y-133420000D02*
X200791000Y-136092000D01*
X200831000Y-128807000D02*
X200831000Y-131460000D01*
X200831000Y-133420000D02*
X200831000Y-136073000D01*
X200871000Y-128827000D02*
X200871000Y-131460000D01*
X200871000Y-133420000D02*
X200871000Y-136053000D01*
X200911000Y-128847000D02*
X200911000Y-131460000D01*
X200911000Y-133420000D02*
X200911000Y-136033000D01*
X200951000Y-128868000D02*
X200951000Y-131460000D01*
X200951000Y-133420000D02*
X200951000Y-136012000D01*
X200991000Y-128890000D02*
X200991000Y-131460000D01*
X200991000Y-133420000D02*
X200991000Y-135990000D01*
X201031000Y-128912000D02*
X201031000Y-131460000D01*
X201031000Y-133420000D02*
X201031000Y-135968000D01*
X201071000Y-128935000D02*
X201071000Y-131460000D01*
X201071000Y-133420000D02*
X201071000Y-135945000D01*
X201111000Y-128958000D02*
X201111000Y-131460000D01*
X201111000Y-133420000D02*
X201111000Y-135922000D01*
X201151000Y-128982000D02*
X201151000Y-131460000D01*
X201151000Y-133420000D02*
X201151000Y-135898000D01*
X201191000Y-129006000D02*
X201191000Y-131460000D01*
X201191000Y-133420000D02*
X201191000Y-135874000D01*
X201231000Y-129032000D02*
X201231000Y-131460000D01*
X201231000Y-133420000D02*
X201231000Y-135848000D01*
X201271000Y-129057000D02*
X201271000Y-131460000D01*
X201271000Y-133420000D02*
X201271000Y-135823000D01*
X201311000Y-129084000D02*
X201311000Y-131460000D01*
X201311000Y-133420000D02*
X201311000Y-135796000D01*
X201351000Y-129111000D02*
X201351000Y-131460000D01*
X201351000Y-133420000D02*
X201351000Y-135769000D01*
X201391000Y-129139000D02*
X201391000Y-131460000D01*
X201391000Y-133420000D02*
X201391000Y-135741000D01*
X201431000Y-129168000D02*
X201431000Y-131460000D01*
X201431000Y-133420000D02*
X201431000Y-135712000D01*
X201471000Y-129197000D02*
X201471000Y-131460000D01*
X201471000Y-133420000D02*
X201471000Y-135683000D01*
X201511000Y-129227000D02*
X201511000Y-131460000D01*
X201511000Y-133420000D02*
X201511000Y-135653000D01*
X201551000Y-129258000D02*
X201551000Y-131460000D01*
X201551000Y-133420000D02*
X201551000Y-135622000D01*
X201591000Y-129290000D02*
X201591000Y-131460000D01*
X201591000Y-133420000D02*
X201591000Y-135590000D01*
X201631000Y-129322000D02*
X201631000Y-131460000D01*
X201631000Y-133420000D02*
X201631000Y-135558000D01*
X201671000Y-129356000D02*
X201671000Y-131460000D01*
X201671000Y-133420000D02*
X201671000Y-135524000D01*
X201711000Y-129390000D02*
X201711000Y-131460000D01*
X201711000Y-133420000D02*
X201711000Y-135490000D01*
X201751000Y-129425000D02*
X201751000Y-131460000D01*
X201751000Y-133420000D02*
X201751000Y-135455000D01*
X201791000Y-129461000D02*
X201791000Y-135419000D01*
X201831000Y-129498000D02*
X201831000Y-135382000D01*
X201871000Y-129536000D02*
X201871000Y-135344000D01*
X201911000Y-129575000D02*
X201911000Y-135305000D01*
X201951000Y-129616000D02*
X201951000Y-135264000D01*
X201991000Y-129657000D02*
X201991000Y-135223000D01*
X202031000Y-129700000D02*
X202031000Y-135180000D01*
X202071000Y-129743000D02*
X202071000Y-135137000D01*
X202111000Y-129788000D02*
X202111000Y-135092000D01*
X202151000Y-129835000D02*
X202151000Y-135045000D01*
X202191000Y-129883000D02*
X202191000Y-134997000D01*
X202231000Y-129932000D02*
X202231000Y-134948000D01*
X202271000Y-129983000D02*
X202271000Y-134897000D01*
X202311000Y-130036000D02*
X202311000Y-134844000D01*
X202351000Y-130091000D02*
X202351000Y-134789000D01*
X202391000Y-130147000D02*
X202391000Y-134733000D01*
X202431000Y-130206000D02*
X202431000Y-134674000D01*
X202471000Y-130267000D02*
X202471000Y-134613000D01*
X202511000Y-130331000D02*
X202511000Y-134549000D01*
X202551000Y-130397000D02*
X202551000Y-134483000D01*
X202591000Y-130466000D02*
X202591000Y-134414000D01*
X202631000Y-130538000D02*
X202631000Y-134342000D01*
X202671000Y-130614000D02*
X202671000Y-134266000D01*
X202711000Y-130695000D02*
X202711000Y-134185000D01*
X202751000Y-130780000D02*
X202751000Y-134100000D01*
X202791000Y-130870000D02*
X202791000Y-134010000D01*
X202831000Y-130967000D02*
X202831000Y-133913000D01*
X202871000Y-131071000D02*
X202871000Y-133809000D01*
X202911000Y-131186000D02*
X202911000Y-133694000D01*
X202951000Y-131313000D02*
X202951000Y-133567000D01*
X202991000Y-131457000D02*
X202991000Y-133423000D01*
X203031000Y-131626000D02*
X203031000Y-133254000D01*
X203071000Y-131842000D02*
X203071000Y-133038000D01*
X203111000Y-132194000D02*
X203111000Y-132686000D01*
X195080000Y-132440000D02*
X196280000Y-132440000D01*
X195680000Y-131790000D02*
X195680000Y-133090000D01*
X192846000Y-133644000D02*
X187726000Y-133644000D01*
X192846000Y-131024000D02*
X187726000Y-131024000D01*
X192846000Y-133644000D02*
X192846000Y-133330000D01*
X192846000Y-131338000D02*
X192846000Y-131024000D01*
X187726000Y-133644000D02*
X187726000Y-133330000D01*
X187726000Y-131338000D02*
X187726000Y-131024000D01*
X95710000Y-120990000D02*
X95710000Y-126110000D01*
X93090000Y-120990000D02*
X93090000Y-126110000D01*
X95710000Y-120990000D02*
X93090000Y-120990000D01*
X95710000Y-126110000D02*
X93090000Y-126110000D01*
X114044000Y-132334000D02*
G75*
G03X114044000Y-132334000I-4090000J0D01*
G01*
X109954000Y-128284000D02*
X109954000Y-136384000D01*
X109994000Y-128284000D02*
X109994000Y-136384000D01*
X110034000Y-128284000D02*
X110034000Y-136384000D01*
X110074000Y-128285000D02*
X110074000Y-136383000D01*
X110114000Y-128287000D02*
X110114000Y-136381000D01*
X110154000Y-128288000D02*
X110154000Y-136380000D01*
X110194000Y-128291000D02*
X110194000Y-136377000D01*
X110234000Y-128293000D02*
X110234000Y-136375000D01*
X110274000Y-128296000D02*
X110274000Y-136372000D01*
X110314000Y-128299000D02*
X110314000Y-136369000D01*
X110354000Y-128303000D02*
X110354000Y-136365000D01*
X110394000Y-128307000D02*
X110394000Y-136361000D01*
X110434000Y-128312000D02*
X110434000Y-136356000D01*
X110474000Y-128317000D02*
X110474000Y-136351000D01*
X110514000Y-128322000D02*
X110514000Y-136346000D01*
X110554000Y-128328000D02*
X110554000Y-136340000D01*
X110594000Y-128334000D02*
X110594000Y-136334000D01*
X110634000Y-128340000D02*
X110634000Y-136328000D01*
X110675000Y-128347000D02*
X110675000Y-136321000D01*
X110715000Y-128355000D02*
X110715000Y-136313000D01*
X110755000Y-128363000D02*
X110755000Y-131354000D01*
X110755000Y-133314000D02*
X110755000Y-136305000D01*
X110795000Y-128371000D02*
X110795000Y-131354000D01*
X110795000Y-133314000D02*
X110795000Y-136297000D01*
X110835000Y-128379000D02*
X110835000Y-131354000D01*
X110835000Y-133314000D02*
X110835000Y-136289000D01*
X110875000Y-128388000D02*
X110875000Y-131354000D01*
X110875000Y-133314000D02*
X110875000Y-136280000D01*
X110915000Y-128398000D02*
X110915000Y-131354000D01*
X110915000Y-133314000D02*
X110915000Y-136270000D01*
X110955000Y-128408000D02*
X110955000Y-131354000D01*
X110955000Y-133314000D02*
X110955000Y-136260000D01*
X110995000Y-128418000D02*
X110995000Y-131354000D01*
X110995000Y-133314000D02*
X110995000Y-136250000D01*
X111035000Y-128429000D02*
X111035000Y-131354000D01*
X111035000Y-133314000D02*
X111035000Y-136239000D01*
X111075000Y-128440000D02*
X111075000Y-131354000D01*
X111075000Y-133314000D02*
X111075000Y-136228000D01*
X111115000Y-128451000D02*
X111115000Y-131354000D01*
X111115000Y-133314000D02*
X111115000Y-136217000D01*
X111155000Y-128464000D02*
X111155000Y-131354000D01*
X111155000Y-133314000D02*
X111155000Y-136204000D01*
X111195000Y-128476000D02*
X111195000Y-131354000D01*
X111195000Y-133314000D02*
X111195000Y-136192000D01*
X111235000Y-128489000D02*
X111235000Y-131354000D01*
X111235000Y-133314000D02*
X111235000Y-136179000D01*
X111275000Y-128502000D02*
X111275000Y-131354000D01*
X111275000Y-133314000D02*
X111275000Y-136166000D01*
X111315000Y-128516000D02*
X111315000Y-131354000D01*
X111315000Y-133314000D02*
X111315000Y-136152000D01*
X111355000Y-128531000D02*
X111355000Y-131354000D01*
X111355000Y-133314000D02*
X111355000Y-136137000D01*
X111395000Y-128545000D02*
X111395000Y-131354000D01*
X111395000Y-133314000D02*
X111395000Y-136123000D01*
X111435000Y-128561000D02*
X111435000Y-131354000D01*
X111435000Y-133314000D02*
X111435000Y-136107000D01*
X111475000Y-128576000D02*
X111475000Y-131354000D01*
X111475000Y-133314000D02*
X111475000Y-136092000D01*
X111515000Y-128593000D02*
X111515000Y-131354000D01*
X111515000Y-133314000D02*
X111515000Y-136075000D01*
X111555000Y-128609000D02*
X111555000Y-131354000D01*
X111555000Y-133314000D02*
X111555000Y-136059000D01*
X111595000Y-128627000D02*
X111595000Y-131354000D01*
X111595000Y-133314000D02*
X111595000Y-136041000D01*
X111635000Y-128644000D02*
X111635000Y-131354000D01*
X111635000Y-133314000D02*
X111635000Y-136024000D01*
X111675000Y-128663000D02*
X111675000Y-131354000D01*
X111675000Y-133314000D02*
X111675000Y-136005000D01*
X111715000Y-128682000D02*
X111715000Y-131354000D01*
X111715000Y-133314000D02*
X111715000Y-135986000D01*
X111755000Y-128701000D02*
X111755000Y-131354000D01*
X111755000Y-133314000D02*
X111755000Y-135967000D01*
X111795000Y-128721000D02*
X111795000Y-131354000D01*
X111795000Y-133314000D02*
X111795000Y-135947000D01*
X111835000Y-128741000D02*
X111835000Y-131354000D01*
X111835000Y-133314000D02*
X111835000Y-135927000D01*
X111875000Y-128762000D02*
X111875000Y-131354000D01*
X111875000Y-133314000D02*
X111875000Y-135906000D01*
X111915000Y-128784000D02*
X111915000Y-131354000D01*
X111915000Y-133314000D02*
X111915000Y-135884000D01*
X111955000Y-128806000D02*
X111955000Y-131354000D01*
X111955000Y-133314000D02*
X111955000Y-135862000D01*
X111995000Y-128829000D02*
X111995000Y-131354000D01*
X111995000Y-133314000D02*
X111995000Y-135839000D01*
X112035000Y-128852000D02*
X112035000Y-131354000D01*
X112035000Y-133314000D02*
X112035000Y-135816000D01*
X112075000Y-128876000D02*
X112075000Y-131354000D01*
X112075000Y-133314000D02*
X112075000Y-135792000D01*
X112115000Y-128900000D02*
X112115000Y-131354000D01*
X112115000Y-133314000D02*
X112115000Y-135768000D01*
X112155000Y-128926000D02*
X112155000Y-131354000D01*
X112155000Y-133314000D02*
X112155000Y-135742000D01*
X112195000Y-128951000D02*
X112195000Y-131354000D01*
X112195000Y-133314000D02*
X112195000Y-135717000D01*
X112235000Y-128978000D02*
X112235000Y-131354000D01*
X112235000Y-133314000D02*
X112235000Y-135690000D01*
X112275000Y-129005000D02*
X112275000Y-131354000D01*
X112275000Y-133314000D02*
X112275000Y-135663000D01*
X112315000Y-129033000D02*
X112315000Y-131354000D01*
X112315000Y-133314000D02*
X112315000Y-135635000D01*
X112355000Y-129062000D02*
X112355000Y-131354000D01*
X112355000Y-133314000D02*
X112355000Y-135606000D01*
X112395000Y-129091000D02*
X112395000Y-131354000D01*
X112395000Y-133314000D02*
X112395000Y-135577000D01*
X112435000Y-129121000D02*
X112435000Y-131354000D01*
X112435000Y-133314000D02*
X112435000Y-135547000D01*
X112475000Y-129152000D02*
X112475000Y-131354000D01*
X112475000Y-133314000D02*
X112475000Y-135516000D01*
X112515000Y-129184000D02*
X112515000Y-131354000D01*
X112515000Y-133314000D02*
X112515000Y-135484000D01*
X112555000Y-129216000D02*
X112555000Y-131354000D01*
X112555000Y-133314000D02*
X112555000Y-135452000D01*
X112595000Y-129250000D02*
X112595000Y-131354000D01*
X112595000Y-133314000D02*
X112595000Y-135418000D01*
X112635000Y-129284000D02*
X112635000Y-131354000D01*
X112635000Y-133314000D02*
X112635000Y-135384000D01*
X112675000Y-129319000D02*
X112675000Y-131354000D01*
X112675000Y-133314000D02*
X112675000Y-135349000D01*
X112715000Y-129355000D02*
X112715000Y-135313000D01*
X112755000Y-129392000D02*
X112755000Y-135276000D01*
X112795000Y-129430000D02*
X112795000Y-135238000D01*
X112835000Y-129469000D02*
X112835000Y-135199000D01*
X112875000Y-129510000D02*
X112875000Y-135158000D01*
X112915000Y-129551000D02*
X112915000Y-135117000D01*
X112955000Y-129594000D02*
X112955000Y-135074000D01*
X112995000Y-129637000D02*
X112995000Y-135031000D01*
X113035000Y-129682000D02*
X113035000Y-134986000D01*
X113075000Y-129729000D02*
X113075000Y-134939000D01*
X113115000Y-129777000D02*
X113115000Y-134891000D01*
X113155000Y-129826000D02*
X113155000Y-134842000D01*
X113195000Y-129877000D02*
X113195000Y-134791000D01*
X113235000Y-129930000D02*
X113235000Y-134738000D01*
X113275000Y-129985000D02*
X113275000Y-134683000D01*
X113315000Y-130041000D02*
X113315000Y-134627000D01*
X113355000Y-130100000D02*
X113355000Y-134568000D01*
X113395000Y-130161000D02*
X113395000Y-134507000D01*
X113435000Y-130225000D02*
X113435000Y-134443000D01*
X113475000Y-130291000D02*
X113475000Y-134377000D01*
X113515000Y-130360000D02*
X113515000Y-134308000D01*
X113555000Y-130432000D02*
X113555000Y-134236000D01*
X113595000Y-130508000D02*
X113595000Y-134160000D01*
X113635000Y-130589000D02*
X113635000Y-134079000D01*
X113675000Y-130674000D02*
X113675000Y-133994000D01*
X113715000Y-130764000D02*
X113715000Y-133904000D01*
X113755000Y-130861000D02*
X113755000Y-133807000D01*
X113795000Y-130965000D02*
X113795000Y-133703000D01*
X113835000Y-131080000D02*
X113835000Y-133588000D01*
X113875000Y-131207000D02*
X113875000Y-133461000D01*
X113915000Y-131351000D02*
X113915000Y-133317000D01*
X113955000Y-131520000D02*
X113955000Y-133148000D01*
X113995000Y-131736000D02*
X113995000Y-132932000D01*
X114035000Y-132088000D02*
X114035000Y-132580000D01*
X106004000Y-132334000D02*
X107204000Y-132334000D01*
X106604000Y-131684000D02*
X106604000Y-132984000D01*
X97222000Y-123404000D02*
X102342000Y-123404000D01*
X97222000Y-126024000D02*
X102342000Y-126024000D01*
X97222000Y-123404000D02*
X97222000Y-123718000D01*
X97222000Y-125710000D02*
X97222000Y-126024000D01*
X102342000Y-123404000D02*
X102342000Y-123718000D01*
X102342000Y-125710000D02*
X102342000Y-126024000D01*
X102676000Y-131866000D02*
X97556000Y-131866000D01*
X102676000Y-129246000D02*
X97556000Y-129246000D01*
X102676000Y-131866000D02*
X102676000Y-131552000D01*
X102676000Y-129560000D02*
X102676000Y-129246000D01*
X97556000Y-131866000D02*
X97556000Y-131552000D01*
X97556000Y-129560000D02*
X97556000Y-129246000D01*
X187900000Y-125182000D02*
X193020000Y-125182000D01*
X187900000Y-127802000D02*
X193020000Y-127802000D01*
X187900000Y-125182000D02*
X187900000Y-125496000D01*
X187900000Y-127488000D02*
X187900000Y-127802000D01*
X193020000Y-125182000D02*
X193020000Y-125496000D01*
X193020000Y-127488000D02*
X193020000Y-127802000D01*
X128510000Y-132790000D02*
X128130000Y-132790000D01*
X128510000Y-136840000D02*
X128510000Y-137100000D01*
X128510000Y-132790000D02*
X128510000Y-134560000D01*
X120890000Y-132790000D02*
X121270000Y-132790000D01*
X120890000Y-134560000D02*
X120890000Y-132790000D01*
X120890000Y-137100000D02*
X120890000Y-136840000D01*
X181864000Y-131826000D02*
X176784000Y-131826000D01*
X181864000Y-136266000D02*
X176784000Y-136266000D01*
X176784000Y-129926000D02*
X181864000Y-129926000D01*
X176784000Y-129926000D02*
X176784000Y-136266000D01*
X181864000Y-129926000D02*
X181864000Y-136266000D01*
X219230000Y-128990000D02*
X219230000Y-134070000D01*
X223670000Y-128990000D02*
X223670000Y-134070000D01*
X217330000Y-134070000D02*
X217330000Y-128990000D01*
X217330000Y-134070000D02*
X223670000Y-134070000D01*
X217330000Y-128990000D02*
X223670000Y-128990000D01*
X82330000Y-128690000D02*
X82330000Y-133770000D01*
X86770000Y-128690000D02*
X86770000Y-133770000D01*
X80430000Y-133770000D02*
X80430000Y-128690000D01*
X80430000Y-133770000D02*
X86770000Y-133770000D01*
X80430000Y-128690000D02*
X86770000Y-128690000D01*
X111764000Y-69622000D02*
X170684000Y-69622000D01*
X170684000Y-69622000D02*
X170684000Y-79222000D01*
X170684000Y-79222000D02*
X111764000Y-79222000D01*
X111764000Y-79222000D02*
X111764000Y-69622000D01*
X180695000Y-110360000D02*
X181640000Y-110360000D01*
X181640000Y-110360000D02*
X181640000Y-115640000D01*
X181640000Y-115640000D02*
X180695000Y-115640000D01*
X177305000Y-110360000D02*
X176360000Y-110360000D01*
X176360000Y-110360000D02*
X176360000Y-115640000D01*
X176360000Y-115640000D02*
X177305000Y-115640000D01*
D14*
X131266000Y-108930000D02*
X131266000Y-108780000D01*
X128016000Y-108930000D02*
X128016000Y-108682500D01*
X128016000Y-105680000D02*
X128016000Y-105927500D01*
X131266000Y-105680000D02*
X131266000Y-105927500D01*
X131266000Y-108930000D02*
X128016000Y-108930000D01*
X131266000Y-105680000D02*
X128016000Y-105680000D01*
X131266000Y-108780000D02*
X132191000Y-108780000D01*
D13*
X169246000Y-115394000D02*
X169246000Y-113594000D01*
X166026000Y-113594000D02*
X166026000Y-116544000D01*
X197735000Y-120505000D02*
X199495000Y-120505000D01*
X199495000Y-117435000D02*
X197065000Y-117435000D01*
X108594000Y-119162000D02*
X110354000Y-119162000D01*
X110354000Y-116092000D02*
X107924000Y-116092000D01*
X169441722Y-125314277D02*
G75*
G03X164830420Y-125314000I-2305722J-1179723D01*
G01*
X169441722Y-127673723D02*
G75*
G02X164830420Y-127674000I-2305722J1179723D01*
G01*
X169441722Y-127673723D02*
G75*
G03X169441580Y-125314000I-2305722J1179723D01*
G01*
X167136000Y-123944000D02*
X167136000Y-129044000D01*
X167176000Y-123944000D02*
X167176000Y-125514000D01*
X167176000Y-127474000D02*
X167176000Y-129044000D01*
X167216000Y-123945000D02*
X167216000Y-125514000D01*
X167216000Y-127474000D02*
X167216000Y-129043000D01*
X167256000Y-123946000D02*
X167256000Y-125514000D01*
X167256000Y-127474000D02*
X167256000Y-129042000D01*
X167296000Y-123948000D02*
X167296000Y-125514000D01*
X167296000Y-127474000D02*
X167296000Y-129040000D01*
X167336000Y-123951000D02*
X167336000Y-125514000D01*
X167336000Y-127474000D02*
X167336000Y-129037000D01*
X167376000Y-123955000D02*
X167376000Y-125514000D01*
X167376000Y-127474000D02*
X167376000Y-129033000D01*
X167416000Y-123959000D02*
X167416000Y-125514000D01*
X167416000Y-127474000D02*
X167416000Y-129029000D01*
X167456000Y-123963000D02*
X167456000Y-125514000D01*
X167456000Y-127474000D02*
X167456000Y-129025000D01*
X167496000Y-123969000D02*
X167496000Y-125514000D01*
X167496000Y-127474000D02*
X167496000Y-129019000D01*
X167536000Y-123975000D02*
X167536000Y-125514000D01*
X167536000Y-127474000D02*
X167536000Y-129013000D01*
X167576000Y-123981000D02*
X167576000Y-125514000D01*
X167576000Y-127474000D02*
X167576000Y-129007000D01*
X167616000Y-123988000D02*
X167616000Y-125514000D01*
X167616000Y-127474000D02*
X167616000Y-129000000D01*
X167656000Y-123996000D02*
X167656000Y-125514000D01*
X167656000Y-127474000D02*
X167656000Y-128992000D01*
X167696000Y-124005000D02*
X167696000Y-125514000D01*
X167696000Y-127474000D02*
X167696000Y-128983000D01*
X167736000Y-124014000D02*
X167736000Y-125514000D01*
X167736000Y-127474000D02*
X167736000Y-128974000D01*
X167776000Y-124024000D02*
X167776000Y-125514000D01*
X167776000Y-127474000D02*
X167776000Y-128964000D01*
X167816000Y-124034000D02*
X167816000Y-125514000D01*
X167816000Y-127474000D02*
X167816000Y-128954000D01*
X167857000Y-124046000D02*
X167857000Y-125514000D01*
X167857000Y-127474000D02*
X167857000Y-128942000D01*
X167897000Y-124058000D02*
X167897000Y-125514000D01*
X167897000Y-127474000D02*
X167897000Y-128930000D01*
X167937000Y-124070000D02*
X167937000Y-125514000D01*
X167937000Y-127474000D02*
X167937000Y-128918000D01*
X167977000Y-124084000D02*
X167977000Y-125514000D01*
X167977000Y-127474000D02*
X167977000Y-128904000D01*
X168017000Y-124098000D02*
X168017000Y-125514000D01*
X168017000Y-127474000D02*
X168017000Y-128890000D01*
X168057000Y-124112000D02*
X168057000Y-125514000D01*
X168057000Y-127474000D02*
X168057000Y-128876000D01*
X168097000Y-124128000D02*
X168097000Y-125514000D01*
X168097000Y-127474000D02*
X168097000Y-128860000D01*
X168137000Y-124144000D02*
X168137000Y-125514000D01*
X168137000Y-127474000D02*
X168137000Y-128844000D01*
X168177000Y-124161000D02*
X168177000Y-125514000D01*
X168177000Y-127474000D02*
X168177000Y-128827000D01*
X168217000Y-124179000D02*
X168217000Y-125514000D01*
X168217000Y-127474000D02*
X168217000Y-128809000D01*
X168257000Y-124198000D02*
X168257000Y-125514000D01*
X168257000Y-127474000D02*
X168257000Y-128790000D01*
X168297000Y-124218000D02*
X168297000Y-125514000D01*
X168297000Y-127474000D02*
X168297000Y-128770000D01*
X168337000Y-124238000D02*
X168337000Y-125514000D01*
X168337000Y-127474000D02*
X168337000Y-128750000D01*
X168377000Y-124260000D02*
X168377000Y-125514000D01*
X168377000Y-127474000D02*
X168377000Y-128728000D01*
X168417000Y-124282000D02*
X168417000Y-125514000D01*
X168417000Y-127474000D02*
X168417000Y-128706000D01*
X168457000Y-124305000D02*
X168457000Y-125514000D01*
X168457000Y-127474000D02*
X168457000Y-128683000D01*
X168497000Y-124329000D02*
X168497000Y-125514000D01*
X168497000Y-127474000D02*
X168497000Y-128659000D01*
X168537000Y-124354000D02*
X168537000Y-125514000D01*
X168537000Y-127474000D02*
X168537000Y-128634000D01*
X168577000Y-124381000D02*
X168577000Y-125514000D01*
X168577000Y-127474000D02*
X168577000Y-128607000D01*
X168617000Y-124408000D02*
X168617000Y-125514000D01*
X168617000Y-127474000D02*
X168617000Y-128580000D01*
X168657000Y-124436000D02*
X168657000Y-125514000D01*
X168657000Y-127474000D02*
X168657000Y-128552000D01*
X168697000Y-124466000D02*
X168697000Y-125514000D01*
X168697000Y-127474000D02*
X168697000Y-128522000D01*
X168737000Y-124497000D02*
X168737000Y-125514000D01*
X168737000Y-127474000D02*
X168737000Y-128491000D01*
X168777000Y-124529000D02*
X168777000Y-125514000D01*
X168777000Y-127474000D02*
X168777000Y-128459000D01*
X168817000Y-124562000D02*
X168817000Y-125514000D01*
X168817000Y-127474000D02*
X168817000Y-128426000D01*
X168857000Y-124597000D02*
X168857000Y-125514000D01*
X168857000Y-127474000D02*
X168857000Y-128391000D01*
X168897000Y-124633000D02*
X168897000Y-125514000D01*
X168897000Y-127474000D02*
X168897000Y-128355000D01*
X168937000Y-124671000D02*
X168937000Y-125514000D01*
X168937000Y-127474000D02*
X168937000Y-128317000D01*
X168977000Y-124711000D02*
X168977000Y-125514000D01*
X168977000Y-127474000D02*
X168977000Y-128277000D01*
X169017000Y-124752000D02*
X169017000Y-125514000D01*
X169017000Y-127474000D02*
X169017000Y-128236000D01*
X169057000Y-124795000D02*
X169057000Y-125514000D01*
X169057000Y-127474000D02*
X169057000Y-128193000D01*
X169097000Y-124840000D02*
X169097000Y-125514000D01*
X169097000Y-127474000D02*
X169097000Y-128148000D01*
X169137000Y-124888000D02*
X169137000Y-128100000D01*
X169177000Y-124938000D02*
X169177000Y-128050000D01*
X169217000Y-124990000D02*
X169217000Y-127998000D01*
X169257000Y-125046000D02*
X169257000Y-127942000D01*
X169297000Y-125104000D02*
X169297000Y-127884000D01*
X169337000Y-125167000D02*
X169337000Y-127821000D01*
X169377000Y-125233000D02*
X169377000Y-127755000D01*
X169417000Y-125305000D02*
X169417000Y-127683000D01*
X169457000Y-125382000D02*
X169457000Y-127606000D01*
X169497000Y-125466000D02*
X169497000Y-127522000D01*
X169537000Y-125560000D02*
X169537000Y-127428000D01*
X169577000Y-125665000D02*
X169577000Y-127323000D01*
X169617000Y-125787000D02*
X169617000Y-127201000D01*
X169657000Y-125935000D02*
X169657000Y-127053000D01*
X169697000Y-126140000D02*
X169697000Y-126848000D01*
X163936000Y-126494000D02*
X165136000Y-126494000D01*
X164536000Y-125844000D02*
X164536000Y-127144000D01*
X110110000Y-65630000D02*
X105030000Y-65630000D01*
X110110000Y-70070000D02*
X105030000Y-70070000D01*
X105030000Y-63730000D02*
X110110000Y-63730000D01*
X105030000Y-63730000D02*
X105030000Y-70070000D01*
X110110000Y-63730000D02*
X110110000Y-70070000D01*
X193060000Y-65480000D02*
X187980000Y-65480000D01*
X193060000Y-69920000D02*
X187980000Y-69920000D01*
X187980000Y-63580000D02*
X193060000Y-63580000D01*
X187980000Y-63580000D02*
X187980000Y-69920000D01*
X193060000Y-63580000D02*
X193060000Y-69920000D01*
X131850000Y-130600000D02*
X131850000Y-129600000D01*
X130150000Y-129600000D02*
X130150000Y-130600000D01*
X138342000Y-124240000D02*
X137342000Y-124240000D01*
X137342000Y-125940000D02*
X138342000Y-125940000D01*
X144550000Y-128500000D02*
X144550000Y-129500000D01*
X146250000Y-129500000D02*
X146250000Y-128500000D01*
X147550000Y-118440000D02*
X147550000Y-120560000D01*
X147550000Y-120560000D02*
X151670000Y-120560000D01*
X151670000Y-120560000D02*
X151670000Y-118440000D01*
X151670000Y-118440000D02*
X147550000Y-118440000D01*
X146780000Y-119500000D02*
X147550000Y-119500000D01*
X152440000Y-119500000D02*
X151670000Y-119500000D01*
X148210000Y-118440000D02*
X148210000Y-120560000D01*
D14*
X140128000Y-127050000D02*
X140128000Y-132130000D01*
X140128000Y-132130000D02*
X135556000Y-132130000D01*
X135556000Y-132130000D02*
X135556000Y-127050000D01*
X135556000Y-127050000D02*
X140128000Y-127050000D01*
X138604000Y-127050000D02*
X138604000Y-127558000D01*
X138604000Y-127558000D02*
X137334000Y-127558000D01*
X137334000Y-127558000D02*
X137334000Y-127050000D01*
D15*
X92510154Y-90424000D02*
G75*
G03X92510154Y-90424000I-5388154J0D01*
G01*
X92510154Y-109474000D02*
G75*
G03X92510154Y-109474000I-5388154J0D01*
G01*
X82604154Y-100076000D02*
G75*
G03X82604154Y-100076000I-5388154J0D01*
G01*
X102162154Y-100076000D02*
G75*
G03X102162154Y-100076000I-5388154J0D01*
G01*
X233988154Y-100076000D02*
G75*
G03X233988154Y-100076000I-5388154J0D01*
G01*
X220526154Y-110490000D02*
G75*
G03X220526154Y-110490000I-5388154J0D01*
G01*
X220526154Y-89662000D02*
G75*
G03X220526154Y-89662000I-5388154J0D01*
G01*
X207064154Y-100076000D02*
G75*
G03X207064154Y-100076000I-5388154J0D01*
G01*
D13*
X134531000Y-109715000D02*
X134531000Y-104595000D01*
X137151000Y-109715000D02*
X137151000Y-104595000D01*
X134531000Y-109715000D02*
X137151000Y-109715000D01*
X134531000Y-104595000D02*
X137151000Y-104595000D01*
X205576277Y-121916278D02*
G75*
G03X205576000Y-126527580I1179723J-2305722D01*
G01*
X207935723Y-121916278D02*
G75*
G02X207936000Y-126527580I-1179723J-2305722D01*
G01*
X207935723Y-121916278D02*
G75*
G03X205576000Y-121916420I-1179723J-2305722D01*
G01*
X204206000Y-124222000D02*
X209306000Y-124222000D01*
X204206000Y-124182000D02*
X205776000Y-124182000D01*
X207736000Y-124182000D02*
X209306000Y-124182000D01*
X204207000Y-124142000D02*
X205776000Y-124142000D01*
X207736000Y-124142000D02*
X209305000Y-124142000D01*
X204208000Y-124102000D02*
X205776000Y-124102000D01*
X207736000Y-124102000D02*
X209304000Y-124102000D01*
X204210000Y-124062000D02*
X205776000Y-124062000D01*
X207736000Y-124062000D02*
X209302000Y-124062000D01*
X204213000Y-124022000D02*
X205776000Y-124022000D01*
X207736000Y-124022000D02*
X209299000Y-124022000D01*
X204217000Y-123982000D02*
X205776000Y-123982000D01*
X207736000Y-123982000D02*
X209295000Y-123982000D01*
X204221000Y-123942000D02*
X205776000Y-123942000D01*
X207736000Y-123942000D02*
X209291000Y-123942000D01*
X204225000Y-123902000D02*
X205776000Y-123902000D01*
X207736000Y-123902000D02*
X209287000Y-123902000D01*
X204231000Y-123862000D02*
X205776000Y-123862000D01*
X207736000Y-123862000D02*
X209281000Y-123862000D01*
X204237000Y-123822000D02*
X205776000Y-123822000D01*
X207736000Y-123822000D02*
X209275000Y-123822000D01*
X204243000Y-123782000D02*
X205776000Y-123782000D01*
X207736000Y-123782000D02*
X209269000Y-123782000D01*
X204250000Y-123742000D02*
X205776000Y-123742000D01*
X207736000Y-123742000D02*
X209262000Y-123742000D01*
X204258000Y-123702000D02*
X205776000Y-123702000D01*
X207736000Y-123702000D02*
X209254000Y-123702000D01*
X204267000Y-123662000D02*
X205776000Y-123662000D01*
X207736000Y-123662000D02*
X209245000Y-123662000D01*
X204276000Y-123622000D02*
X205776000Y-123622000D01*
X207736000Y-123622000D02*
X209236000Y-123622000D01*
X204286000Y-123582000D02*
X205776000Y-123582000D01*
X207736000Y-123582000D02*
X209226000Y-123582000D01*
X204296000Y-123542000D02*
X205776000Y-123542000D01*
X207736000Y-123542000D02*
X209216000Y-123542000D01*
X204308000Y-123501000D02*
X205776000Y-123501000D01*
X207736000Y-123501000D02*
X209204000Y-123501000D01*
X204320000Y-123461000D02*
X205776000Y-123461000D01*
X207736000Y-123461000D02*
X209192000Y-123461000D01*
X204332000Y-123421000D02*
X205776000Y-123421000D01*
X207736000Y-123421000D02*
X209180000Y-123421000D01*
X204346000Y-123381000D02*
X205776000Y-123381000D01*
X207736000Y-123381000D02*
X209166000Y-123381000D01*
X204360000Y-123341000D02*
X205776000Y-123341000D01*
X207736000Y-123341000D02*
X209152000Y-123341000D01*
X204374000Y-123301000D02*
X205776000Y-123301000D01*
X207736000Y-123301000D02*
X209138000Y-123301000D01*
X204390000Y-123261000D02*
X205776000Y-123261000D01*
X207736000Y-123261000D02*
X209122000Y-123261000D01*
X204406000Y-123221000D02*
X205776000Y-123221000D01*
X207736000Y-123221000D02*
X209106000Y-123221000D01*
X204423000Y-123181000D02*
X205776000Y-123181000D01*
X207736000Y-123181000D02*
X209089000Y-123181000D01*
X204441000Y-123141000D02*
X205776000Y-123141000D01*
X207736000Y-123141000D02*
X209071000Y-123141000D01*
X204460000Y-123101000D02*
X205776000Y-123101000D01*
X207736000Y-123101000D02*
X209052000Y-123101000D01*
X204480000Y-123061000D02*
X205776000Y-123061000D01*
X207736000Y-123061000D02*
X209032000Y-123061000D01*
X204500000Y-123021000D02*
X205776000Y-123021000D01*
X207736000Y-123021000D02*
X209012000Y-123021000D01*
X204522000Y-122981000D02*
X205776000Y-122981000D01*
X207736000Y-122981000D02*
X208990000Y-122981000D01*
X204544000Y-122941000D02*
X205776000Y-122941000D01*
X207736000Y-122941000D02*
X208968000Y-122941000D01*
X204567000Y-122901000D02*
X205776000Y-122901000D01*
X207736000Y-122901000D02*
X208945000Y-122901000D01*
X204591000Y-122861000D02*
X205776000Y-122861000D01*
X207736000Y-122861000D02*
X208921000Y-122861000D01*
X204616000Y-122821000D02*
X205776000Y-122821000D01*
X207736000Y-122821000D02*
X208896000Y-122821000D01*
X204643000Y-122781000D02*
X205776000Y-122781000D01*
X207736000Y-122781000D02*
X208869000Y-122781000D01*
X204670000Y-122741000D02*
X205776000Y-122741000D01*
X207736000Y-122741000D02*
X208842000Y-122741000D01*
X204698000Y-122701000D02*
X205776000Y-122701000D01*
X207736000Y-122701000D02*
X208814000Y-122701000D01*
X204728000Y-122661000D02*
X205776000Y-122661000D01*
X207736000Y-122661000D02*
X208784000Y-122661000D01*
X204759000Y-122621000D02*
X205776000Y-122621000D01*
X207736000Y-122621000D02*
X208753000Y-122621000D01*
X204791000Y-122581000D02*
X205776000Y-122581000D01*
X207736000Y-122581000D02*
X208721000Y-122581000D01*
X204824000Y-122541000D02*
X205776000Y-122541000D01*
X207736000Y-122541000D02*
X208688000Y-122541000D01*
X204859000Y-122501000D02*
X205776000Y-122501000D01*
X207736000Y-122501000D02*
X208653000Y-122501000D01*
X204895000Y-122461000D02*
X205776000Y-122461000D01*
X207736000Y-122461000D02*
X208617000Y-122461000D01*
X204933000Y-122421000D02*
X205776000Y-122421000D01*
X207736000Y-122421000D02*
X208579000Y-122421000D01*
X204973000Y-122381000D02*
X205776000Y-122381000D01*
X207736000Y-122381000D02*
X208539000Y-122381000D01*
X205014000Y-122341000D02*
X205776000Y-122341000D01*
X207736000Y-122341000D02*
X208498000Y-122341000D01*
X205057000Y-122301000D02*
X205776000Y-122301000D01*
X207736000Y-122301000D02*
X208455000Y-122301000D01*
X205102000Y-122261000D02*
X205776000Y-122261000D01*
X207736000Y-122261000D02*
X208410000Y-122261000D01*
X205150000Y-122221000D02*
X208362000Y-122221000D01*
X205200000Y-122181000D02*
X208312000Y-122181000D01*
X205252000Y-122141000D02*
X208260000Y-122141000D01*
X205308000Y-122101000D02*
X208204000Y-122101000D01*
X205366000Y-122061000D02*
X208146000Y-122061000D01*
X205429000Y-122021000D02*
X208083000Y-122021000D01*
X205495000Y-121981000D02*
X208017000Y-121981000D01*
X205567000Y-121941000D02*
X207945000Y-121941000D01*
X205644000Y-121901000D02*
X207868000Y-121901000D01*
X205728000Y-121861000D02*
X207784000Y-121861000D01*
X205822000Y-121821000D02*
X207690000Y-121821000D01*
X205927000Y-121781000D02*
X207585000Y-121781000D01*
X206049000Y-121741000D02*
X207463000Y-121741000D01*
X206197000Y-121701000D02*
X207315000Y-121701000D01*
X206402000Y-121661000D02*
X207110000Y-121661000D01*
X206756000Y-127422000D02*
X206756000Y-126222000D01*
X206106000Y-126822000D02*
X207406000Y-126822000D01*
X209045722Y-117184277D02*
G75*
G03X204434420Y-117184000I-2305722J-1179723D01*
G01*
X209045722Y-119543723D02*
G75*
G02X204434420Y-119544000I-2305722J1179723D01*
G01*
X209045722Y-119543723D02*
G75*
G03X209045580Y-117184000I-2305722J1179723D01*
G01*
X206740000Y-115814000D02*
X206740000Y-120914000D01*
X206780000Y-115814000D02*
X206780000Y-117384000D01*
X206780000Y-119344000D02*
X206780000Y-120914000D01*
X206820000Y-115815000D02*
X206820000Y-117384000D01*
X206820000Y-119344000D02*
X206820000Y-120913000D01*
X206860000Y-115816000D02*
X206860000Y-117384000D01*
X206860000Y-119344000D02*
X206860000Y-120912000D01*
X206900000Y-115818000D02*
X206900000Y-117384000D01*
X206900000Y-119344000D02*
X206900000Y-120910000D01*
X206940000Y-115821000D02*
X206940000Y-117384000D01*
X206940000Y-119344000D02*
X206940000Y-120907000D01*
X206980000Y-115825000D02*
X206980000Y-117384000D01*
X206980000Y-119344000D02*
X206980000Y-120903000D01*
X207020000Y-115829000D02*
X207020000Y-117384000D01*
X207020000Y-119344000D02*
X207020000Y-120899000D01*
X207060000Y-115833000D02*
X207060000Y-117384000D01*
X207060000Y-119344000D02*
X207060000Y-120895000D01*
X207100000Y-115839000D02*
X207100000Y-117384000D01*
X207100000Y-119344000D02*
X207100000Y-120889000D01*
X207140000Y-115845000D02*
X207140000Y-117384000D01*
X207140000Y-119344000D02*
X207140000Y-120883000D01*
X207180000Y-115851000D02*
X207180000Y-117384000D01*
X207180000Y-119344000D02*
X207180000Y-120877000D01*
X207220000Y-115858000D02*
X207220000Y-117384000D01*
X207220000Y-119344000D02*
X207220000Y-120870000D01*
X207260000Y-115866000D02*
X207260000Y-117384000D01*
X207260000Y-119344000D02*
X207260000Y-120862000D01*
X207300000Y-115875000D02*
X207300000Y-117384000D01*
X207300000Y-119344000D02*
X207300000Y-120853000D01*
X207340000Y-115884000D02*
X207340000Y-117384000D01*
X207340000Y-119344000D02*
X207340000Y-120844000D01*
X207380000Y-115894000D02*
X207380000Y-117384000D01*
X207380000Y-119344000D02*
X207380000Y-120834000D01*
X207420000Y-115904000D02*
X207420000Y-117384000D01*
X207420000Y-119344000D02*
X207420000Y-120824000D01*
X207461000Y-115916000D02*
X207461000Y-117384000D01*
X207461000Y-119344000D02*
X207461000Y-120812000D01*
X207501000Y-115928000D02*
X207501000Y-117384000D01*
X207501000Y-119344000D02*
X207501000Y-120800000D01*
X207541000Y-115940000D02*
X207541000Y-117384000D01*
X207541000Y-119344000D02*
X207541000Y-120788000D01*
X207581000Y-115954000D02*
X207581000Y-117384000D01*
X207581000Y-119344000D02*
X207581000Y-120774000D01*
X207621000Y-115968000D02*
X207621000Y-117384000D01*
X207621000Y-119344000D02*
X207621000Y-120760000D01*
X207661000Y-115982000D02*
X207661000Y-117384000D01*
X207661000Y-119344000D02*
X207661000Y-120746000D01*
X207701000Y-115998000D02*
X207701000Y-117384000D01*
X207701000Y-119344000D02*
X207701000Y-120730000D01*
X207741000Y-116014000D02*
X207741000Y-117384000D01*
X207741000Y-119344000D02*
X207741000Y-120714000D01*
X207781000Y-116031000D02*
X207781000Y-117384000D01*
X207781000Y-119344000D02*
X207781000Y-120697000D01*
X207821000Y-116049000D02*
X207821000Y-117384000D01*
X207821000Y-119344000D02*
X207821000Y-120679000D01*
X207861000Y-116068000D02*
X207861000Y-117384000D01*
X207861000Y-119344000D02*
X207861000Y-120660000D01*
X207901000Y-116088000D02*
X207901000Y-117384000D01*
X207901000Y-119344000D02*
X207901000Y-120640000D01*
X207941000Y-116108000D02*
X207941000Y-117384000D01*
X207941000Y-119344000D02*
X207941000Y-120620000D01*
X207981000Y-116130000D02*
X207981000Y-117384000D01*
X207981000Y-119344000D02*
X207981000Y-120598000D01*
X208021000Y-116152000D02*
X208021000Y-117384000D01*
X208021000Y-119344000D02*
X208021000Y-120576000D01*
X208061000Y-116175000D02*
X208061000Y-117384000D01*
X208061000Y-119344000D02*
X208061000Y-120553000D01*
X208101000Y-116199000D02*
X208101000Y-117384000D01*
X208101000Y-119344000D02*
X208101000Y-120529000D01*
X208141000Y-116224000D02*
X208141000Y-117384000D01*
X208141000Y-119344000D02*
X208141000Y-120504000D01*
X208181000Y-116251000D02*
X208181000Y-117384000D01*
X208181000Y-119344000D02*
X208181000Y-120477000D01*
X208221000Y-116278000D02*
X208221000Y-117384000D01*
X208221000Y-119344000D02*
X208221000Y-120450000D01*
X208261000Y-116306000D02*
X208261000Y-117384000D01*
X208261000Y-119344000D02*
X208261000Y-120422000D01*
X208301000Y-116336000D02*
X208301000Y-117384000D01*
X208301000Y-119344000D02*
X208301000Y-120392000D01*
X208341000Y-116367000D02*
X208341000Y-117384000D01*
X208341000Y-119344000D02*
X208341000Y-120361000D01*
X208381000Y-116399000D02*
X208381000Y-117384000D01*
X208381000Y-119344000D02*
X208381000Y-120329000D01*
X208421000Y-116432000D02*
X208421000Y-117384000D01*
X208421000Y-119344000D02*
X208421000Y-120296000D01*
X208461000Y-116467000D02*
X208461000Y-117384000D01*
X208461000Y-119344000D02*
X208461000Y-120261000D01*
X208501000Y-116503000D02*
X208501000Y-117384000D01*
X208501000Y-119344000D02*
X208501000Y-120225000D01*
X208541000Y-116541000D02*
X208541000Y-117384000D01*
X208541000Y-119344000D02*
X208541000Y-120187000D01*
X208581000Y-116581000D02*
X208581000Y-117384000D01*
X208581000Y-119344000D02*
X208581000Y-120147000D01*
X208621000Y-116622000D02*
X208621000Y-117384000D01*
X208621000Y-119344000D02*
X208621000Y-120106000D01*
X208661000Y-116665000D02*
X208661000Y-117384000D01*
X208661000Y-119344000D02*
X208661000Y-120063000D01*
X208701000Y-116710000D02*
X208701000Y-117384000D01*
X208701000Y-119344000D02*
X208701000Y-120018000D01*
X208741000Y-116758000D02*
X208741000Y-119970000D01*
X208781000Y-116808000D02*
X208781000Y-119920000D01*
X208821000Y-116860000D02*
X208821000Y-119868000D01*
X208861000Y-116916000D02*
X208861000Y-119812000D01*
X208901000Y-116974000D02*
X208901000Y-119754000D01*
X208941000Y-117037000D02*
X208941000Y-119691000D01*
X208981000Y-117103000D02*
X208981000Y-119625000D01*
X209021000Y-117175000D02*
X209021000Y-119553000D01*
X209061000Y-117252000D02*
X209061000Y-119476000D01*
X209101000Y-117336000D02*
X209101000Y-119392000D01*
X209141000Y-117430000D02*
X209141000Y-119298000D01*
X209181000Y-117535000D02*
X209181000Y-119193000D01*
X209221000Y-117657000D02*
X209221000Y-119071000D01*
X209261000Y-117805000D02*
X209261000Y-118923000D01*
X209301000Y-118010000D02*
X209301000Y-118718000D01*
X203540000Y-118364000D02*
X204740000Y-118364000D01*
X204140000Y-117714000D02*
X204140000Y-119014000D01*
X120399722Y-117946277D02*
G75*
G03X115788420Y-117946000I-2305722J-1179723D01*
G01*
X120399722Y-120305723D02*
G75*
G02X115788420Y-120306000I-2305722J1179723D01*
G01*
X120399722Y-120305723D02*
G75*
G03X120399580Y-117946000I-2305722J1179723D01*
G01*
X118094000Y-116576000D02*
X118094000Y-121676000D01*
X118134000Y-116576000D02*
X118134000Y-118146000D01*
X118134000Y-120106000D02*
X118134000Y-121676000D01*
X118174000Y-116577000D02*
X118174000Y-118146000D01*
X118174000Y-120106000D02*
X118174000Y-121675000D01*
X118214000Y-116578000D02*
X118214000Y-118146000D01*
X118214000Y-120106000D02*
X118214000Y-121674000D01*
X118254000Y-116580000D02*
X118254000Y-118146000D01*
X118254000Y-120106000D02*
X118254000Y-121672000D01*
X118294000Y-116583000D02*
X118294000Y-118146000D01*
X118294000Y-120106000D02*
X118294000Y-121669000D01*
X118334000Y-116587000D02*
X118334000Y-118146000D01*
X118334000Y-120106000D02*
X118334000Y-121665000D01*
X118374000Y-116591000D02*
X118374000Y-118146000D01*
X118374000Y-120106000D02*
X118374000Y-121661000D01*
X118414000Y-116595000D02*
X118414000Y-118146000D01*
X118414000Y-120106000D02*
X118414000Y-121657000D01*
X118454000Y-116601000D02*
X118454000Y-118146000D01*
X118454000Y-120106000D02*
X118454000Y-121651000D01*
X118494000Y-116607000D02*
X118494000Y-118146000D01*
X118494000Y-120106000D02*
X118494000Y-121645000D01*
X118534000Y-116613000D02*
X118534000Y-118146000D01*
X118534000Y-120106000D02*
X118534000Y-121639000D01*
X118574000Y-116620000D02*
X118574000Y-118146000D01*
X118574000Y-120106000D02*
X118574000Y-121632000D01*
X118614000Y-116628000D02*
X118614000Y-118146000D01*
X118614000Y-120106000D02*
X118614000Y-121624000D01*
X118654000Y-116637000D02*
X118654000Y-118146000D01*
X118654000Y-120106000D02*
X118654000Y-121615000D01*
X118694000Y-116646000D02*
X118694000Y-118146000D01*
X118694000Y-120106000D02*
X118694000Y-121606000D01*
X118734000Y-116656000D02*
X118734000Y-118146000D01*
X118734000Y-120106000D02*
X118734000Y-121596000D01*
X118774000Y-116666000D02*
X118774000Y-118146000D01*
X118774000Y-120106000D02*
X118774000Y-121586000D01*
X118815000Y-116678000D02*
X118815000Y-118146000D01*
X118815000Y-120106000D02*
X118815000Y-121574000D01*
X118855000Y-116690000D02*
X118855000Y-118146000D01*
X118855000Y-120106000D02*
X118855000Y-121562000D01*
X118895000Y-116702000D02*
X118895000Y-118146000D01*
X118895000Y-120106000D02*
X118895000Y-121550000D01*
X118935000Y-116716000D02*
X118935000Y-118146000D01*
X118935000Y-120106000D02*
X118935000Y-121536000D01*
X118975000Y-116730000D02*
X118975000Y-118146000D01*
X118975000Y-120106000D02*
X118975000Y-121522000D01*
X119015000Y-116744000D02*
X119015000Y-118146000D01*
X119015000Y-120106000D02*
X119015000Y-121508000D01*
X119055000Y-116760000D02*
X119055000Y-118146000D01*
X119055000Y-120106000D02*
X119055000Y-121492000D01*
X119095000Y-116776000D02*
X119095000Y-118146000D01*
X119095000Y-120106000D02*
X119095000Y-121476000D01*
X119135000Y-116793000D02*
X119135000Y-118146000D01*
X119135000Y-120106000D02*
X119135000Y-121459000D01*
X119175000Y-116811000D02*
X119175000Y-118146000D01*
X119175000Y-120106000D02*
X119175000Y-121441000D01*
X119215000Y-116830000D02*
X119215000Y-118146000D01*
X119215000Y-120106000D02*
X119215000Y-121422000D01*
X119255000Y-116850000D02*
X119255000Y-118146000D01*
X119255000Y-120106000D02*
X119255000Y-121402000D01*
X119295000Y-116870000D02*
X119295000Y-118146000D01*
X119295000Y-120106000D02*
X119295000Y-121382000D01*
X119335000Y-116892000D02*
X119335000Y-118146000D01*
X119335000Y-120106000D02*
X119335000Y-121360000D01*
X119375000Y-116914000D02*
X119375000Y-118146000D01*
X119375000Y-120106000D02*
X119375000Y-121338000D01*
X119415000Y-116937000D02*
X119415000Y-118146000D01*
X119415000Y-120106000D02*
X119415000Y-121315000D01*
X119455000Y-116961000D02*
X119455000Y-118146000D01*
X119455000Y-120106000D02*
X119455000Y-121291000D01*
X119495000Y-116986000D02*
X119495000Y-118146000D01*
X119495000Y-120106000D02*
X119495000Y-121266000D01*
X119535000Y-117013000D02*
X119535000Y-118146000D01*
X119535000Y-120106000D02*
X119535000Y-121239000D01*
X119575000Y-117040000D02*
X119575000Y-118146000D01*
X119575000Y-120106000D02*
X119575000Y-121212000D01*
X119615000Y-117068000D02*
X119615000Y-118146000D01*
X119615000Y-120106000D02*
X119615000Y-121184000D01*
X119655000Y-117098000D02*
X119655000Y-118146000D01*
X119655000Y-120106000D02*
X119655000Y-121154000D01*
X119695000Y-117129000D02*
X119695000Y-118146000D01*
X119695000Y-120106000D02*
X119695000Y-121123000D01*
X119735000Y-117161000D02*
X119735000Y-118146000D01*
X119735000Y-120106000D02*
X119735000Y-121091000D01*
X119775000Y-117194000D02*
X119775000Y-118146000D01*
X119775000Y-120106000D02*
X119775000Y-121058000D01*
X119815000Y-117229000D02*
X119815000Y-118146000D01*
X119815000Y-120106000D02*
X119815000Y-121023000D01*
X119855000Y-117265000D02*
X119855000Y-118146000D01*
X119855000Y-120106000D02*
X119855000Y-120987000D01*
X119895000Y-117303000D02*
X119895000Y-118146000D01*
X119895000Y-120106000D02*
X119895000Y-120949000D01*
X119935000Y-117343000D02*
X119935000Y-118146000D01*
X119935000Y-120106000D02*
X119935000Y-120909000D01*
X119975000Y-117384000D02*
X119975000Y-118146000D01*
X119975000Y-120106000D02*
X119975000Y-120868000D01*
X120015000Y-117427000D02*
X120015000Y-118146000D01*
X120015000Y-120106000D02*
X120015000Y-120825000D01*
X120055000Y-117472000D02*
X120055000Y-118146000D01*
X120055000Y-120106000D02*
X120055000Y-120780000D01*
X120095000Y-117520000D02*
X120095000Y-120732000D01*
X120135000Y-117570000D02*
X120135000Y-120682000D01*
X120175000Y-117622000D02*
X120175000Y-120630000D01*
X120215000Y-117678000D02*
X120215000Y-120574000D01*
X120255000Y-117736000D02*
X120255000Y-120516000D01*
X120295000Y-117799000D02*
X120295000Y-120453000D01*
X120335000Y-117865000D02*
X120335000Y-120387000D01*
X120375000Y-117937000D02*
X120375000Y-120315000D01*
X120415000Y-118014000D02*
X120415000Y-120238000D01*
X120455000Y-118098000D02*
X120455000Y-120154000D01*
X120495000Y-118192000D02*
X120495000Y-120060000D01*
X120535000Y-118297000D02*
X120535000Y-119955000D01*
X120575000Y-118419000D02*
X120575000Y-119833000D01*
X120615000Y-118567000D02*
X120615000Y-119685000D01*
X120655000Y-118772000D02*
X120655000Y-119480000D01*
X114894000Y-119126000D02*
X116094000Y-119126000D01*
X115494000Y-118476000D02*
X115494000Y-119776000D01*
X116930277Y-122678278D02*
G75*
G03X116930000Y-127289580I1179723J-2305722D01*
G01*
X119289723Y-122678278D02*
G75*
G02X119290000Y-127289580I-1179723J-2305722D01*
G01*
X119289723Y-122678278D02*
G75*
G03X116930000Y-122678420I-1179723J-2305722D01*
G01*
X115560000Y-124984000D02*
X120660000Y-124984000D01*
X115560000Y-124944000D02*
X117130000Y-124944000D01*
X119090000Y-124944000D02*
X120660000Y-124944000D01*
X115561000Y-124904000D02*
X117130000Y-124904000D01*
X119090000Y-124904000D02*
X120659000Y-124904000D01*
X115562000Y-124864000D02*
X117130000Y-124864000D01*
X119090000Y-124864000D02*
X120658000Y-124864000D01*
X115564000Y-124824000D02*
X117130000Y-124824000D01*
X119090000Y-124824000D02*
X120656000Y-124824000D01*
X115567000Y-124784000D02*
X117130000Y-124784000D01*
X119090000Y-124784000D02*
X120653000Y-124784000D01*
X115571000Y-124744000D02*
X117130000Y-124744000D01*
X119090000Y-124744000D02*
X120649000Y-124744000D01*
X115575000Y-124704000D02*
X117130000Y-124704000D01*
X119090000Y-124704000D02*
X120645000Y-124704000D01*
X115579000Y-124664000D02*
X117130000Y-124664000D01*
X119090000Y-124664000D02*
X120641000Y-124664000D01*
X115585000Y-124624000D02*
X117130000Y-124624000D01*
X119090000Y-124624000D02*
X120635000Y-124624000D01*
X115591000Y-124584000D02*
X117130000Y-124584000D01*
X119090000Y-124584000D02*
X120629000Y-124584000D01*
X115597000Y-124544000D02*
X117130000Y-124544000D01*
X119090000Y-124544000D02*
X120623000Y-124544000D01*
X115604000Y-124504000D02*
X117130000Y-124504000D01*
X119090000Y-124504000D02*
X120616000Y-124504000D01*
X115612000Y-124464000D02*
X117130000Y-124464000D01*
X119090000Y-124464000D02*
X120608000Y-124464000D01*
X115621000Y-124424000D02*
X117130000Y-124424000D01*
X119090000Y-124424000D02*
X120599000Y-124424000D01*
X115630000Y-124384000D02*
X117130000Y-124384000D01*
X119090000Y-124384000D02*
X120590000Y-124384000D01*
X115640000Y-124344000D02*
X117130000Y-124344000D01*
X119090000Y-124344000D02*
X120580000Y-124344000D01*
X115650000Y-124304000D02*
X117130000Y-124304000D01*
X119090000Y-124304000D02*
X120570000Y-124304000D01*
X115662000Y-124263000D02*
X117130000Y-124263000D01*
X119090000Y-124263000D02*
X120558000Y-124263000D01*
X115674000Y-124223000D02*
X117130000Y-124223000D01*
X119090000Y-124223000D02*
X120546000Y-124223000D01*
X115686000Y-124183000D02*
X117130000Y-124183000D01*
X119090000Y-124183000D02*
X120534000Y-124183000D01*
X115700000Y-124143000D02*
X117130000Y-124143000D01*
X119090000Y-124143000D02*
X120520000Y-124143000D01*
X115714000Y-124103000D02*
X117130000Y-124103000D01*
X119090000Y-124103000D02*
X120506000Y-124103000D01*
X115728000Y-124063000D02*
X117130000Y-124063000D01*
X119090000Y-124063000D02*
X120492000Y-124063000D01*
X115744000Y-124023000D02*
X117130000Y-124023000D01*
X119090000Y-124023000D02*
X120476000Y-124023000D01*
X115760000Y-123983000D02*
X117130000Y-123983000D01*
X119090000Y-123983000D02*
X120460000Y-123983000D01*
X115777000Y-123943000D02*
X117130000Y-123943000D01*
X119090000Y-123943000D02*
X120443000Y-123943000D01*
X115795000Y-123903000D02*
X117130000Y-123903000D01*
X119090000Y-123903000D02*
X120425000Y-123903000D01*
X115814000Y-123863000D02*
X117130000Y-123863000D01*
X119090000Y-123863000D02*
X120406000Y-123863000D01*
X115834000Y-123823000D02*
X117130000Y-123823000D01*
X119090000Y-123823000D02*
X120386000Y-123823000D01*
X115854000Y-123783000D02*
X117130000Y-123783000D01*
X119090000Y-123783000D02*
X120366000Y-123783000D01*
X115876000Y-123743000D02*
X117130000Y-123743000D01*
X119090000Y-123743000D02*
X120344000Y-123743000D01*
X115898000Y-123703000D02*
X117130000Y-123703000D01*
X119090000Y-123703000D02*
X120322000Y-123703000D01*
X115921000Y-123663000D02*
X117130000Y-123663000D01*
X119090000Y-123663000D02*
X120299000Y-123663000D01*
X115945000Y-123623000D02*
X117130000Y-123623000D01*
X119090000Y-123623000D02*
X120275000Y-123623000D01*
X115970000Y-123583000D02*
X117130000Y-123583000D01*
X119090000Y-123583000D02*
X120250000Y-123583000D01*
X115997000Y-123543000D02*
X117130000Y-123543000D01*
X119090000Y-123543000D02*
X120223000Y-123543000D01*
X116024000Y-123503000D02*
X117130000Y-123503000D01*
X119090000Y-123503000D02*
X120196000Y-123503000D01*
X116052000Y-123463000D02*
X117130000Y-123463000D01*
X119090000Y-123463000D02*
X120168000Y-123463000D01*
X116082000Y-123423000D02*
X117130000Y-123423000D01*
X119090000Y-123423000D02*
X120138000Y-123423000D01*
X116113000Y-123383000D02*
X117130000Y-123383000D01*
X119090000Y-123383000D02*
X120107000Y-123383000D01*
X116145000Y-123343000D02*
X117130000Y-123343000D01*
X119090000Y-123343000D02*
X120075000Y-123343000D01*
X116178000Y-123303000D02*
X117130000Y-123303000D01*
X119090000Y-123303000D02*
X120042000Y-123303000D01*
X116213000Y-123263000D02*
X117130000Y-123263000D01*
X119090000Y-123263000D02*
X120007000Y-123263000D01*
X116249000Y-123223000D02*
X117130000Y-123223000D01*
X119090000Y-123223000D02*
X119971000Y-123223000D01*
X116287000Y-123183000D02*
X117130000Y-123183000D01*
X119090000Y-123183000D02*
X119933000Y-123183000D01*
X116327000Y-123143000D02*
X117130000Y-123143000D01*
X119090000Y-123143000D02*
X119893000Y-123143000D01*
X116368000Y-123103000D02*
X117130000Y-123103000D01*
X119090000Y-123103000D02*
X119852000Y-123103000D01*
X116411000Y-123063000D02*
X117130000Y-123063000D01*
X119090000Y-123063000D02*
X119809000Y-123063000D01*
X116456000Y-123023000D02*
X117130000Y-123023000D01*
X119090000Y-123023000D02*
X119764000Y-123023000D01*
X116504000Y-122983000D02*
X119716000Y-122983000D01*
X116554000Y-122943000D02*
X119666000Y-122943000D01*
X116606000Y-122903000D02*
X119614000Y-122903000D01*
X116662000Y-122863000D02*
X119558000Y-122863000D01*
X116720000Y-122823000D02*
X119500000Y-122823000D01*
X116783000Y-122783000D02*
X119437000Y-122783000D01*
X116849000Y-122743000D02*
X119371000Y-122743000D01*
X116921000Y-122703000D02*
X119299000Y-122703000D01*
X116998000Y-122663000D02*
X119222000Y-122663000D01*
X117082000Y-122623000D02*
X119138000Y-122623000D01*
X117176000Y-122583000D02*
X119044000Y-122583000D01*
X117281000Y-122543000D02*
X118939000Y-122543000D01*
X117403000Y-122503000D02*
X118817000Y-122503000D01*
X117551000Y-122463000D02*
X118669000Y-122463000D01*
X117756000Y-122423000D02*
X118464000Y-122423000D01*
X118110000Y-128184000D02*
X118110000Y-126984000D01*
X117460000Y-127584000D02*
X118760000Y-127584000D01*
D12*
X227165545Y-72000000D02*
G75*
G03X227165545Y-72000000I-3465545J0D01*
G01*
X209565545Y-72000000D02*
G75*
G03X209565545Y-72000000I-3465545J0D01*
G01*
X101165545Y-72000000D02*
G75*
G03X101165545Y-72000000I-3465545J0D01*
G01*
X83665545Y-72000000D02*
G75*
G03X83665545Y-72000000I-3465545J0D01*
G01*
D13*
X130700000Y-104870000D02*
X128700000Y-104870000D01*
X128700000Y-102730000D02*
X130700000Y-102730000D01*
X123842000Y-106980000D02*
X123842000Y-108980000D01*
X121702000Y-108980000D02*
X121702000Y-106980000D01*
X121556000Y-106980000D02*
X121556000Y-108980000D01*
X119416000Y-108980000D02*
X119416000Y-106980000D01*
X149000000Y-115470000D02*
X147000000Y-115470000D01*
X147000000Y-113330000D02*
X149000000Y-113330000D01*
X136942000Y-115470000D02*
X138942000Y-115470000D01*
X138942000Y-117610000D02*
X136942000Y-117610000D01*
X138942000Y-120560000D02*
X136942000Y-120560000D01*
X136942000Y-118420000D02*
X138942000Y-118420000D01*
X138942000Y-123260000D02*
X136942000Y-123260000D01*
X136942000Y-121120000D02*
X138942000Y-121120000D01*
X146600000Y-123930000D02*
X148600000Y-123930000D01*
X148600000Y-126070000D02*
X146600000Y-126070000D01*
X148400000Y-135170000D02*
X146400000Y-135170000D01*
X146400000Y-133030000D02*
X148400000Y-133030000D01*
X166200000Y-130130000D02*
X168200000Y-130130000D01*
X168200000Y-132270000D02*
X166200000Y-132270000D01*
X191500000Y-130356000D02*
X189500000Y-130356000D01*
X189500000Y-128216000D02*
X191500000Y-128216000D01*
X197628000Y-113484000D02*
X199628000Y-113484000D01*
X199628000Y-115624000D02*
X197628000Y-115624000D01*
X191500000Y-124006000D02*
X189500000Y-124006000D01*
X189500000Y-121866000D02*
X191500000Y-121866000D01*
X191500000Y-136452000D02*
X189500000Y-136452000D01*
X189500000Y-134312000D02*
X191500000Y-134312000D01*
X101076000Y-128578000D02*
X99076000Y-128578000D01*
X99076000Y-126438000D02*
X101076000Y-126438000D01*
X101076000Y-122990000D02*
X99076000Y-122990000D01*
X99076000Y-120850000D02*
X101076000Y-120850000D01*
X108728000Y-111960000D02*
X110728000Y-111960000D01*
X110728000Y-114100000D02*
X108728000Y-114100000D01*
X101076000Y-134674000D02*
X99076000Y-134674000D01*
X99076000Y-132534000D02*
X101076000Y-132534000D01*
X162056000Y-113744000D02*
X162056000Y-115744000D01*
X159916000Y-115744000D02*
X159916000Y-113744000D01*
X153200000Y-112970000D02*
X151200000Y-112970000D01*
X151200000Y-110830000D02*
X153200000Y-110830000D01*
X138922000Y-135182000D02*
X136922000Y-135182000D01*
X136922000Y-133042000D02*
X138922000Y-133042000D01*
D16*
X196569100Y-126798900D02*
X200810900Y-126798900D01*
X200810900Y-121541100D02*
X196569100Y-121541100D01*
X107607100Y-125818900D02*
X111848900Y-125818900D01*
X111848900Y-120561100D02*
X107607100Y-120561100D01*
X174664800Y-67489200D02*
X175934800Y-67489200D01*
X175299800Y-66854200D02*
X175299800Y-68124200D01*
X183427800Y-63082300D02*
X176061800Y-63082300D01*
X183427800Y-69965700D02*
X176061800Y-69965700D01*
X183427800Y-63082300D02*
X183427800Y-63778432D01*
X176061800Y-63082300D02*
X176061800Y-63778432D01*
X176061800Y-66221568D02*
X176061800Y-69965700D01*
X183427800Y-66221568D02*
X183427800Y-69965700D01*
D13*
X103886000Y-114000000D02*
G75*
G03X103886000Y-114000000I-2286000J0D01*
G01*
X217186000Y-72000000D02*
G75*
G03X217186000Y-72000000I-2286000J0D01*
G01*
X91286000Y-71850000D02*
G75*
G03X91286000Y-71850000I-2286000J0D01*
G01*
X204486000Y-88400000D02*
G75*
G03X204486000Y-88400000I-2286000J0D01*
G01*
X229986000Y-111400000D02*
G75*
G03X229986000Y-111400000I-2286000J0D01*
G01*
D14*
X129474334Y-116322143D02*
X129426715Y-116369762D01*
X129283858Y-116417381D01*
X129188620Y-116417381D01*
X129045762Y-116369762D01*
X128950524Y-116274524D01*
X128902905Y-116179286D01*
X128855286Y-115988810D01*
X128855286Y-115845952D01*
X128902905Y-115655476D01*
X128950524Y-115560238D01*
X129045762Y-115465000D01*
X129188620Y-115417381D01*
X129283858Y-115417381D01*
X129426715Y-115465000D01*
X129474334Y-115512619D01*
X130426715Y-116417381D02*
X129855286Y-116417381D01*
X130141000Y-116417381D02*
X130141000Y-115417381D01*
X130045762Y-115560238D01*
X129950524Y-115655476D01*
X129855286Y-115703095D01*
X170771143Y-114252666D02*
X170818762Y-114300285D01*
X170866381Y-114443142D01*
X170866381Y-114538380D01*
X170818762Y-114681238D01*
X170723524Y-114776476D01*
X170628286Y-114824095D01*
X170437810Y-114871714D01*
X170294952Y-114871714D01*
X170104476Y-114824095D01*
X170009238Y-114776476D01*
X169914000Y-114681238D01*
X169866381Y-114538380D01*
X169866381Y-114443142D01*
X169914000Y-114300285D01*
X169961619Y-114252666D01*
X169866381Y-113919333D02*
X169866381Y-113300285D01*
X170247333Y-113633619D01*
X170247333Y-113490761D01*
X170294952Y-113395523D01*
X170342571Y-113347904D01*
X170437810Y-113300285D01*
X170675905Y-113300285D01*
X170771143Y-113347904D01*
X170818762Y-113395523D01*
X170866381Y-113490761D01*
X170866381Y-113776476D01*
X170818762Y-113871714D01*
X170771143Y-113919333D01*
X163169334Y-122051143D02*
X163121715Y-122098762D01*
X162978858Y-122146381D01*
X162883620Y-122146381D01*
X162740762Y-122098762D01*
X162645524Y-122003524D01*
X162597905Y-121908286D01*
X162550286Y-121717810D01*
X162550286Y-121574952D01*
X162597905Y-121384476D01*
X162645524Y-121289238D01*
X162740762Y-121194000D01*
X162883620Y-121146381D01*
X162978858Y-121146381D01*
X163121715Y-121194000D01*
X163169334Y-121241619D01*
X164026477Y-121479714D02*
X164026477Y-122146381D01*
X163788381Y-121098762D02*
X163550286Y-121813048D01*
X164169334Y-121813048D01*
X165869334Y-111261143D02*
X165821715Y-111308762D01*
X165678858Y-111356381D01*
X165583620Y-111356381D01*
X165440762Y-111308762D01*
X165345524Y-111213524D01*
X165297905Y-111118286D01*
X165250286Y-110927810D01*
X165250286Y-110784952D01*
X165297905Y-110594476D01*
X165345524Y-110499238D01*
X165440762Y-110404000D01*
X165583620Y-110356381D01*
X165678858Y-110356381D01*
X165821715Y-110404000D01*
X165869334Y-110451619D01*
X166774096Y-110356381D02*
X166297905Y-110356381D01*
X166250286Y-110832571D01*
X166297905Y-110784952D01*
X166393143Y-110737333D01*
X166631239Y-110737333D01*
X166726477Y-110784952D01*
X166774096Y-110832571D01*
X166821715Y-110927810D01*
X166821715Y-111165905D01*
X166774096Y-111261143D01*
X166726477Y-111308762D01*
X166631239Y-111356381D01*
X166393143Y-111356381D01*
X166297905Y-111308762D01*
X166250286Y-111261143D01*
X174097334Y-122805143D02*
X174049715Y-122852762D01*
X173906858Y-122900381D01*
X173811620Y-122900381D01*
X173668762Y-122852762D01*
X173573524Y-122757524D01*
X173525905Y-122662286D01*
X173478286Y-122471810D01*
X173478286Y-122328952D01*
X173525905Y-122138476D01*
X173573524Y-122043238D01*
X173668762Y-121948000D01*
X173811620Y-121900381D01*
X173906858Y-121900381D01*
X174049715Y-121948000D01*
X174097334Y-121995619D01*
X174954477Y-121900381D02*
X174764000Y-121900381D01*
X174668762Y-121948000D01*
X174621143Y-121995619D01*
X174525905Y-122138476D01*
X174478286Y-122328952D01*
X174478286Y-122709905D01*
X174525905Y-122805143D01*
X174573524Y-122852762D01*
X174668762Y-122900381D01*
X174859239Y-122900381D01*
X174954477Y-122852762D01*
X175002096Y-122805143D01*
X175049715Y-122709905D01*
X175049715Y-122471810D01*
X175002096Y-122376571D01*
X174954477Y-122328952D01*
X174859239Y-122281333D01*
X174668762Y-122281333D01*
X174573524Y-122328952D01*
X174525905Y-122376571D01*
X174478286Y-122471810D01*
X187997143Y-118416666D02*
X188044762Y-118464285D01*
X188092381Y-118607142D01*
X188092381Y-118702380D01*
X188044762Y-118845238D01*
X187949524Y-118940476D01*
X187854286Y-118988095D01*
X187663810Y-119035714D01*
X187520952Y-119035714D01*
X187330476Y-118988095D01*
X187235238Y-118940476D01*
X187140000Y-118845238D01*
X187092381Y-118702380D01*
X187092381Y-118607142D01*
X187140000Y-118464285D01*
X187187619Y-118416666D01*
X187092381Y-118083333D02*
X187092381Y-117416666D01*
X188092381Y-117845238D01*
X204303334Y-133199143D02*
X204255715Y-133246762D01*
X204112858Y-133294381D01*
X204017620Y-133294381D01*
X203874762Y-133246762D01*
X203779524Y-133151524D01*
X203731905Y-133056286D01*
X203684286Y-132865810D01*
X203684286Y-132722952D01*
X203731905Y-132532476D01*
X203779524Y-132437238D01*
X203874762Y-132342000D01*
X204017620Y-132294381D01*
X204112858Y-132294381D01*
X204255715Y-132342000D01*
X204303334Y-132389619D01*
X204779524Y-133294381D02*
X204970000Y-133294381D01*
X205065239Y-133246762D01*
X205112858Y-133199143D01*
X205208096Y-133056286D01*
X205255715Y-132865810D01*
X205255715Y-132484857D01*
X205208096Y-132389619D01*
X205160477Y-132342000D01*
X205065239Y-132294381D01*
X204874762Y-132294381D01*
X204779524Y-132342000D01*
X204731905Y-132389619D01*
X204684286Y-132484857D01*
X204684286Y-132722952D01*
X204731905Y-132818190D01*
X204779524Y-132865810D01*
X204874762Y-132913429D01*
X205065239Y-132913429D01*
X205160477Y-132865810D01*
X205208096Y-132818190D01*
X205255715Y-132722952D01*
X184269143Y-132691143D02*
X184221524Y-132738762D01*
X184078667Y-132786381D01*
X183983429Y-132786381D01*
X183840571Y-132738762D01*
X183745333Y-132643524D01*
X183697714Y-132548286D01*
X183650095Y-132357810D01*
X183650095Y-132214952D01*
X183697714Y-132024476D01*
X183745333Y-131929238D01*
X183840571Y-131834000D01*
X183983429Y-131786381D01*
X184078667Y-131786381D01*
X184221524Y-131834000D01*
X184269143Y-131881619D01*
X185221524Y-132786381D02*
X184650095Y-132786381D01*
X184935809Y-132786381D02*
X184935809Y-131786381D01*
X184840571Y-131929238D01*
X184745333Y-132024476D01*
X184650095Y-132072095D01*
X185840571Y-131786381D02*
X185935810Y-131786381D01*
X186031048Y-131834000D01*
X186078667Y-131881619D01*
X186126286Y-131976857D01*
X186173905Y-132167333D01*
X186173905Y-132405429D01*
X186126286Y-132595905D01*
X186078667Y-132691143D01*
X186031048Y-132738762D01*
X185935810Y-132786381D01*
X185840571Y-132786381D01*
X185745333Y-132738762D01*
X185697714Y-132691143D01*
X185650095Y-132595905D01*
X185602476Y-132405429D01*
X185602476Y-132167333D01*
X185650095Y-131976857D01*
X185697714Y-131881619D01*
X185745333Y-131834000D01*
X185840571Y-131786381D01*
X92257143Y-123742857D02*
X92304762Y-123790476D01*
X92352381Y-123933333D01*
X92352381Y-124028571D01*
X92304762Y-124171429D01*
X92209524Y-124266667D01*
X92114286Y-124314286D01*
X91923810Y-124361905D01*
X91780952Y-124361905D01*
X91590476Y-124314286D01*
X91495238Y-124266667D01*
X91400000Y-124171429D01*
X91352381Y-124028571D01*
X91352381Y-123933333D01*
X91400000Y-123790476D01*
X91447619Y-123742857D01*
X92352381Y-122790476D02*
X92352381Y-123361905D01*
X92352381Y-123076191D02*
X91352381Y-123076191D01*
X91495238Y-123171429D01*
X91590476Y-123266667D01*
X91638095Y-123361905D01*
X92352381Y-121838095D02*
X92352381Y-122409524D01*
X92352381Y-122123810D02*
X91352381Y-122123810D01*
X91495238Y-122219048D01*
X91590476Y-122314286D01*
X91638095Y-122409524D01*
X115435143Y-132691143D02*
X115387524Y-132738762D01*
X115244667Y-132786381D01*
X115149429Y-132786381D01*
X115006571Y-132738762D01*
X114911333Y-132643524D01*
X114863714Y-132548286D01*
X114816095Y-132357810D01*
X114816095Y-132214952D01*
X114863714Y-132024476D01*
X114911333Y-131929238D01*
X115006571Y-131834000D01*
X115149429Y-131786381D01*
X115244667Y-131786381D01*
X115387524Y-131834000D01*
X115435143Y-131881619D01*
X116387524Y-132786381D02*
X115816095Y-132786381D01*
X116101809Y-132786381D02*
X116101809Y-131786381D01*
X116006571Y-131929238D01*
X115911333Y-132024476D01*
X115816095Y-132072095D01*
X117244667Y-132119714D02*
X117244667Y-132786381D01*
X117006571Y-131738762D02*
X116768476Y-132453048D01*
X117387524Y-132453048D01*
X104057143Y-125757143D02*
X104009524Y-125804762D01*
X103866667Y-125852381D01*
X103771429Y-125852381D01*
X103628571Y-125804762D01*
X103533333Y-125709524D01*
X103485714Y-125614286D01*
X103438095Y-125423810D01*
X103438095Y-125280952D01*
X103485714Y-125090476D01*
X103533333Y-124995238D01*
X103628571Y-124900000D01*
X103771429Y-124852381D01*
X103866667Y-124852381D01*
X104009524Y-124900000D01*
X104057143Y-124947619D01*
X105009524Y-125852381D02*
X104438095Y-125852381D01*
X104723809Y-125852381D02*
X104723809Y-124852381D01*
X104628571Y-124995238D01*
X104533333Y-125090476D01*
X104438095Y-125138095D01*
X105866667Y-124852381D02*
X105676190Y-124852381D01*
X105580952Y-124900000D01*
X105533333Y-124947619D01*
X105438095Y-125090476D01*
X105390476Y-125280952D01*
X105390476Y-125661905D01*
X105438095Y-125757143D01*
X105485714Y-125804762D01*
X105580952Y-125852381D01*
X105771429Y-125852381D01*
X105866667Y-125804762D01*
X105914286Y-125757143D01*
X105961905Y-125661905D01*
X105961905Y-125423810D01*
X105914286Y-125328571D01*
X105866667Y-125280952D01*
X105771429Y-125233333D01*
X105580952Y-125233333D01*
X105485714Y-125280952D01*
X105438095Y-125328571D01*
X105390476Y-125423810D01*
X94099143Y-130913143D02*
X94051524Y-130960762D01*
X93908667Y-131008381D01*
X93813429Y-131008381D01*
X93670571Y-130960762D01*
X93575333Y-130865524D01*
X93527714Y-130770286D01*
X93480095Y-130579810D01*
X93480095Y-130436952D01*
X93527714Y-130246476D01*
X93575333Y-130151238D01*
X93670571Y-130056000D01*
X93813429Y-130008381D01*
X93908667Y-130008381D01*
X94051524Y-130056000D01*
X94099143Y-130103619D01*
X95051524Y-131008381D02*
X94480095Y-131008381D01*
X94765809Y-131008381D02*
X94765809Y-130008381D01*
X94670571Y-130151238D01*
X94575333Y-130246476D01*
X94480095Y-130294095D01*
X95384857Y-130008381D02*
X96051524Y-130008381D01*
X95622952Y-131008381D01*
X184269143Y-126849143D02*
X184221524Y-126896762D01*
X184078667Y-126944381D01*
X183983429Y-126944381D01*
X183840571Y-126896762D01*
X183745333Y-126801524D01*
X183697714Y-126706286D01*
X183650095Y-126515810D01*
X183650095Y-126372952D01*
X183697714Y-126182476D01*
X183745333Y-126087238D01*
X183840571Y-125992000D01*
X183983429Y-125944381D01*
X184078667Y-125944381D01*
X184221524Y-125992000D01*
X184269143Y-126039619D01*
X185221524Y-126944381D02*
X184650095Y-126944381D01*
X184935809Y-126944381D02*
X184935809Y-125944381D01*
X184840571Y-126087238D01*
X184745333Y-126182476D01*
X184650095Y-126230095D01*
X185792952Y-126372952D02*
X185697714Y-126325333D01*
X185650095Y-126277714D01*
X185602476Y-126182476D01*
X185602476Y-126134857D01*
X185650095Y-126039619D01*
X185697714Y-125992000D01*
X185792952Y-125944381D01*
X185983429Y-125944381D01*
X186078667Y-125992000D01*
X186126286Y-126039619D01*
X186173905Y-126134857D01*
X186173905Y-126182476D01*
X186126286Y-126277714D01*
X186078667Y-126325333D01*
X185983429Y-126372952D01*
X185792952Y-126372952D01*
X185697714Y-126420571D01*
X185650095Y-126468190D01*
X185602476Y-126563429D01*
X185602476Y-126753905D01*
X185650095Y-126849143D01*
X185697714Y-126896762D01*
X185792952Y-126944381D01*
X185983429Y-126944381D01*
X186078667Y-126896762D01*
X186126286Y-126849143D01*
X186173905Y-126753905D01*
X186173905Y-126563429D01*
X186126286Y-126468190D01*
X186078667Y-126420571D01*
X185983429Y-126372952D01*
X118766667Y-135052381D02*
X118766667Y-135766667D01*
X118719047Y-135909524D01*
X118623809Y-136004762D01*
X118480952Y-136052381D01*
X118385714Y-136052381D01*
X119766667Y-136052381D02*
X119195238Y-136052381D01*
X119480952Y-136052381D02*
X119480952Y-135052381D01*
X119385714Y-135195238D01*
X119290476Y-135290476D01*
X119195238Y-135338095D01*
X182720667Y-134548381D02*
X182720667Y-135262667D01*
X182673047Y-135405524D01*
X182577809Y-135500762D01*
X182434952Y-135548381D01*
X182339714Y-135548381D01*
X183149238Y-134643619D02*
X183196857Y-134596000D01*
X183292095Y-134548381D01*
X183530191Y-134548381D01*
X183625429Y-134596000D01*
X183673048Y-134643619D01*
X183720667Y-134738857D01*
X183720667Y-134834095D01*
X183673048Y-134976952D01*
X183101619Y-135548381D01*
X183720667Y-135548381D01*
X216052381Y-131863333D02*
X216766667Y-131863333D01*
X216909524Y-131910953D01*
X217004762Y-132006191D01*
X217052381Y-132149048D01*
X217052381Y-132244286D01*
X216052381Y-131482381D02*
X216052381Y-130863333D01*
X216433333Y-131196667D01*
X216433333Y-131053809D01*
X216480952Y-130958571D01*
X216528571Y-130910952D01*
X216623810Y-130863333D01*
X216861905Y-130863333D01*
X216957143Y-130910952D01*
X217004762Y-130958571D01*
X217052381Y-131053809D01*
X217052381Y-131339524D01*
X217004762Y-131434762D01*
X216957143Y-131482381D01*
X87552381Y-131633333D02*
X88266667Y-131633333D01*
X88409524Y-131680953D01*
X88504762Y-131776191D01*
X88552381Y-131919048D01*
X88552381Y-132014286D01*
X87885714Y-130728571D02*
X88552381Y-130728571D01*
X87504762Y-130966667D02*
X88219048Y-131204762D01*
X88219048Y-130585714D01*
X132508667Y-80224381D02*
X132508667Y-80938667D01*
X132461047Y-81081524D01*
X132365809Y-81176762D01*
X132222952Y-81224381D01*
X132127714Y-81224381D01*
X133413429Y-80224381D02*
X133222952Y-80224381D01*
X133127714Y-80272000D01*
X133080095Y-80319619D01*
X132984857Y-80462476D01*
X132937238Y-80652952D01*
X132937238Y-81033905D01*
X132984857Y-81129143D01*
X133032476Y-81176762D01*
X133127714Y-81224381D01*
X133318191Y-81224381D01*
X133413429Y-81176762D01*
X133461048Y-81129143D01*
X133508667Y-81033905D01*
X133508667Y-80795810D01*
X133461048Y-80700571D01*
X133413429Y-80652952D01*
X133318191Y-80605333D01*
X133127714Y-80605333D01*
X133032476Y-80652952D01*
X132984857Y-80700571D01*
X132937238Y-80795810D01*
D13*
X117399715Y-77864381D02*
X116828286Y-77864381D01*
X117114000Y-77864381D02*
X117114000Y-76864381D01*
X117018762Y-77007238D01*
X116923524Y-77102476D01*
X116828286Y-77150095D01*
D14*
X182992381Y-113166666D02*
X182992381Y-113642857D01*
X181992381Y-113642857D01*
X182992381Y-112309523D02*
X182992381Y-112880952D01*
X182992381Y-112595238D02*
X181992381Y-112595238D01*
X182135238Y-112690476D01*
X182230476Y-112785714D01*
X182278095Y-112880952D01*
X128879095Y-109307381D02*
X128879095Y-110116905D01*
X128926714Y-110212143D01*
X128974333Y-110259762D01*
X129069571Y-110307381D01*
X129260048Y-110307381D01*
X129355286Y-110259762D01*
X129402905Y-110212143D01*
X129450524Y-110116905D01*
X129450524Y-109307381D01*
X130450524Y-110307381D02*
X129879095Y-110307381D01*
X130164809Y-110307381D02*
X130164809Y-109307381D01*
X130069571Y-109450238D01*
X129974333Y-109545476D01*
X129879095Y-109593095D01*
X164588381Y-115255905D02*
X165397905Y-115255905D01*
X165493143Y-115208286D01*
X165540762Y-115160667D01*
X165588381Y-115065429D01*
X165588381Y-114874952D01*
X165540762Y-114779714D01*
X165493143Y-114732095D01*
X165397905Y-114684476D01*
X164588381Y-114684476D01*
X164683619Y-114255905D02*
X164636000Y-114208286D01*
X164588381Y-114113048D01*
X164588381Y-113874952D01*
X164636000Y-113779714D01*
X164683619Y-113732095D01*
X164778857Y-113684476D01*
X164874095Y-113684476D01*
X165016952Y-113732095D01*
X165588381Y-114303524D01*
X165588381Y-113684476D01*
X197358095Y-116038381D02*
X197358095Y-116847905D01*
X197405714Y-116943143D01*
X197453333Y-116990762D01*
X197548571Y-117038381D01*
X197739048Y-117038381D01*
X197834286Y-116990762D01*
X197881905Y-116943143D01*
X197929524Y-116847905D01*
X197929524Y-116038381D01*
X198881905Y-116038381D02*
X198405714Y-116038381D01*
X198358095Y-116514571D01*
X198405714Y-116466952D01*
X198500952Y-116419333D01*
X198739048Y-116419333D01*
X198834286Y-116466952D01*
X198881905Y-116514571D01*
X198929524Y-116609810D01*
X198929524Y-116847905D01*
X198881905Y-116943143D01*
X198834286Y-116990762D01*
X198739048Y-117038381D01*
X198500952Y-117038381D01*
X198405714Y-116990762D01*
X198358095Y-116943143D01*
X108712095Y-114604381D02*
X108712095Y-115413905D01*
X108759714Y-115509143D01*
X108807333Y-115556762D01*
X108902571Y-115604381D01*
X109093048Y-115604381D01*
X109188286Y-115556762D01*
X109235905Y-115509143D01*
X109283524Y-115413905D01*
X109283524Y-114604381D01*
X110188286Y-114604381D02*
X109997809Y-114604381D01*
X109902571Y-114652000D01*
X109854952Y-114699619D01*
X109759714Y-114842476D01*
X109712095Y-115032952D01*
X109712095Y-115413905D01*
X109759714Y-115509143D01*
X109807333Y-115556762D01*
X109902571Y-115604381D01*
X110093048Y-115604381D01*
X110188286Y-115556762D01*
X110235905Y-115509143D01*
X110283524Y-115413905D01*
X110283524Y-115175810D01*
X110235905Y-115080571D01*
X110188286Y-115032952D01*
X110093048Y-114985333D01*
X109902571Y-114985333D01*
X109807333Y-115032952D01*
X109759714Y-115080571D01*
X109712095Y-115175810D01*
X162193143Y-127851143D02*
X162145524Y-127898762D01*
X162002667Y-127946381D01*
X161907429Y-127946381D01*
X161764571Y-127898762D01*
X161669333Y-127803524D01*
X161621714Y-127708286D01*
X161574095Y-127517810D01*
X161574095Y-127374952D01*
X161621714Y-127184476D01*
X161669333Y-127089238D01*
X161764571Y-126994000D01*
X161907429Y-126946381D01*
X162002667Y-126946381D01*
X162145524Y-126994000D01*
X162193143Y-127041619D01*
X163145524Y-127946381D02*
X162574095Y-127946381D01*
X162859809Y-127946381D02*
X162859809Y-126946381D01*
X162764571Y-127089238D01*
X162669333Y-127184476D01*
X162574095Y-127232095D01*
X163621714Y-127946381D02*
X163812190Y-127946381D01*
X163907429Y-127898762D01*
X163955048Y-127851143D01*
X164050286Y-127708286D01*
X164097905Y-127517810D01*
X164097905Y-127136857D01*
X164050286Y-127041619D01*
X164002667Y-126994000D01*
X163907429Y-126946381D01*
X163716952Y-126946381D01*
X163621714Y-126994000D01*
X163574095Y-127041619D01*
X163526476Y-127136857D01*
X163526476Y-127374952D01*
X163574095Y-127470190D01*
X163621714Y-127517810D01*
X163716952Y-127565429D01*
X163907429Y-127565429D01*
X164002667Y-127517810D01*
X164050286Y-127470190D01*
X164097905Y-127374952D01*
X103466667Y-64552381D02*
X103466667Y-65266667D01*
X103419047Y-65409524D01*
X103323809Y-65504762D01*
X103180952Y-65552381D01*
X103085714Y-65552381D01*
X103847619Y-64552381D02*
X104514286Y-64552381D01*
X104085714Y-65552381D01*
X193866667Y-65552381D02*
X193866667Y-66266667D01*
X193819047Y-66409524D01*
X193723809Y-66504762D01*
X193580952Y-66552381D01*
X193485714Y-66552381D01*
X194485714Y-65980952D02*
X194390476Y-65933333D01*
X194342857Y-65885714D01*
X194295238Y-65790476D01*
X194295238Y-65742857D01*
X194342857Y-65647619D01*
X194390476Y-65600000D01*
X194485714Y-65552381D01*
X194676191Y-65552381D01*
X194771429Y-65600000D01*
X194819048Y-65647619D01*
X194866667Y-65742857D01*
X194866667Y-65790476D01*
X194819048Y-65885714D01*
X194771429Y-65933333D01*
X194676191Y-65980952D01*
X194485714Y-65980952D01*
X194390476Y-66028571D01*
X194342857Y-66076190D01*
X194295238Y-66171429D01*
X194295238Y-66361905D01*
X194342857Y-66457143D01*
X194390476Y-66504762D01*
X194485714Y-66552381D01*
X194676191Y-66552381D01*
X194771429Y-66504762D01*
X194819048Y-66457143D01*
X194866667Y-66361905D01*
X194866667Y-66171429D01*
X194819048Y-66076190D01*
X194771429Y-66028571D01*
X194676191Y-65980952D01*
X129815143Y-130727857D02*
X129862762Y-130775476D01*
X129910381Y-130918333D01*
X129910381Y-131013571D01*
X129862762Y-131156429D01*
X129767524Y-131251667D01*
X129672286Y-131299286D01*
X129481810Y-131346905D01*
X129338952Y-131346905D01*
X129148476Y-131299286D01*
X129053238Y-131251667D01*
X128958000Y-131156429D01*
X128910381Y-131013571D01*
X128910381Y-130918333D01*
X128958000Y-130775476D01*
X129005619Y-130727857D01*
X129005619Y-130346905D02*
X128958000Y-130299286D01*
X128910381Y-130204048D01*
X128910381Y-129965952D01*
X128958000Y-129870714D01*
X129005619Y-129823095D01*
X129100857Y-129775476D01*
X129196095Y-129775476D01*
X129338952Y-129823095D01*
X129910381Y-130394524D01*
X129910381Y-129775476D01*
X128910381Y-129156429D02*
X128910381Y-129061190D01*
X128958000Y-128965952D01*
X129005619Y-128918333D01*
X129100857Y-128870714D01*
X129291333Y-128823095D01*
X129529429Y-128823095D01*
X129719905Y-128870714D01*
X129815143Y-128918333D01*
X129862762Y-128965952D01*
X129910381Y-129061190D01*
X129910381Y-129156429D01*
X129862762Y-129251667D01*
X129815143Y-129299286D01*
X129719905Y-129346905D01*
X129529429Y-129394524D01*
X129291333Y-129394524D01*
X129100857Y-129346905D01*
X129005619Y-129299286D01*
X128958000Y-129251667D01*
X128910381Y-129156429D01*
X140974143Y-125522143D02*
X140926524Y-125569762D01*
X140783667Y-125617381D01*
X140688429Y-125617381D01*
X140545571Y-125569762D01*
X140450333Y-125474524D01*
X140402714Y-125379286D01*
X140355095Y-125188810D01*
X140355095Y-125045952D01*
X140402714Y-124855476D01*
X140450333Y-124760238D01*
X140545571Y-124665000D01*
X140688429Y-124617381D01*
X140783667Y-124617381D01*
X140926524Y-124665000D01*
X140974143Y-124712619D01*
X141355095Y-124712619D02*
X141402714Y-124665000D01*
X141497952Y-124617381D01*
X141736048Y-124617381D01*
X141831286Y-124665000D01*
X141878905Y-124712619D01*
X141926524Y-124807857D01*
X141926524Y-124903095D01*
X141878905Y-125045952D01*
X141307476Y-125617381D01*
X141926524Y-125617381D01*
X142878905Y-125617381D02*
X142307476Y-125617381D01*
X142593190Y-125617381D02*
X142593190Y-124617381D01*
X142497952Y-124760238D01*
X142402714Y-124855476D01*
X142307476Y-124903095D01*
X144007143Y-129642857D02*
X144054762Y-129690476D01*
X144102381Y-129833333D01*
X144102381Y-129928571D01*
X144054762Y-130071429D01*
X143959524Y-130166667D01*
X143864286Y-130214286D01*
X143673810Y-130261905D01*
X143530952Y-130261905D01*
X143340476Y-130214286D01*
X143245238Y-130166667D01*
X143150000Y-130071429D01*
X143102381Y-129928571D01*
X143102381Y-129833333D01*
X143150000Y-129690476D01*
X143197619Y-129642857D01*
X143197619Y-129261905D02*
X143150000Y-129214286D01*
X143102381Y-129119048D01*
X143102381Y-128880952D01*
X143150000Y-128785714D01*
X143197619Y-128738095D01*
X143292857Y-128690476D01*
X143388095Y-128690476D01*
X143530952Y-128738095D01*
X144102381Y-129309524D01*
X144102381Y-128690476D01*
X143197619Y-128309524D02*
X143150000Y-128261905D01*
X143102381Y-128166667D01*
X143102381Y-127928571D01*
X143150000Y-127833333D01*
X143197619Y-127785714D01*
X143292857Y-127738095D01*
X143388095Y-127738095D01*
X143530952Y-127785714D01*
X144102381Y-128357143D01*
X144102381Y-127738095D01*
X148871905Y-117892381D02*
X148871905Y-116892381D01*
X149110000Y-116892381D01*
X149252858Y-116940000D01*
X149348096Y-117035238D01*
X149395715Y-117130476D01*
X149443334Y-117320952D01*
X149443334Y-117463810D01*
X149395715Y-117654286D01*
X149348096Y-117749524D01*
X149252858Y-117844762D01*
X149110000Y-117892381D01*
X148871905Y-117892381D01*
X150395715Y-117892381D02*
X149824286Y-117892381D01*
X150110000Y-117892381D02*
X150110000Y-116892381D01*
X150014762Y-117035238D01*
X149919524Y-117130476D01*
X149824286Y-117178095D01*
X133004762Y-126447619D02*
X132909524Y-126400000D01*
X132814286Y-126304762D01*
X132671429Y-126161905D01*
X132576190Y-126114286D01*
X132480952Y-126114286D01*
X132528571Y-126352381D02*
X132433333Y-126304762D01*
X132338095Y-126209524D01*
X132290476Y-126019048D01*
X132290476Y-125685714D01*
X132338095Y-125495238D01*
X132433333Y-125400000D01*
X132528571Y-125352381D01*
X132719048Y-125352381D01*
X132814286Y-125400000D01*
X132909524Y-125495238D01*
X132957143Y-125685714D01*
X132957143Y-126019048D01*
X132909524Y-126209524D01*
X132814286Y-126304762D01*
X132719048Y-126352381D01*
X132528571Y-126352381D01*
X133909524Y-126352381D02*
X133338095Y-126352381D01*
X133623809Y-126352381D02*
X133623809Y-125352381D01*
X133528571Y-125495238D01*
X133433333Y-125590476D01*
X133338095Y-125638095D01*
X86360095Y-97178762D02*
X86502952Y-97226381D01*
X86741048Y-97226381D01*
X86836286Y-97178762D01*
X86883905Y-97131143D01*
X86931524Y-97035905D01*
X86931524Y-96940667D01*
X86883905Y-96845429D01*
X86836286Y-96797810D01*
X86741048Y-96750190D01*
X86550571Y-96702571D01*
X86455333Y-96654952D01*
X86407714Y-96607333D01*
X86360095Y-96512095D01*
X86360095Y-96416857D01*
X86407714Y-96321619D01*
X86455333Y-96274000D01*
X86550571Y-96226381D01*
X86788667Y-96226381D01*
X86931524Y-96274000D01*
X87312476Y-96321619D02*
X87360095Y-96274000D01*
X87455333Y-96226381D01*
X87693429Y-96226381D01*
X87788667Y-96274000D01*
X87836286Y-96321619D01*
X87883905Y-96416857D01*
X87883905Y-96512095D01*
X87836286Y-96654952D01*
X87264857Y-97226381D01*
X87883905Y-97226381D01*
X86360095Y-116228762D02*
X86502952Y-116276381D01*
X86741048Y-116276381D01*
X86836286Y-116228762D01*
X86883905Y-116181143D01*
X86931524Y-116085905D01*
X86931524Y-115990667D01*
X86883905Y-115895429D01*
X86836286Y-115847810D01*
X86741048Y-115800190D01*
X86550571Y-115752571D01*
X86455333Y-115704952D01*
X86407714Y-115657333D01*
X86360095Y-115562095D01*
X86360095Y-115466857D01*
X86407714Y-115371619D01*
X86455333Y-115324000D01*
X86550571Y-115276381D01*
X86788667Y-115276381D01*
X86931524Y-115324000D01*
X87264857Y-115276381D02*
X87883905Y-115276381D01*
X87550571Y-115657333D01*
X87693429Y-115657333D01*
X87788667Y-115704952D01*
X87836286Y-115752571D01*
X87883905Y-115847810D01*
X87883905Y-116085905D01*
X87836286Y-116181143D01*
X87788667Y-116228762D01*
X87693429Y-116276381D01*
X87407714Y-116276381D01*
X87312476Y-116228762D01*
X87264857Y-116181143D01*
X76454095Y-106830762D02*
X76596952Y-106878381D01*
X76835048Y-106878381D01*
X76930286Y-106830762D01*
X76977905Y-106783143D01*
X77025524Y-106687905D01*
X77025524Y-106592667D01*
X76977905Y-106497429D01*
X76930286Y-106449810D01*
X76835048Y-106402190D01*
X76644571Y-106354571D01*
X76549333Y-106306952D01*
X76501714Y-106259333D01*
X76454095Y-106164095D01*
X76454095Y-106068857D01*
X76501714Y-105973619D01*
X76549333Y-105926000D01*
X76644571Y-105878381D01*
X76882667Y-105878381D01*
X77025524Y-105926000D01*
X77882667Y-106211714D02*
X77882667Y-106878381D01*
X77644571Y-105830762D02*
X77406476Y-106545048D01*
X78025524Y-106545048D01*
X96012095Y-106830762D02*
X96154952Y-106878381D01*
X96393048Y-106878381D01*
X96488286Y-106830762D01*
X96535905Y-106783143D01*
X96583524Y-106687905D01*
X96583524Y-106592667D01*
X96535905Y-106497429D01*
X96488286Y-106449810D01*
X96393048Y-106402190D01*
X96202571Y-106354571D01*
X96107333Y-106306952D01*
X96059714Y-106259333D01*
X96012095Y-106164095D01*
X96012095Y-106068857D01*
X96059714Y-105973619D01*
X96107333Y-105926000D01*
X96202571Y-105878381D01*
X96440667Y-105878381D01*
X96583524Y-105926000D01*
X97488286Y-105878381D02*
X97012095Y-105878381D01*
X96964476Y-106354571D01*
X97012095Y-106306952D01*
X97107333Y-106259333D01*
X97345429Y-106259333D01*
X97440667Y-106306952D01*
X97488286Y-106354571D01*
X97535905Y-106449810D01*
X97535905Y-106687905D01*
X97488286Y-106783143D01*
X97440667Y-106830762D01*
X97345429Y-106878381D01*
X97107333Y-106878381D01*
X97012095Y-106830762D01*
X96964476Y-106783143D01*
X227361905Y-106830762D02*
X227504762Y-106878381D01*
X227742858Y-106878381D01*
X227838096Y-106830762D01*
X227885715Y-106783143D01*
X227933334Y-106687905D01*
X227933334Y-106592667D01*
X227885715Y-106497429D01*
X227838096Y-106449810D01*
X227742858Y-106402190D01*
X227552381Y-106354571D01*
X227457143Y-106306952D01*
X227409524Y-106259333D01*
X227361905Y-106164095D01*
X227361905Y-106068857D01*
X227409524Y-105973619D01*
X227457143Y-105926000D01*
X227552381Y-105878381D01*
X227790477Y-105878381D01*
X227933334Y-105926000D01*
X228885715Y-106878381D02*
X228314286Y-106878381D01*
X228600000Y-106878381D02*
X228600000Y-105878381D01*
X228504762Y-106021238D01*
X228409524Y-106116476D01*
X228314286Y-106164095D01*
X229504762Y-105878381D02*
X229600001Y-105878381D01*
X229695239Y-105926000D01*
X229742858Y-105973619D01*
X229790477Y-106068857D01*
X229838096Y-106259333D01*
X229838096Y-106497429D01*
X229790477Y-106687905D01*
X229742858Y-106783143D01*
X229695239Y-106830762D01*
X229600001Y-106878381D01*
X229504762Y-106878381D01*
X229409524Y-106830762D01*
X229361905Y-106783143D01*
X229314286Y-106687905D01*
X229266667Y-106497429D01*
X229266667Y-106259333D01*
X229314286Y-106068857D01*
X229361905Y-105973619D01*
X229409524Y-105926000D01*
X229504762Y-105878381D01*
X213899905Y-117244762D02*
X214042762Y-117292381D01*
X214280858Y-117292381D01*
X214376096Y-117244762D01*
X214423715Y-117197143D01*
X214471334Y-117101905D01*
X214471334Y-117006667D01*
X214423715Y-116911429D01*
X214376096Y-116863810D01*
X214280858Y-116816190D01*
X214090381Y-116768571D01*
X213995143Y-116720952D01*
X213947524Y-116673333D01*
X213899905Y-116578095D01*
X213899905Y-116482857D01*
X213947524Y-116387619D01*
X213995143Y-116340000D01*
X214090381Y-116292381D01*
X214328477Y-116292381D01*
X214471334Y-116340000D01*
X215423715Y-117292381D02*
X214852286Y-117292381D01*
X215138000Y-117292381D02*
X215138000Y-116292381D01*
X215042762Y-116435238D01*
X214947524Y-116530476D01*
X214852286Y-116578095D01*
X216376096Y-117292381D02*
X215804667Y-117292381D01*
X216090381Y-117292381D02*
X216090381Y-116292381D01*
X215995143Y-116435238D01*
X215899905Y-116530476D01*
X215804667Y-116578095D01*
X213899905Y-96416762D02*
X214042762Y-96464381D01*
X214280858Y-96464381D01*
X214376096Y-96416762D01*
X214423715Y-96369143D01*
X214471334Y-96273905D01*
X214471334Y-96178667D01*
X214423715Y-96083429D01*
X214376096Y-96035810D01*
X214280858Y-95988190D01*
X214090381Y-95940571D01*
X213995143Y-95892952D01*
X213947524Y-95845333D01*
X213899905Y-95750095D01*
X213899905Y-95654857D01*
X213947524Y-95559619D01*
X213995143Y-95512000D01*
X214090381Y-95464381D01*
X214328477Y-95464381D01*
X214471334Y-95512000D01*
X215423715Y-96464381D02*
X214852286Y-96464381D01*
X215138000Y-96464381D02*
X215138000Y-95464381D01*
X215042762Y-95607238D01*
X214947524Y-95702476D01*
X214852286Y-95750095D01*
X215804667Y-95559619D02*
X215852286Y-95512000D01*
X215947524Y-95464381D01*
X216185620Y-95464381D01*
X216280858Y-95512000D01*
X216328477Y-95559619D01*
X216376096Y-95654857D01*
X216376096Y-95750095D01*
X216328477Y-95892952D01*
X215757048Y-96464381D01*
X216376096Y-96464381D01*
X200437905Y-106830762D02*
X200580762Y-106878381D01*
X200818858Y-106878381D01*
X200914096Y-106830762D01*
X200961715Y-106783143D01*
X201009334Y-106687905D01*
X201009334Y-106592667D01*
X200961715Y-106497429D01*
X200914096Y-106449810D01*
X200818858Y-106402190D01*
X200628381Y-106354571D01*
X200533143Y-106306952D01*
X200485524Y-106259333D01*
X200437905Y-106164095D01*
X200437905Y-106068857D01*
X200485524Y-105973619D01*
X200533143Y-105926000D01*
X200628381Y-105878381D01*
X200866477Y-105878381D01*
X201009334Y-105926000D01*
X201961715Y-106878381D02*
X201390286Y-106878381D01*
X201676000Y-106878381D02*
X201676000Y-105878381D01*
X201580762Y-106021238D01*
X201485524Y-106116476D01*
X201390286Y-106164095D01*
X202295048Y-105878381D02*
X202914096Y-105878381D01*
X202580762Y-106259333D01*
X202723620Y-106259333D01*
X202818858Y-106306952D01*
X202866477Y-106354571D01*
X202914096Y-106449810D01*
X202914096Y-106687905D01*
X202866477Y-106783143D01*
X202818858Y-106830762D01*
X202723620Y-106878381D01*
X202437905Y-106878381D01*
X202342667Y-106830762D01*
X202295048Y-106783143D01*
X138433334Y-107657143D02*
X138385715Y-107704762D01*
X138242858Y-107752381D01*
X138147620Y-107752381D01*
X138004762Y-107704762D01*
X137909524Y-107609524D01*
X137861905Y-107514286D01*
X137814286Y-107323810D01*
X137814286Y-107180952D01*
X137861905Y-106990476D01*
X137909524Y-106895238D01*
X138004762Y-106800000D01*
X138147620Y-106752381D01*
X138242858Y-106752381D01*
X138385715Y-106800000D01*
X138433334Y-106847619D01*
X138814286Y-106847619D02*
X138861905Y-106800000D01*
X138957143Y-106752381D01*
X139195239Y-106752381D01*
X139290477Y-106800000D01*
X139338096Y-106847619D01*
X139385715Y-106942857D01*
X139385715Y-107038095D01*
X139338096Y-107180952D01*
X138766667Y-107752381D01*
X139385715Y-107752381D01*
X210399334Y-124817143D02*
X210351715Y-124864762D01*
X210208858Y-124912381D01*
X210113620Y-124912381D01*
X209970762Y-124864762D01*
X209875524Y-124769524D01*
X209827905Y-124674286D01*
X209780286Y-124483810D01*
X209780286Y-124340952D01*
X209827905Y-124150476D01*
X209875524Y-124055238D01*
X209970762Y-123960000D01*
X210113620Y-123912381D01*
X210208858Y-123912381D01*
X210351715Y-123960000D01*
X210399334Y-124007619D01*
X210970762Y-124340952D02*
X210875524Y-124293333D01*
X210827905Y-124245714D01*
X210780286Y-124150476D01*
X210780286Y-124102857D01*
X210827905Y-124007619D01*
X210875524Y-123960000D01*
X210970762Y-123912381D01*
X211161239Y-123912381D01*
X211256477Y-123960000D01*
X211304096Y-124007619D01*
X211351715Y-124102857D01*
X211351715Y-124150476D01*
X211304096Y-124245714D01*
X211256477Y-124293333D01*
X211161239Y-124340952D01*
X210970762Y-124340952D01*
X210875524Y-124388571D01*
X210827905Y-124436190D01*
X210780286Y-124531429D01*
X210780286Y-124721905D01*
X210827905Y-124817143D01*
X210875524Y-124864762D01*
X210970762Y-124912381D01*
X211161239Y-124912381D01*
X211256477Y-124864762D01*
X211304096Y-124817143D01*
X211351715Y-124721905D01*
X211351715Y-124531429D01*
X211304096Y-124436190D01*
X211256477Y-124388571D01*
X211161239Y-124340952D01*
X210431143Y-118975143D02*
X210383524Y-119022762D01*
X210240667Y-119070381D01*
X210145429Y-119070381D01*
X210002571Y-119022762D01*
X209907333Y-118927524D01*
X209859714Y-118832286D01*
X209812095Y-118641810D01*
X209812095Y-118498952D01*
X209859714Y-118308476D01*
X209907333Y-118213238D01*
X210002571Y-118118000D01*
X210145429Y-118070381D01*
X210240667Y-118070381D01*
X210383524Y-118118000D01*
X210431143Y-118165619D01*
X211383524Y-119070381D02*
X210812095Y-119070381D01*
X211097809Y-119070381D02*
X211097809Y-118070381D01*
X211002571Y-118213238D01*
X210907333Y-118308476D01*
X210812095Y-118356095D01*
X211764476Y-118165619D02*
X211812095Y-118118000D01*
X211907333Y-118070381D01*
X212145429Y-118070381D01*
X212240667Y-118118000D01*
X212288286Y-118165619D01*
X212335905Y-118260857D01*
X212335905Y-118356095D01*
X212288286Y-118498952D01*
X211716857Y-119070381D01*
X212335905Y-119070381D01*
X121785143Y-119737143D02*
X121737524Y-119784762D01*
X121594667Y-119832381D01*
X121499429Y-119832381D01*
X121356571Y-119784762D01*
X121261333Y-119689524D01*
X121213714Y-119594286D01*
X121166095Y-119403810D01*
X121166095Y-119260952D01*
X121213714Y-119070476D01*
X121261333Y-118975238D01*
X121356571Y-118880000D01*
X121499429Y-118832381D01*
X121594667Y-118832381D01*
X121737524Y-118880000D01*
X121785143Y-118927619D01*
X122737524Y-119832381D02*
X122166095Y-119832381D01*
X122451809Y-119832381D02*
X122451809Y-118832381D01*
X122356571Y-118975238D01*
X122261333Y-119070476D01*
X122166095Y-119118095D01*
X123070857Y-118832381D02*
X123689905Y-118832381D01*
X123356571Y-119213333D01*
X123499429Y-119213333D01*
X123594667Y-119260952D01*
X123642286Y-119308571D01*
X123689905Y-119403810D01*
X123689905Y-119641905D01*
X123642286Y-119737143D01*
X123594667Y-119784762D01*
X123499429Y-119832381D01*
X123213714Y-119832381D01*
X123118476Y-119784762D01*
X123070857Y-119737143D01*
X121785143Y-125579143D02*
X121737524Y-125626762D01*
X121594667Y-125674381D01*
X121499429Y-125674381D01*
X121356571Y-125626762D01*
X121261333Y-125531524D01*
X121213714Y-125436286D01*
X121166095Y-125245810D01*
X121166095Y-125102952D01*
X121213714Y-124912476D01*
X121261333Y-124817238D01*
X121356571Y-124722000D01*
X121499429Y-124674381D01*
X121594667Y-124674381D01*
X121737524Y-124722000D01*
X121785143Y-124769619D01*
X122737524Y-125674381D02*
X122166095Y-125674381D01*
X122451809Y-125674381D02*
X122451809Y-124674381D01*
X122356571Y-124817238D01*
X122261333Y-124912476D01*
X122166095Y-124960095D01*
X123642286Y-124674381D02*
X123166095Y-124674381D01*
X123118476Y-125150571D01*
X123166095Y-125102952D01*
X123261333Y-125055333D01*
X123499429Y-125055333D01*
X123594667Y-125102952D01*
X123642286Y-125150571D01*
X123689905Y-125245810D01*
X123689905Y-125483905D01*
X123642286Y-125579143D01*
X123594667Y-125626762D01*
X123499429Y-125674381D01*
X123261333Y-125674381D01*
X123166095Y-125626762D01*
X123118476Y-125579143D01*
X222938095Y-77404762D02*
X223080952Y-77452381D01*
X223319048Y-77452381D01*
X223414286Y-77404762D01*
X223461905Y-77357143D01*
X223509524Y-77261905D01*
X223509524Y-77166667D01*
X223461905Y-77071429D01*
X223414286Y-77023810D01*
X223319048Y-76976190D01*
X223128571Y-76928571D01*
X223033333Y-76880952D01*
X222985714Y-76833333D01*
X222938095Y-76738095D01*
X222938095Y-76642857D01*
X222985714Y-76547619D01*
X223033333Y-76500000D01*
X223128571Y-76452381D01*
X223366667Y-76452381D01*
X223509524Y-76500000D01*
X224080952Y-76880952D02*
X223985714Y-76833333D01*
X223938095Y-76785714D01*
X223890476Y-76690476D01*
X223890476Y-76642857D01*
X223938095Y-76547619D01*
X223985714Y-76500000D01*
X224080952Y-76452381D01*
X224271429Y-76452381D01*
X224366667Y-76500000D01*
X224414286Y-76547619D01*
X224461905Y-76642857D01*
X224461905Y-76690476D01*
X224414286Y-76785714D01*
X224366667Y-76833333D01*
X224271429Y-76880952D01*
X224080952Y-76880952D01*
X223985714Y-76928571D01*
X223938095Y-76976190D01*
X223890476Y-77071429D01*
X223890476Y-77261905D01*
X223938095Y-77357143D01*
X223985714Y-77404762D01*
X224080952Y-77452381D01*
X224271429Y-77452381D01*
X224366667Y-77404762D01*
X224414286Y-77357143D01*
X224461905Y-77261905D01*
X224461905Y-77071429D01*
X224414286Y-76976190D01*
X224366667Y-76928571D01*
X224271429Y-76880952D01*
X205338095Y-77404762D02*
X205480952Y-77452381D01*
X205719048Y-77452381D01*
X205814286Y-77404762D01*
X205861905Y-77357143D01*
X205909524Y-77261905D01*
X205909524Y-77166667D01*
X205861905Y-77071429D01*
X205814286Y-77023810D01*
X205719048Y-76976190D01*
X205528571Y-76928571D01*
X205433333Y-76880952D01*
X205385714Y-76833333D01*
X205338095Y-76738095D01*
X205338095Y-76642857D01*
X205385714Y-76547619D01*
X205433333Y-76500000D01*
X205528571Y-76452381D01*
X205766667Y-76452381D01*
X205909524Y-76500000D01*
X206385714Y-77452381D02*
X206576190Y-77452381D01*
X206671429Y-77404762D01*
X206719048Y-77357143D01*
X206814286Y-77214286D01*
X206861905Y-77023810D01*
X206861905Y-76642857D01*
X206814286Y-76547619D01*
X206766667Y-76500000D01*
X206671429Y-76452381D01*
X206480952Y-76452381D01*
X206385714Y-76500000D01*
X206338095Y-76547619D01*
X206290476Y-76642857D01*
X206290476Y-76880952D01*
X206338095Y-76976190D01*
X206385714Y-77023810D01*
X206480952Y-77071429D01*
X206671429Y-77071429D01*
X206766667Y-77023810D01*
X206814286Y-76976190D01*
X206861905Y-76880952D01*
X96461905Y-77404762D02*
X96604762Y-77452381D01*
X96842858Y-77452381D01*
X96938096Y-77404762D01*
X96985715Y-77357143D01*
X97033334Y-77261905D01*
X97033334Y-77166667D01*
X96985715Y-77071429D01*
X96938096Y-77023810D01*
X96842858Y-76976190D01*
X96652381Y-76928571D01*
X96557143Y-76880952D01*
X96509524Y-76833333D01*
X96461905Y-76738095D01*
X96461905Y-76642857D01*
X96509524Y-76547619D01*
X96557143Y-76500000D01*
X96652381Y-76452381D01*
X96890477Y-76452381D01*
X97033334Y-76500000D01*
X97985715Y-77452381D02*
X97414286Y-77452381D01*
X97700000Y-77452381D02*
X97700000Y-76452381D01*
X97604762Y-76595238D01*
X97509524Y-76690476D01*
X97414286Y-76738095D01*
X98842858Y-76785714D02*
X98842858Y-77452381D01*
X98604762Y-76404762D02*
X98366667Y-77119048D01*
X98985715Y-77119048D01*
X78961905Y-77404762D02*
X79104762Y-77452381D01*
X79342858Y-77452381D01*
X79438096Y-77404762D01*
X79485715Y-77357143D01*
X79533334Y-77261905D01*
X79533334Y-77166667D01*
X79485715Y-77071429D01*
X79438096Y-77023810D01*
X79342858Y-76976190D01*
X79152381Y-76928571D01*
X79057143Y-76880952D01*
X79009524Y-76833333D01*
X78961905Y-76738095D01*
X78961905Y-76642857D01*
X79009524Y-76547619D01*
X79057143Y-76500000D01*
X79152381Y-76452381D01*
X79390477Y-76452381D01*
X79533334Y-76500000D01*
X80485715Y-77452381D02*
X79914286Y-77452381D01*
X80200000Y-77452381D02*
X80200000Y-76452381D01*
X80104762Y-76595238D01*
X80009524Y-76690476D01*
X79914286Y-76738095D01*
X81390477Y-76452381D02*
X80914286Y-76452381D01*
X80866667Y-76928571D01*
X80914286Y-76880952D01*
X81009524Y-76833333D01*
X81247620Y-76833333D01*
X81342858Y-76880952D01*
X81390477Y-76928571D01*
X81438096Y-77023810D01*
X81438096Y-77261905D01*
X81390477Y-77357143D01*
X81342858Y-77404762D01*
X81247620Y-77452381D01*
X81009524Y-77452381D01*
X80914286Y-77404762D01*
X80866667Y-77357143D01*
X129633334Y-102152381D02*
X129300000Y-101676190D01*
X129061905Y-102152381D02*
X129061905Y-101152381D01*
X129442858Y-101152381D01*
X129538096Y-101200000D01*
X129585715Y-101247619D01*
X129633334Y-101342857D01*
X129633334Y-101485714D01*
X129585715Y-101580952D01*
X129538096Y-101628571D01*
X129442858Y-101676190D01*
X129061905Y-101676190D01*
X130585715Y-102152381D02*
X130014286Y-102152381D01*
X130300000Y-102152381D02*
X130300000Y-101152381D01*
X130204762Y-101295238D01*
X130109524Y-101390476D01*
X130014286Y-101438095D01*
X123152381Y-103642857D02*
X122676190Y-103976191D01*
X123152381Y-104214286D02*
X122152381Y-104214286D01*
X122152381Y-103833333D01*
X122200000Y-103738095D01*
X122247619Y-103690476D01*
X122342857Y-103642857D01*
X122485714Y-103642857D01*
X122580952Y-103690476D01*
X122628571Y-103738095D01*
X122676190Y-103833333D01*
X122676190Y-104214286D01*
X123152381Y-102690476D02*
X123152381Y-103261905D01*
X123152381Y-102976191D02*
X122152381Y-102976191D01*
X122295238Y-103071429D01*
X122390476Y-103166667D01*
X122438095Y-103261905D01*
X122152381Y-102357143D02*
X122152381Y-101738095D01*
X122533333Y-102071429D01*
X122533333Y-101928571D01*
X122580952Y-101833333D01*
X122628571Y-101785714D01*
X122723810Y-101738095D01*
X122961905Y-101738095D01*
X123057143Y-101785714D01*
X123104762Y-101833333D01*
X123152381Y-101928571D01*
X123152381Y-102214286D01*
X123104762Y-102309524D01*
X123057143Y-102357143D01*
X120988381Y-103572857D02*
X120512190Y-103906191D01*
X120988381Y-104144286D02*
X119988381Y-104144286D01*
X119988381Y-103763333D01*
X120036000Y-103668095D01*
X120083619Y-103620476D01*
X120178857Y-103572857D01*
X120321714Y-103572857D01*
X120416952Y-103620476D01*
X120464571Y-103668095D01*
X120512190Y-103763333D01*
X120512190Y-104144286D01*
X120988381Y-102620476D02*
X120988381Y-103191905D01*
X120988381Y-102906191D02*
X119988381Y-102906191D01*
X120131238Y-103001429D01*
X120226476Y-103096667D01*
X120274095Y-103191905D01*
X120321714Y-101763333D02*
X120988381Y-101763333D01*
X119940762Y-102001429D02*
X120655048Y-102239524D01*
X120655048Y-101620476D01*
X145857143Y-112752381D02*
X145523809Y-112276190D01*
X145285714Y-112752381D02*
X145285714Y-111752381D01*
X145666667Y-111752381D01*
X145761905Y-111800000D01*
X145809524Y-111847619D01*
X145857143Y-111942857D01*
X145857143Y-112085714D01*
X145809524Y-112180952D01*
X145761905Y-112228571D01*
X145666667Y-112276190D01*
X145285714Y-112276190D01*
X146809524Y-112752381D02*
X146238095Y-112752381D01*
X146523809Y-112752381D02*
X146523809Y-111752381D01*
X146428571Y-111895238D01*
X146333333Y-111990476D01*
X146238095Y-112038095D01*
X147285714Y-112752381D02*
X147476190Y-112752381D01*
X147571429Y-112704762D01*
X147619048Y-112657143D01*
X147714286Y-112514286D01*
X147761905Y-112323810D01*
X147761905Y-111942857D01*
X147714286Y-111847619D01*
X147666667Y-111800000D01*
X147571429Y-111752381D01*
X147380952Y-111752381D01*
X147285714Y-111800000D01*
X147238095Y-111847619D01*
X147190476Y-111942857D01*
X147190476Y-112180952D01*
X147238095Y-112276190D01*
X147285714Y-112323810D01*
X147380952Y-112371429D01*
X147571429Y-112371429D01*
X147666667Y-112323810D01*
X147714286Y-112276190D01*
X147761905Y-112180952D01*
X142224143Y-117117381D02*
X141890809Y-116641190D01*
X141652714Y-117117381D02*
X141652714Y-116117381D01*
X142033667Y-116117381D01*
X142128905Y-116165000D01*
X142176524Y-116212619D01*
X142224143Y-116307857D01*
X142224143Y-116450714D01*
X142176524Y-116545952D01*
X142128905Y-116593571D01*
X142033667Y-116641190D01*
X141652714Y-116641190D01*
X142605095Y-116212619D02*
X142652714Y-116165000D01*
X142747952Y-116117381D01*
X142986048Y-116117381D01*
X143081286Y-116165000D01*
X143128905Y-116212619D01*
X143176524Y-116307857D01*
X143176524Y-116403095D01*
X143128905Y-116545952D01*
X142557476Y-117117381D01*
X143176524Y-117117381D01*
X144128905Y-117117381D02*
X143557476Y-117117381D01*
X143843190Y-117117381D02*
X143843190Y-116117381D01*
X143747952Y-116260238D01*
X143652714Y-116355476D01*
X143557476Y-116403095D01*
X142249143Y-120017381D02*
X141915809Y-119541190D01*
X141677714Y-120017381D02*
X141677714Y-119017381D01*
X142058667Y-119017381D01*
X142153905Y-119065000D01*
X142201524Y-119112619D01*
X142249143Y-119207857D01*
X142249143Y-119350714D01*
X142201524Y-119445952D01*
X142153905Y-119493571D01*
X142058667Y-119541190D01*
X141677714Y-119541190D01*
X143201524Y-120017381D02*
X142630095Y-120017381D01*
X142915809Y-120017381D02*
X142915809Y-119017381D01*
X142820571Y-119160238D01*
X142725333Y-119255476D01*
X142630095Y-119303095D01*
X144106286Y-119017381D02*
X143630095Y-119017381D01*
X143582476Y-119493571D01*
X143630095Y-119445952D01*
X143725333Y-119398333D01*
X143963429Y-119398333D01*
X144058667Y-119445952D01*
X144106286Y-119493571D01*
X144153905Y-119588810D01*
X144153905Y-119826905D01*
X144106286Y-119922143D01*
X144058667Y-119969762D01*
X143963429Y-120017381D01*
X143725333Y-120017381D01*
X143630095Y-119969762D01*
X143582476Y-119922143D01*
X142224143Y-122592381D02*
X141890809Y-122116190D01*
X141652714Y-122592381D02*
X141652714Y-121592381D01*
X142033667Y-121592381D01*
X142128905Y-121640000D01*
X142176524Y-121687619D01*
X142224143Y-121782857D01*
X142224143Y-121925714D01*
X142176524Y-122020952D01*
X142128905Y-122068571D01*
X142033667Y-122116190D01*
X141652714Y-122116190D01*
X143176524Y-122592381D02*
X142605095Y-122592381D01*
X142890809Y-122592381D02*
X142890809Y-121592381D01*
X142795571Y-121735238D01*
X142700333Y-121830476D01*
X142605095Y-121878095D01*
X144033667Y-121592381D02*
X143843190Y-121592381D01*
X143747952Y-121640000D01*
X143700333Y-121687619D01*
X143605095Y-121830476D01*
X143557476Y-122020952D01*
X143557476Y-122401905D01*
X143605095Y-122497143D01*
X143652714Y-122544762D01*
X143747952Y-122592381D01*
X143938429Y-122592381D01*
X144033667Y-122544762D01*
X144081286Y-122497143D01*
X144128905Y-122401905D01*
X144128905Y-122163810D01*
X144081286Y-122068571D01*
X144033667Y-122020952D01*
X143938429Y-121973333D01*
X143747952Y-121973333D01*
X143652714Y-122020952D01*
X143605095Y-122068571D01*
X143557476Y-122163810D01*
X146957143Y-127302381D02*
X146623809Y-126826190D01*
X146385714Y-127302381D02*
X146385714Y-126302381D01*
X146766667Y-126302381D01*
X146861905Y-126350000D01*
X146909524Y-126397619D01*
X146957143Y-126492857D01*
X146957143Y-126635714D01*
X146909524Y-126730952D01*
X146861905Y-126778571D01*
X146766667Y-126826190D01*
X146385714Y-126826190D01*
X147909524Y-127302381D02*
X147338095Y-127302381D01*
X147623809Y-127302381D02*
X147623809Y-126302381D01*
X147528571Y-126445238D01*
X147433333Y-126540476D01*
X147338095Y-126588095D01*
X148242857Y-126302381D02*
X148909524Y-126302381D01*
X148480952Y-127302381D01*
X146757143Y-132702381D02*
X146423809Y-132226190D01*
X146185714Y-132702381D02*
X146185714Y-131702381D01*
X146566667Y-131702381D01*
X146661905Y-131750000D01*
X146709524Y-131797619D01*
X146757143Y-131892857D01*
X146757143Y-132035714D01*
X146709524Y-132130952D01*
X146661905Y-132178571D01*
X146566667Y-132226190D01*
X146185714Y-132226190D01*
X147709524Y-132702381D02*
X147138095Y-132702381D01*
X147423809Y-132702381D02*
X147423809Y-131702381D01*
X147328571Y-131845238D01*
X147233333Y-131940476D01*
X147138095Y-131988095D01*
X148280952Y-132130952D02*
X148185714Y-132083333D01*
X148138095Y-132035714D01*
X148090476Y-131940476D01*
X148090476Y-131892857D01*
X148138095Y-131797619D01*
X148185714Y-131750000D01*
X148280952Y-131702381D01*
X148471429Y-131702381D01*
X148566667Y-131750000D01*
X148614286Y-131797619D01*
X148661905Y-131892857D01*
X148661905Y-131940476D01*
X148614286Y-132035714D01*
X148566667Y-132083333D01*
X148471429Y-132130952D01*
X148280952Y-132130952D01*
X148185714Y-132178571D01*
X148138095Y-132226190D01*
X148090476Y-132321429D01*
X148090476Y-132511905D01*
X148138095Y-132607143D01*
X148185714Y-132654762D01*
X148280952Y-132702381D01*
X148471429Y-132702381D01*
X148566667Y-132654762D01*
X148614286Y-132607143D01*
X148661905Y-132511905D01*
X148661905Y-132321429D01*
X148614286Y-132226190D01*
X148566667Y-132178571D01*
X148471429Y-132130952D01*
X167033334Y-133502381D02*
X166700000Y-133026190D01*
X166461905Y-133502381D02*
X166461905Y-132502381D01*
X166842858Y-132502381D01*
X166938096Y-132550000D01*
X166985715Y-132597619D01*
X167033334Y-132692857D01*
X167033334Y-132835714D01*
X166985715Y-132930952D01*
X166938096Y-132978571D01*
X166842858Y-133026190D01*
X166461905Y-133026190D01*
X167414286Y-132597619D02*
X167461905Y-132550000D01*
X167557143Y-132502381D01*
X167795239Y-132502381D01*
X167890477Y-132550000D01*
X167938096Y-132597619D01*
X167985715Y-132692857D01*
X167985715Y-132788095D01*
X167938096Y-132930952D01*
X167366667Y-133502381D01*
X167985715Y-133502381D01*
X185507334Y-129738381D02*
X185174000Y-129262190D01*
X184935905Y-129738381D02*
X184935905Y-128738381D01*
X185316858Y-128738381D01*
X185412096Y-128786000D01*
X185459715Y-128833619D01*
X185507334Y-128928857D01*
X185507334Y-129071714D01*
X185459715Y-129166952D01*
X185412096Y-129214571D01*
X185316858Y-129262190D01*
X184935905Y-129262190D01*
X185840667Y-128738381D02*
X186459715Y-128738381D01*
X186126381Y-129119333D01*
X186269239Y-129119333D01*
X186364477Y-129166952D01*
X186412096Y-129214571D01*
X186459715Y-129309810D01*
X186459715Y-129547905D01*
X186412096Y-129643143D01*
X186364477Y-129690762D01*
X186269239Y-129738381D01*
X185983524Y-129738381D01*
X185888286Y-129690762D01*
X185840667Y-129643143D01*
X198461334Y-112974381D02*
X198128000Y-112498190D01*
X197889905Y-112974381D02*
X197889905Y-111974381D01*
X198270858Y-111974381D01*
X198366096Y-112022000D01*
X198413715Y-112069619D01*
X198461334Y-112164857D01*
X198461334Y-112307714D01*
X198413715Y-112402952D01*
X198366096Y-112450571D01*
X198270858Y-112498190D01*
X197889905Y-112498190D01*
X199318477Y-112307714D02*
X199318477Y-112974381D01*
X199080381Y-111926762D02*
X198842286Y-112641048D01*
X199461334Y-112641048D01*
X185507334Y-123388381D02*
X185174000Y-122912190D01*
X184935905Y-123388381D02*
X184935905Y-122388381D01*
X185316858Y-122388381D01*
X185412096Y-122436000D01*
X185459715Y-122483619D01*
X185507334Y-122578857D01*
X185507334Y-122721714D01*
X185459715Y-122816952D01*
X185412096Y-122864571D01*
X185316858Y-122912190D01*
X184935905Y-122912190D01*
X186412096Y-122388381D02*
X185935905Y-122388381D01*
X185888286Y-122864571D01*
X185935905Y-122816952D01*
X186031143Y-122769333D01*
X186269239Y-122769333D01*
X186364477Y-122816952D01*
X186412096Y-122864571D01*
X186459715Y-122959810D01*
X186459715Y-123197905D01*
X186412096Y-123293143D01*
X186364477Y-123340762D01*
X186269239Y-123388381D01*
X186031143Y-123388381D01*
X185935905Y-123340762D01*
X185888286Y-123293143D01*
X185507334Y-135834381D02*
X185174000Y-135358190D01*
X184935905Y-135834381D02*
X184935905Y-134834381D01*
X185316858Y-134834381D01*
X185412096Y-134882000D01*
X185459715Y-134929619D01*
X185507334Y-135024857D01*
X185507334Y-135167714D01*
X185459715Y-135262952D01*
X185412096Y-135310571D01*
X185316858Y-135358190D01*
X184935905Y-135358190D01*
X186364477Y-134834381D02*
X186174000Y-134834381D01*
X186078762Y-134882000D01*
X186031143Y-134929619D01*
X185935905Y-135072476D01*
X185888286Y-135262952D01*
X185888286Y-135643905D01*
X185935905Y-135739143D01*
X185983524Y-135786762D01*
X186078762Y-135834381D01*
X186269239Y-135834381D01*
X186364477Y-135786762D01*
X186412096Y-135739143D01*
X186459715Y-135643905D01*
X186459715Y-135405810D01*
X186412096Y-135310571D01*
X186364477Y-135262952D01*
X186269239Y-135215333D01*
X186078762Y-135215333D01*
X185983524Y-135262952D01*
X185935905Y-135310571D01*
X185888286Y-135405810D01*
X94829334Y-127960381D02*
X94496000Y-127484190D01*
X94257905Y-127960381D02*
X94257905Y-126960381D01*
X94638858Y-126960381D01*
X94734096Y-127008000D01*
X94781715Y-127055619D01*
X94829334Y-127150857D01*
X94829334Y-127293714D01*
X94781715Y-127388952D01*
X94734096Y-127436571D01*
X94638858Y-127484190D01*
X94257905Y-127484190D01*
X95162667Y-126960381D02*
X95829334Y-126960381D01*
X95400762Y-127960381D01*
X97733334Y-120352381D02*
X97400000Y-119876190D01*
X97161905Y-120352381D02*
X97161905Y-119352381D01*
X97542858Y-119352381D01*
X97638096Y-119400000D01*
X97685715Y-119447619D01*
X97733334Y-119542857D01*
X97733334Y-119685714D01*
X97685715Y-119780952D01*
X97638096Y-119828571D01*
X97542858Y-119876190D01*
X97161905Y-119876190D01*
X98304762Y-119780952D02*
X98209524Y-119733333D01*
X98161905Y-119685714D01*
X98114286Y-119590476D01*
X98114286Y-119542857D01*
X98161905Y-119447619D01*
X98209524Y-119400000D01*
X98304762Y-119352381D01*
X98495239Y-119352381D01*
X98590477Y-119400000D01*
X98638096Y-119447619D01*
X98685715Y-119542857D01*
X98685715Y-119590476D01*
X98638096Y-119685714D01*
X98590477Y-119733333D01*
X98495239Y-119780952D01*
X98304762Y-119780952D01*
X98209524Y-119828571D01*
X98161905Y-119876190D01*
X98114286Y-119971429D01*
X98114286Y-120161905D01*
X98161905Y-120257143D01*
X98209524Y-120304762D01*
X98304762Y-120352381D01*
X98495239Y-120352381D01*
X98590477Y-120304762D01*
X98638096Y-120257143D01*
X98685715Y-120161905D01*
X98685715Y-119971429D01*
X98638096Y-119876190D01*
X98590477Y-119828571D01*
X98495239Y-119780952D01*
X109561334Y-111704381D02*
X109228000Y-111228190D01*
X108989905Y-111704381D02*
X108989905Y-110704381D01*
X109370858Y-110704381D01*
X109466096Y-110752000D01*
X109513715Y-110799619D01*
X109561334Y-110894857D01*
X109561334Y-111037714D01*
X109513715Y-111132952D01*
X109466096Y-111180571D01*
X109370858Y-111228190D01*
X108989905Y-111228190D01*
X110037524Y-111704381D02*
X110228000Y-111704381D01*
X110323239Y-111656762D01*
X110370858Y-111609143D01*
X110466096Y-111466286D01*
X110513715Y-111275810D01*
X110513715Y-110894857D01*
X110466096Y-110799619D01*
X110418477Y-110752000D01*
X110323239Y-110704381D01*
X110132762Y-110704381D01*
X110037524Y-110752000D01*
X109989905Y-110799619D01*
X109942286Y-110894857D01*
X109942286Y-111132952D01*
X109989905Y-111228190D01*
X110037524Y-111275810D01*
X110132762Y-111323429D01*
X110323239Y-111323429D01*
X110418477Y-111275810D01*
X110466096Y-111228190D01*
X110513715Y-111132952D01*
X94099143Y-134056381D02*
X93765809Y-133580190D01*
X93527714Y-134056381D02*
X93527714Y-133056381D01*
X93908667Y-133056381D01*
X94003905Y-133104000D01*
X94051524Y-133151619D01*
X94099143Y-133246857D01*
X94099143Y-133389714D01*
X94051524Y-133484952D01*
X94003905Y-133532571D01*
X93908667Y-133580190D01*
X93527714Y-133580190D01*
X95051524Y-134056381D02*
X94480095Y-134056381D01*
X94765809Y-134056381D02*
X94765809Y-133056381D01*
X94670571Y-133199238D01*
X94575333Y-133294476D01*
X94480095Y-133342095D01*
X95670571Y-133056381D02*
X95765810Y-133056381D01*
X95861048Y-133104000D01*
X95908667Y-133151619D01*
X95956286Y-133246857D01*
X96003905Y-133437333D01*
X96003905Y-133675429D01*
X95956286Y-133865905D01*
X95908667Y-133961143D01*
X95861048Y-134008762D01*
X95765810Y-134056381D01*
X95670571Y-134056381D01*
X95575333Y-134008762D01*
X95527714Y-133961143D01*
X95480095Y-133865905D01*
X95432476Y-133675429D01*
X95432476Y-133437333D01*
X95480095Y-133246857D01*
X95527714Y-133151619D01*
X95575333Y-133104000D01*
X95670571Y-133056381D01*
X159588381Y-115386857D02*
X159112190Y-115720191D01*
X159588381Y-115958286D02*
X158588381Y-115958286D01*
X158588381Y-115577333D01*
X158636000Y-115482095D01*
X158683619Y-115434476D01*
X158778857Y-115386857D01*
X158921714Y-115386857D01*
X159016952Y-115434476D01*
X159064571Y-115482095D01*
X159112190Y-115577333D01*
X159112190Y-115958286D01*
X159588381Y-114434476D02*
X159588381Y-115005905D01*
X159588381Y-114720191D02*
X158588381Y-114720191D01*
X158731238Y-114815429D01*
X158826476Y-114910667D01*
X158874095Y-115005905D01*
X159588381Y-113482095D02*
X159588381Y-114053524D01*
X159588381Y-113767810D02*
X158588381Y-113767810D01*
X158731238Y-113863048D01*
X158826476Y-113958286D01*
X158874095Y-114053524D01*
X151557143Y-110502381D02*
X151223809Y-110026190D01*
X150985714Y-110502381D02*
X150985714Y-109502381D01*
X151366667Y-109502381D01*
X151461905Y-109550000D01*
X151509524Y-109597619D01*
X151557143Y-109692857D01*
X151557143Y-109835714D01*
X151509524Y-109930952D01*
X151461905Y-109978571D01*
X151366667Y-110026190D01*
X150985714Y-110026190D01*
X152509524Y-110502381D02*
X151938095Y-110502381D01*
X152223809Y-110502381D02*
X152223809Y-109502381D01*
X152128571Y-109645238D01*
X152033333Y-109740476D01*
X151938095Y-109788095D01*
X152890476Y-109597619D02*
X152938095Y-109550000D01*
X153033333Y-109502381D01*
X153271429Y-109502381D01*
X153366667Y-109550000D01*
X153414286Y-109597619D01*
X153461905Y-109692857D01*
X153461905Y-109788095D01*
X153414286Y-109930952D01*
X152842857Y-110502381D01*
X153461905Y-110502381D01*
X132254143Y-134398381D02*
X131920809Y-133922190D01*
X131682714Y-134398381D02*
X131682714Y-133398381D01*
X132063667Y-133398381D01*
X132158905Y-133446000D01*
X132206524Y-133493619D01*
X132254143Y-133588857D01*
X132254143Y-133731714D01*
X132206524Y-133826952D01*
X132158905Y-133874571D01*
X132063667Y-133922190D01*
X131682714Y-133922190D01*
X132635095Y-133493619D02*
X132682714Y-133446000D01*
X132777952Y-133398381D01*
X133016048Y-133398381D01*
X133111286Y-133446000D01*
X133158905Y-133493619D01*
X133206524Y-133588857D01*
X133206524Y-133684095D01*
X133158905Y-133826952D01*
X132587476Y-134398381D01*
X133206524Y-134398381D01*
X133825571Y-133398381D02*
X133920810Y-133398381D01*
X134016048Y-133446000D01*
X134063667Y-133493619D01*
X134111286Y-133588857D01*
X134158905Y-133779333D01*
X134158905Y-134017429D01*
X134111286Y-134207905D01*
X134063667Y-134303143D01*
X134016048Y-134350762D01*
X133920810Y-134398381D01*
X133825571Y-134398381D01*
X133730333Y-134350762D01*
X133682714Y-134303143D01*
X133635095Y-134207905D01*
X133587476Y-134017429D01*
X133587476Y-133779333D01*
X133635095Y-133588857D01*
X133682714Y-133493619D01*
X133730333Y-133446000D01*
X133825571Y-133398381D01*
X197866095Y-122388381D02*
X197866095Y-123197905D01*
X197913714Y-123293143D01*
X197961333Y-123340762D01*
X198056571Y-123388381D01*
X198247048Y-123388381D01*
X198342286Y-123340762D01*
X198389905Y-123293143D01*
X198437524Y-123197905D01*
X198437524Y-122388381D01*
X198818476Y-122388381D02*
X199437524Y-122388381D01*
X199104190Y-122769333D01*
X199247048Y-122769333D01*
X199342286Y-122816952D01*
X199389905Y-122864571D01*
X199437524Y-122959810D01*
X199437524Y-123197905D01*
X199389905Y-123293143D01*
X199342286Y-123340762D01*
X199247048Y-123388381D01*
X198961333Y-123388381D01*
X198866095Y-123340762D01*
X198818476Y-123293143D01*
X108966095Y-122642381D02*
X108966095Y-123451905D01*
X109013714Y-123547143D01*
X109061333Y-123594762D01*
X109156571Y-123642381D01*
X109347048Y-123642381D01*
X109442286Y-123594762D01*
X109489905Y-123547143D01*
X109537524Y-123451905D01*
X109537524Y-122642381D01*
X110442286Y-122975714D02*
X110442286Y-123642381D01*
X110204190Y-122594762D02*
X109966095Y-123309048D01*
X110585143Y-123309048D01*
X175988095Y-70552381D02*
X175988095Y-71361905D01*
X176035714Y-71457143D01*
X176083333Y-71504762D01*
X176178571Y-71552381D01*
X176369048Y-71552381D01*
X176464286Y-71504762D01*
X176511905Y-71457143D01*
X176559524Y-71361905D01*
X176559524Y-70552381D01*
X176940476Y-70552381D02*
X177607143Y-70552381D01*
X177178571Y-71552381D01*
X97766667Y-113552381D02*
X97766667Y-114266667D01*
X97719047Y-114409524D01*
X97623809Y-114504762D01*
X97480952Y-114552381D01*
X97385714Y-114552381D01*
X98719048Y-113552381D02*
X98242857Y-113552381D01*
X98195238Y-114028571D01*
X98242857Y-113980952D01*
X98338095Y-113933333D01*
X98576191Y-113933333D01*
X98671429Y-113980952D01*
X98719048Y-114028571D01*
X98766667Y-114123810D01*
X98766667Y-114361905D01*
X98719048Y-114457143D01*
X98671429Y-114504762D01*
X98576191Y-114552381D01*
X98338095Y-114552381D01*
X98242857Y-114504762D01*
X98195238Y-114457143D01*
X214566667Y-67752381D02*
X214566667Y-68466667D01*
X214519047Y-68609524D01*
X214423809Y-68704762D01*
X214280952Y-68752381D01*
X214185714Y-68752381D01*
X215090476Y-68752381D02*
X215280952Y-68752381D01*
X215376191Y-68704762D01*
X215423810Y-68657143D01*
X215519048Y-68514286D01*
X215566667Y-68323810D01*
X215566667Y-67942857D01*
X215519048Y-67847619D01*
X215471429Y-67800000D01*
X215376191Y-67752381D01*
X215185714Y-67752381D01*
X215090476Y-67800000D01*
X215042857Y-67847619D01*
X214995238Y-67942857D01*
X214995238Y-68180952D01*
X215042857Y-68276190D01*
X215090476Y-68323810D01*
X215185714Y-68371429D01*
X215376191Y-68371429D01*
X215471429Y-68323810D01*
X215519048Y-68276190D01*
X215566667Y-68180952D01*
X88140477Y-67452381D02*
X88140477Y-68166667D01*
X88092857Y-68309524D01*
X87997619Y-68404762D01*
X87854762Y-68452381D01*
X87759524Y-68452381D01*
X89140477Y-68452381D02*
X88569048Y-68452381D01*
X88854762Y-68452381D02*
X88854762Y-67452381D01*
X88759524Y-67595238D01*
X88664286Y-67690476D01*
X88569048Y-67738095D01*
X89759524Y-67452381D02*
X89854763Y-67452381D01*
X89950001Y-67500000D01*
X89997620Y-67547619D01*
X90045239Y-67642857D01*
X90092858Y-67833333D01*
X90092858Y-68071429D01*
X90045239Y-68261905D01*
X89997620Y-68357143D01*
X89950001Y-68404762D01*
X89854763Y-68452381D01*
X89759524Y-68452381D01*
X89664286Y-68404762D01*
X89616667Y-68357143D01*
X89569048Y-68261905D01*
X89521429Y-68071429D01*
X89521429Y-67833333D01*
X89569048Y-67642857D01*
X89616667Y-67547619D01*
X89664286Y-67500000D01*
X89759524Y-67452381D01*
X201390477Y-84804381D02*
X201390477Y-85518667D01*
X201342857Y-85661524D01*
X201247619Y-85756762D01*
X201104762Y-85804381D01*
X201009524Y-85804381D01*
X202390477Y-85804381D02*
X201819048Y-85804381D01*
X202104762Y-85804381D02*
X202104762Y-84804381D01*
X202009524Y-84947238D01*
X201914286Y-85042476D01*
X201819048Y-85090095D01*
X203342858Y-85804381D02*
X202771429Y-85804381D01*
X203057143Y-85804381D02*
X203057143Y-84804381D01*
X202961905Y-84947238D01*
X202866667Y-85042476D01*
X202771429Y-85090095D01*
X226890477Y-107804381D02*
X226890477Y-108518667D01*
X226842857Y-108661524D01*
X226747619Y-108756762D01*
X226604762Y-108804381D01*
X226509524Y-108804381D01*
X227890477Y-108804381D02*
X227319048Y-108804381D01*
X227604762Y-108804381D02*
X227604762Y-107804381D01*
X227509524Y-107947238D01*
X227414286Y-108042476D01*
X227319048Y-108090095D01*
X228271429Y-107899619D02*
X228319048Y-107852000D01*
X228414286Y-107804381D01*
X228652382Y-107804381D01*
X228747620Y-107852000D01*
X228795239Y-107899619D01*
X228842858Y-107994857D01*
X228842858Y-108090095D01*
X228795239Y-108232952D01*
X228223810Y-108804381D01*
X228842858Y-108804381D01*
M02*
