G04 #@! TF.FileFunction,Soldermask,Top*
%FSLAX46Y46*%
G04 Gerber Fmt 4.6, Leading zero omitted, Abs format (unit mm)*
G04 Created by KiCad (PCBNEW 4.0.7-e2-6376~58~ubuntu16.04.1) date Sun Sep 24 14:08:17 2017*
%MOMM*%
%LPD*%
G01*
G04 APERTURE LIST*
%ADD10C,0.100000*%
%ADD11C,2.000000*%
%ADD12R,2.000000X2.000000*%
%ADD13R,0.850000X1.780000*%
%ADD14R,1.875000X2.500000*%
%ADD15R,2.775000X2.300000*%
%ADD16R,1.575000X2.300000*%
%ADD17O,1.910000X3.410000*%
%ADD18O,3.410000X1.910000*%
%ADD19R,2.127200X2.127200*%
%ADD20O,2.127200X2.127200*%
%ADD21R,3.190000X2.303000*%
%ADD22R,1.290000X0.705000*%
%ADD23R,1.240000X1.340000*%
%ADD24R,0.800000X1.960000*%
%ADD25R,2.400000X0.800000*%
%ADD26R,1.650000X1.900000*%
%ADD27R,1.900000X1.650000*%
%ADD28O,2.000000X2.000000*%
%ADD29R,1.543000X0.908000*%
%ADD30C,1.924000*%
%ADD31C,1.150000*%
%ADD32R,2.400000X2.100000*%
%ADD33R,2.100000X2.400000*%
%ADD34C,4.400000*%
%ADD35C,0.254000*%
G04 APERTURE END LIST*
D10*
D11*
X130891000Y-113405000D03*
X128391000Y-113405000D03*
X172974000Y-116586000D03*
X172974000Y-111586000D03*
D12*
X166136000Y-120794000D03*
D11*
X168136000Y-120794000D03*
X168536000Y-108344000D03*
X163536000Y-108344000D03*
X175514000Y-119888000D03*
X173014000Y-119888000D03*
X190200000Y-119500000D03*
X190200000Y-117000000D03*
D12*
X197280000Y-132440000D03*
D11*
X200780000Y-132440000D03*
X192786000Y-132334000D03*
X187786000Y-132334000D03*
X94400000Y-122300000D03*
X94400000Y-124800000D03*
D12*
X108204000Y-132334000D03*
D11*
X111704000Y-132334000D03*
X97282000Y-124714000D03*
X102282000Y-124714000D03*
X102616000Y-130556000D03*
X97616000Y-130556000D03*
X187960000Y-126492000D03*
X192960000Y-126492000D03*
D13*
X123400000Y-133040000D03*
X124050000Y-133040000D03*
X124700000Y-133040000D03*
X125350000Y-133040000D03*
X126000000Y-133040000D03*
D14*
X122237500Y-133400000D03*
X127162500Y-133400000D03*
D15*
X121790000Y-135700000D03*
X127610000Y-135700000D03*
D16*
X123860000Y-135700000D03*
X125540000Y-135700000D03*
D17*
X178054000Y-133096000D03*
X180594000Y-133096000D03*
D18*
X220500000Y-132800000D03*
X220500000Y-130260000D03*
X83600000Y-132500000D03*
X83600000Y-129960000D03*
D19*
X117094000Y-75692000D03*
D20*
X117094000Y-73152000D03*
X119634000Y-75692000D03*
X119634000Y-73152000D03*
X122174000Y-75692000D03*
X122174000Y-73152000D03*
X124714000Y-75692000D03*
X124714000Y-73152000D03*
X127254000Y-75692000D03*
X127254000Y-73152000D03*
X129794000Y-75692000D03*
X129794000Y-73152000D03*
X132334000Y-75692000D03*
X132334000Y-73152000D03*
X134874000Y-75692000D03*
X134874000Y-73152000D03*
X137414000Y-75692000D03*
X137414000Y-73152000D03*
X139954000Y-75692000D03*
X139954000Y-73152000D03*
X142494000Y-75692000D03*
X142494000Y-73152000D03*
X145034000Y-75692000D03*
X145034000Y-73152000D03*
X147574000Y-75692000D03*
X147574000Y-73152000D03*
X150114000Y-75692000D03*
X150114000Y-73152000D03*
X152654000Y-75692000D03*
X152654000Y-73152000D03*
X155194000Y-75692000D03*
X155194000Y-73152000D03*
X157734000Y-75692000D03*
X157734000Y-73152000D03*
X160274000Y-75692000D03*
X160274000Y-73152000D03*
X162814000Y-75692000D03*
X162814000Y-73152000D03*
X165354000Y-75692000D03*
X165354000Y-73152000D03*
D21*
X179000000Y-110573500D03*
X179000000Y-115426500D03*
D22*
X131746000Y-108305000D03*
X131746000Y-107805000D03*
X131746000Y-107305000D03*
X131746000Y-106805000D03*
X131746000Y-106305000D03*
X127536000Y-106305000D03*
X127536000Y-106805000D03*
X127536000Y-107305000D03*
X127536000Y-107805000D03*
X127536000Y-108305000D03*
D23*
X129221000Y-106835000D03*
X129221000Y-107775000D03*
X130061000Y-106835000D03*
X130061000Y-107775000D03*
D24*
X166656000Y-115844000D03*
X167306000Y-115844000D03*
X167966000Y-115844000D03*
X168616000Y-115844000D03*
X168616000Y-113144000D03*
X167966000Y-113144000D03*
X167306000Y-113144000D03*
X166656000Y-113144000D03*
D25*
X196905000Y-117975000D03*
X196905000Y-118615000D03*
X196905000Y-119275000D03*
X196905000Y-119915000D03*
X200325000Y-119915000D03*
X200325000Y-119275000D03*
X200325000Y-118615000D03*
X200325000Y-117975000D03*
X107764000Y-116632000D03*
X107764000Y-117272000D03*
X107764000Y-117932000D03*
X107764000Y-118572000D03*
X111184000Y-118572000D03*
X111184000Y-117932000D03*
X111184000Y-117272000D03*
X111184000Y-116632000D03*
D12*
X166136000Y-126494000D03*
D11*
X168136000Y-126494000D03*
D17*
X106300000Y-66900000D03*
X108840000Y-66900000D03*
X189250000Y-66750000D03*
X191790000Y-66750000D03*
D26*
X131000000Y-128850000D03*
X131000000Y-131350000D03*
D27*
X136592000Y-125090000D03*
X139092000Y-125090000D03*
D26*
X145400000Y-130250000D03*
X145400000Y-127750000D03*
D12*
X145800000Y-119500000D03*
D28*
X153420000Y-119500000D03*
D29*
X141017000Y-127685000D03*
X141017000Y-128955000D03*
X141017000Y-130225000D03*
X141017000Y-131495000D03*
X134667000Y-131495000D03*
X134667000Y-130225000D03*
X134667000Y-128955000D03*
X134667000Y-127685000D03*
D30*
X89662000Y-87884000D03*
X84582000Y-92964000D03*
X89662000Y-106934000D03*
X84582000Y-112014000D03*
X79756000Y-97536000D03*
X74676000Y-102616000D03*
X99314000Y-97536000D03*
X94234000Y-102616000D03*
X231140000Y-97536000D03*
X226060000Y-102616000D03*
X217678000Y-107950000D03*
X212598000Y-113030000D03*
X217678000Y-87122000D03*
X212598000Y-92202000D03*
X204216000Y-97536000D03*
X199136000Y-102616000D03*
D11*
X135841000Y-108405000D03*
X135841000Y-105905000D03*
D12*
X206756000Y-125222000D03*
D11*
X206756000Y-123222000D03*
D12*
X205740000Y-118364000D03*
D11*
X207740000Y-118364000D03*
D12*
X117094000Y-119126000D03*
D11*
X119094000Y-119126000D03*
D12*
X118110000Y-125984000D03*
D11*
X118110000Y-123984000D03*
D31*
X221700000Y-73200000D03*
X225700000Y-70600000D03*
X204100000Y-73200000D03*
X208100000Y-70600000D03*
X95700000Y-73200000D03*
X99700000Y-70600000D03*
X78200000Y-73200000D03*
X82200000Y-70600000D03*
D32*
X127700000Y-103800000D03*
X131700000Y-103800000D03*
D33*
X122772000Y-109980000D03*
X122772000Y-105980000D03*
X120486000Y-109980000D03*
X120486000Y-105980000D03*
D32*
X146000000Y-114400000D03*
X150000000Y-114400000D03*
X139942000Y-116540000D03*
X135942000Y-116540000D03*
X135942000Y-119490000D03*
X139942000Y-119490000D03*
X135942000Y-122190000D03*
X139942000Y-122190000D03*
X149600000Y-125000000D03*
X145600000Y-125000000D03*
X145400000Y-134100000D03*
X149400000Y-134100000D03*
X169200000Y-131200000D03*
X165200000Y-131200000D03*
X188500000Y-129286000D03*
X192500000Y-129286000D03*
X200628000Y-114554000D03*
X196628000Y-114554000D03*
X188500000Y-122936000D03*
X192500000Y-122936000D03*
X188500000Y-135382000D03*
X192500000Y-135382000D03*
X98076000Y-127508000D03*
X102076000Y-127508000D03*
X98076000Y-121920000D03*
X102076000Y-121920000D03*
X111728000Y-113030000D03*
X107728000Y-113030000D03*
X98076000Y-133604000D03*
X102076000Y-133604000D03*
D33*
X160986000Y-116744000D03*
X160986000Y-112744000D03*
D32*
X150200000Y-111900000D03*
X154200000Y-111900000D03*
X135922000Y-134112000D03*
X139922000Y-134112000D03*
D34*
X101600000Y-114000000D03*
X214900000Y-72000000D03*
X89000000Y-71850000D03*
X202200000Y-88400000D03*
X227700000Y-111400000D03*
D35*
G36*
X202069577Y-95723431D02*
X203737381Y-96213961D01*
X205295019Y-97576895D01*
X205970673Y-99121246D01*
X205774776Y-101374063D01*
X205194969Y-103113483D01*
X202974075Y-104368771D01*
X201445502Y-104177700D01*
X201410447Y-104154330D01*
X201370802Y-104136792D01*
X199548361Y-103681182D01*
X198396672Y-103009363D01*
X197722133Y-101660286D01*
X197525840Y-100482531D01*
X197429133Y-99612165D01*
X197818294Y-98347393D01*
X198594660Y-96794660D01*
X200540569Y-95821705D01*
X201598864Y-95629288D01*
X202069577Y-95723431D01*
X202069577Y-95723431D01*
G37*
X202069577Y-95723431D02*
X203737381Y-96213961D01*
X205295019Y-97576895D01*
X205970673Y-99121246D01*
X205774776Y-101374063D01*
X205194969Y-103113483D01*
X202974075Y-104368771D01*
X201445502Y-104177700D01*
X201410447Y-104154330D01*
X201370802Y-104136792D01*
X199548361Y-103681182D01*
X198396672Y-103009363D01*
X197722133Y-101660286D01*
X197525840Y-100482531D01*
X197429133Y-99612165D01*
X197818294Y-98347393D01*
X198594660Y-96794660D01*
X200540569Y-95821705D01*
X201598864Y-95629288D01*
X202069577Y-95723431D01*
G36*
X215651280Y-85417630D02*
X216632960Y-85908470D01*
X218208523Y-87090143D01*
X218985731Y-88158803D01*
X219567092Y-89902887D01*
X218985151Y-91939682D01*
X217625881Y-93590224D01*
X215786984Y-94170928D01*
X213950289Y-93977592D01*
X212494008Y-92812568D01*
X211417646Y-91246950D01*
X211028569Y-89690643D01*
X211221859Y-87757747D01*
X212784216Y-86195390D01*
X213654304Y-85518655D01*
X215091835Y-85231148D01*
X215651280Y-85417630D01*
X215651280Y-85417630D01*
G37*
X215651280Y-85417630D02*
X216632960Y-85908470D01*
X218208523Y-87090143D01*
X218985731Y-88158803D01*
X219567092Y-89902887D01*
X218985151Y-91939682D01*
X217625881Y-93590224D01*
X215786984Y-94170928D01*
X213950289Y-93977592D01*
X212494008Y-92812568D01*
X211417646Y-91246950D01*
X211028569Y-89690643D01*
X211221859Y-87757747D01*
X212784216Y-86195390D01*
X213654304Y-85518655D01*
X215091835Y-85231148D01*
X215651280Y-85417630D01*
G36*
X229453522Y-95920220D02*
X230919037Y-96799529D01*
X232088154Y-98066072D01*
X232575263Y-99527399D01*
X232770080Y-101280748D01*
X232191947Y-102629724D01*
X230929764Y-103988998D01*
X229099307Y-104567037D01*
X226871685Y-103889065D01*
X225505423Y-102327623D01*
X224530733Y-100475712D01*
X224723715Y-98835371D01*
X225501733Y-97182081D01*
X227150796Y-95921033D01*
X228496426Y-95728801D01*
X229453522Y-95920220D01*
X229453522Y-95920220D01*
G37*
X229453522Y-95920220D02*
X230919037Y-96799529D01*
X232088154Y-98066072D01*
X232575263Y-99527399D01*
X232770080Y-101280748D01*
X232191947Y-102629724D01*
X230929764Y-103988998D01*
X229099307Y-104567037D01*
X226871685Y-103889065D01*
X225505423Y-102327623D01*
X224530733Y-100475712D01*
X224723715Y-98835371D01*
X225501733Y-97182081D01*
X227150796Y-95921033D01*
X228496426Y-95728801D01*
X229453522Y-95920220D01*
G36*
X216360286Y-106322133D02*
X217918907Y-107101444D01*
X218787527Y-108163090D01*
X219470444Y-110114281D01*
X219276305Y-111764464D01*
X218401353Y-113611585D01*
X217153780Y-114379322D01*
X215005255Y-114769963D01*
X213572117Y-114387793D01*
X212205711Y-112728586D01*
X211624221Y-111662520D01*
X211428802Y-109415205D01*
X212006396Y-107682423D01*
X213655455Y-106615385D01*
X215120610Y-106127000D01*
X215189489Y-106127000D01*
X216360286Y-106322133D01*
X216360286Y-106322133D01*
G37*
X216360286Y-106322133D02*
X217918907Y-107101444D01*
X218787527Y-108163090D01*
X219470444Y-110114281D01*
X219276305Y-111764464D01*
X218401353Y-113611585D01*
X217153780Y-114379322D01*
X215005255Y-114769963D01*
X213572117Y-114387793D01*
X212205711Y-112728586D01*
X211624221Y-111662520D01*
X211428802Y-109415205D01*
X212006396Y-107682423D01*
X213655455Y-106615385D01*
X215120610Y-106127000D01*
X215189489Y-106127000D01*
X216360286Y-106322133D01*
G36*
X206742562Y-69415672D02*
X207513889Y-69994167D01*
X208392127Y-70969986D01*
X208768810Y-71817524D01*
X208579636Y-73047157D01*
X207819559Y-73997252D01*
X206577180Y-74570658D01*
X205450502Y-74476769D01*
X204310663Y-73526902D01*
X203733945Y-71604510D01*
X204305885Y-70079336D01*
X205056805Y-69516146D01*
X206099205Y-69231855D01*
X206742562Y-69415672D01*
X206742562Y-69415672D01*
G37*
X206742562Y-69415672D02*
X207513889Y-69994167D01*
X208392127Y-70969986D01*
X208768810Y-71817524D01*
X208579636Y-73047157D01*
X207819559Y-73997252D01*
X206577180Y-74570658D01*
X205450502Y-74476769D01*
X204310663Y-73526902D01*
X203733945Y-71604510D01*
X204305885Y-70079336D01*
X205056805Y-69516146D01*
X206099205Y-69231855D01*
X206742562Y-69415672D01*
G36*
X224354498Y-69422300D02*
X225510652Y-70193069D01*
X226275720Y-71245038D01*
X226370513Y-72666926D01*
X225713635Y-73699162D01*
X224154376Y-74381338D01*
X223325384Y-74657669D01*
X221896231Y-73514346D01*
X221421927Y-72755459D01*
X221228801Y-71403574D01*
X221415461Y-70470270D01*
X222360456Y-69714274D01*
X223611297Y-69329400D01*
X224354498Y-69422300D01*
X224354498Y-69422300D01*
G37*
X224354498Y-69422300D02*
X225510652Y-70193069D01*
X226275720Y-71245038D01*
X226370513Y-72666926D01*
X225713635Y-73699162D01*
X224154376Y-74381338D01*
X223325384Y-74657669D01*
X221896231Y-73514346D01*
X221421927Y-72755459D01*
X221228801Y-71403574D01*
X221415461Y-70470270D01*
X222360456Y-69714274D01*
X223611297Y-69329400D01*
X224354498Y-69422300D01*
G36*
X81050459Y-69419607D02*
X82203500Y-70188301D01*
X82775138Y-71236304D01*
X82870090Y-72660588D01*
X81912963Y-73904853D01*
X80863018Y-74573000D01*
X79552606Y-74573000D01*
X78597663Y-73618057D01*
X77923419Y-72654851D01*
X77827884Y-71603966D01*
X78017479Y-70371595D01*
X79060221Y-69613238D01*
X80109972Y-69231510D01*
X81050459Y-69419607D01*
X81050459Y-69419607D01*
G37*
X81050459Y-69419607D02*
X82203500Y-70188301D01*
X82775138Y-71236304D01*
X82870090Y-72660588D01*
X81912963Y-73904853D01*
X80863018Y-74573000D01*
X79552606Y-74573000D01*
X78597663Y-73618057D01*
X77923419Y-72654851D01*
X77827884Y-71603966D01*
X78017479Y-70371595D01*
X79060221Y-69613238D01*
X80109972Y-69231510D01*
X81050459Y-69419607D01*
G36*
X98735070Y-69514676D02*
X99799971Y-70579577D01*
X100275402Y-71340267D01*
X100369998Y-72759204D01*
X99615962Y-73701749D01*
X98274248Y-74468442D01*
X96856375Y-74279393D01*
X95701009Y-73220307D01*
X95227000Y-72367091D01*
X95227000Y-71324460D01*
X95606936Y-70374618D01*
X96562529Y-69514585D01*
X97601396Y-69231258D01*
X98735070Y-69514676D01*
X98735070Y-69514676D01*
G37*
X98735070Y-69514676D02*
X99799971Y-70579577D01*
X100275402Y-71340267D01*
X100369998Y-72759204D01*
X99615962Y-73701749D01*
X98274248Y-74468442D01*
X96856375Y-74279393D01*
X95701009Y-73220307D01*
X95227000Y-72367091D01*
X95227000Y-71324460D01*
X95606936Y-70374618D01*
X96562529Y-69514585D01*
X97601396Y-69231258D01*
X98735070Y-69514676D01*
G36*
X88141390Y-86313823D02*
X89716327Y-87396592D01*
X90882040Y-88659449D01*
X91270281Y-90697713D01*
X90784775Y-92833941D01*
X89243267Y-94279104D01*
X86923706Y-94569049D01*
X84883647Y-93500447D01*
X83915747Y-92242176D01*
X83427000Y-90482688D01*
X83427000Y-87861039D01*
X84862312Y-86712789D01*
X87099054Y-85934792D01*
X88141390Y-86313823D01*
X88141390Y-86313823D01*
G37*
X88141390Y-86313823D02*
X89716327Y-87396592D01*
X90882040Y-88659449D01*
X91270281Y-90697713D01*
X90784775Y-92833941D01*
X89243267Y-94279104D01*
X86923706Y-94569049D01*
X84883647Y-93500447D01*
X83915747Y-92242176D01*
X83427000Y-90482688D01*
X83427000Y-87861039D01*
X84862312Y-86712789D01*
X87099054Y-85934792D01*
X88141390Y-86313823D01*
G36*
X78541550Y-96213404D02*
X79914242Y-97095849D01*
X81180880Y-98654788D01*
X81568117Y-100784594D01*
X80891077Y-102332114D01*
X79826588Y-103590148D01*
X77404264Y-104365291D01*
X75173968Y-103492567D01*
X74214644Y-102437310D01*
X73527000Y-99883203D01*
X73527000Y-97660448D01*
X75064261Y-96411423D01*
X77098872Y-95636333D01*
X78541550Y-96213404D01*
X78541550Y-96213404D01*
G37*
X78541550Y-96213404D02*
X79914242Y-97095849D01*
X81180880Y-98654788D01*
X81568117Y-100784594D01*
X80891077Y-102332114D01*
X79826588Y-103590148D01*
X77404264Y-104365291D01*
X75173968Y-103492567D01*
X74214644Y-102437310D01*
X73527000Y-99883203D01*
X73527000Y-97660448D01*
X75064261Y-96411423D01*
X77098872Y-95636333D01*
X78541550Y-96213404D01*
G36*
X88149138Y-105123201D02*
X90011921Y-106691861D01*
X91068823Y-107844845D01*
X90874959Y-110171218D01*
X89705034Y-113193524D01*
X87502860Y-113768004D01*
X84985824Y-112993532D01*
X84115319Y-111445966D01*
X83331911Y-109389520D01*
X83816144Y-107065198D01*
X85367410Y-105610886D01*
X87016591Y-105028822D01*
X88149138Y-105123201D01*
X88149138Y-105123201D01*
G37*
X88149138Y-105123201D02*
X90011921Y-106691861D01*
X91068823Y-107844845D01*
X90874959Y-110171218D01*
X89705034Y-113193524D01*
X87502860Y-113768004D01*
X84985824Y-112993532D01*
X84115319Y-111445966D01*
X83331911Y-109389520D01*
X83816144Y-107065198D01*
X85367410Y-105610886D01*
X87016591Y-105028822D01*
X88149138Y-105123201D01*
G36*
X98243169Y-96018558D02*
X99603376Y-97184449D01*
X100682828Y-98852693D01*
X101166927Y-100595451D01*
X100589156Y-102232470D01*
X99038006Y-103880566D01*
X97001493Y-104171497D01*
X95263596Y-103881848D01*
X94008053Y-102529724D01*
X93125561Y-100470574D01*
X93028585Y-98725020D01*
X93798207Y-97089575D01*
X95451570Y-96117008D01*
X96707396Y-95730600D01*
X98243169Y-96018558D01*
X98243169Y-96018558D01*
G37*
X98243169Y-96018558D02*
X99603376Y-97184449D01*
X100682828Y-98852693D01*
X101166927Y-100595451D01*
X100589156Y-102232470D01*
X99038006Y-103880566D01*
X97001493Y-104171497D01*
X95263596Y-103881848D01*
X94008053Y-102529724D01*
X93125561Y-100470574D01*
X93028585Y-98725020D01*
X93798207Y-97089575D01*
X95451570Y-96117008D01*
X96707396Y-95730600D01*
X98243169Y-96018558D01*
G36*
X108773000Y-118773000D02*
X106827000Y-118773000D01*
X106827000Y-116427000D01*
X108773000Y-116427000D01*
X108773000Y-118773000D01*
X108773000Y-118773000D01*
G37*
X108773000Y-118773000D02*
X106827000Y-118773000D01*
X106827000Y-116427000D01*
X108773000Y-116427000D01*
X108773000Y-118773000D01*
G36*
X112273000Y-118873000D02*
X110127000Y-118873000D01*
X110127000Y-116327000D01*
X112273000Y-116327000D01*
X112273000Y-118873000D01*
X112273000Y-118873000D01*
G37*
X112273000Y-118873000D02*
X110127000Y-118873000D01*
X110127000Y-116327000D01*
X112273000Y-116327000D01*
X112273000Y-118873000D01*
G36*
X197273000Y-126373000D02*
X195127000Y-126373000D01*
X195127000Y-121927000D01*
X197273000Y-121927000D01*
X197273000Y-126373000D01*
X197273000Y-126373000D01*
G37*
X197273000Y-126373000D02*
X195127000Y-126373000D01*
X195127000Y-121927000D01*
X197273000Y-121927000D01*
X197273000Y-126373000D01*
G36*
X202173000Y-126373000D02*
X200127000Y-126373000D01*
X200127000Y-121927000D01*
X202173000Y-121927000D01*
X202173000Y-126373000D01*
X202173000Y-126373000D01*
G37*
X202173000Y-126373000D02*
X200127000Y-126373000D01*
X200127000Y-121927000D01*
X202173000Y-121927000D01*
X202173000Y-126373000D01*
G36*
X177173000Y-66073000D02*
X175227000Y-66073000D01*
X175227000Y-64027000D01*
X177173000Y-64027000D01*
X177173000Y-66073000D01*
X177173000Y-66073000D01*
G37*
X177173000Y-66073000D02*
X175227000Y-66073000D01*
X175227000Y-64027000D01*
X177173000Y-64027000D01*
X177173000Y-66073000D01*
G36*
X184273000Y-65973000D02*
X182227000Y-65973000D01*
X182227000Y-64027000D01*
X184273000Y-64027000D01*
X184273000Y-65973000D01*
X184273000Y-65973000D01*
G37*
X184273000Y-65973000D02*
X182227000Y-65973000D01*
X182227000Y-64027000D01*
X184273000Y-64027000D01*
X184273000Y-65973000D01*
M02*
