M48
;DRILL file {KiCad 4.0.7-e2-6376~58~ubuntu16.04.1} date Sun Sep 24 14:08:13 2017
;FORMAT={-:-/ absolute / inch / decimal}
FMAT,2
INCH,TZ
T1C0.008
T2C0.010
T3C0.012
T4C0.016
T5C0.031
T6C0.039
T7C0.040
T8C0.051
T9C0.079
%
G90
G05
M72
T1
X3.0787Y-2.8819
X3.2362Y-2.7795
X3.7677Y-2.8819
X3.9252Y-2.7795
X8.0354Y-2.8819
X8.1929Y-2.7795
X8.7283Y-2.8819
X8.8858Y-2.7795
T2
X6.9881Y-2.6571
X6.9881Y-2.6571
X7.1651Y-2.6571
X7.1651Y-2.6571
T3
X2.94Y-4.04
X3.14Y-3.84
X3.33Y-3.66
X3.33Y-4.41
X3.53Y-3.46
X3.53Y-4.21
X3.71Y-4.04
X3.91Y-3.84
X7.84Y-4.04
X8.04Y-3.84
X8.37Y-3.63
X8.37Y-4.45
X8.57Y-3.43
X8.57Y-4.25
X8.9Y-4.04
X9.1Y-3.84
T4
X3.4843Y-4.1024
X3.563Y-4.1024
X3.6299Y-5.2559
X3.6457Y-4.0394
X3.685Y-3.4331
X3.685Y-3.4882
X3.7402Y-3.0157
X3.7953Y-3.0157
X3.9094Y-3.4173
X3.9409Y-4.6102
X3.9409Y-5.0197
X4.0157Y-5.2598
X4.0472Y-4.6102
X4.08Y-4.8
X4.0984Y-4.7165
X4.11Y-4.82
X4.11Y-4.97
X4.11Y-5.26
X4.1102Y-4.0551
X4.122Y-4.0118
X4.15Y-4.77
X4.1575Y-4.3898
X4.1575Y-4.6102
X4.18Y-4.92
X4.185Y-4.0118
X4.185Y-4.5512
X4.19Y-4.82
X4.1929Y-4.0551
X4.223Y-4.775
X4.3465Y-4.0551
X4.3465Y-4.8228
X4.3504Y-3.4803
X4.3504Y-3.5197
X4.3819Y-4.9764
X4.42Y-4.93
X4.4488Y-3.4803
X4.4488Y-3.5197
X4.4567Y-4.0551
X4.4567Y-4.9764
X4.4606Y-3.4213
X4.4961Y-2.8031
X4.4961Y-2.9528
X4.52Y-4.73
X4.52Y-4.82
X4.7559Y-2.6929
X4.7795Y-2.5394
X4.7795Y-2.6299
X4.7835Y-4.6142
X4.8346Y-2.5394
X4.8346Y-4.1732
X4.8386Y-2.6299
X4.8583Y-2.6929
X4.8583Y-4.7283
X4.8976Y-4.2874
X4.9331Y-4.2441
X4.9331Y-4.315
X4.9331Y-4.5472
X4.9724Y-4.2677
X4.9843Y-4.5866
X5.0551Y-4.9843
X5.0591Y-4.3583
X5.0709Y-4.185
X5.0787Y-2.5354
X5.0787Y-2.5748
X5.0866Y-4.2441
X5.0874Y-4.2061
X5.1024Y-3.748
X5.1102Y-4.5315
X5.1181Y-3.9882
X5.1205Y-4.2061
X5.1205Y-4.2431
X5.1378Y-3.4803
X5.1378Y-3.5157
X5.1417Y-2.5354
X5.1417Y-2.5748
X5.1417Y-4.185
X5.1496Y-4.5866
X5.1575Y-4.7047
X5.2047Y-4.811
X5.2323Y-3.4803
X5.2323Y-3.5157
X5.2398Y-4.2049
X5.252Y-3.9882
X5.252Y-4.5315
X5.252Y-4.6339
X5.252Y-4.748
X5.2717Y-3.748
X5.2992Y-4.9843
X5.3513Y-5.28
X5.4016Y-5.0787
X5.4291Y-5.2205
X5.5039Y-2.6929
X5.5079Y-4.5079
X5.5079Y-4.7047
X5.5787Y-2.5394
X5.5787Y-2.5748
X5.6181Y-5.2795
X5.6378Y-2.5394
X5.6378Y-2.5748
X5.6496Y-5.0748
X5.6575Y-4.2677
X5.6575Y-4.3307
X5.815Y-4.6024
X5.815Y-5.126
X5.8819Y-5.2795
X5.9016Y-4.5039
X5.9567Y-5.2205
X6.0079Y-2.6929
X6.1732Y-3.5157
X6.1732Y-3.5551
X6.1772Y-3.2992
X6.1772Y-3.3346
X6.2087Y-3.3701
X6.2087Y-3.4843
X6.2087Y-3.6929
X6.2087Y-3.8071
X6.21Y-2.7756
X6.2402Y-3.5551
X6.2441Y-3.2992
X6.2441Y-3.3346
X6.2441Y-3.5118
X6.3622Y-2.5433
X6.374Y-3.2638
X6.378Y-2.6417
X6.3819Y-2.5748
X6.437Y-4.3031
X6.437Y-4.437
X6.4409Y-3.2638
X6.4488Y-2.5433
X6.5039Y-4.5945
X6.5118Y-2.5748
X6.5394Y-4.6811
X6.5433Y-2.6417
X6.6024Y-3.9724
X6.6024Y-4.0551
X6.7047Y-4.5512
X6.7047Y-4.6339
X6.748Y-2.98
X6.748Y-2.9803
X6.748Y-3.4252
X6.7677Y-3.4764
X6.7677Y-3.5157
X6.811Y-4.2598
X6.815Y-4.1024
X6.8425Y-3.2677
X6.8425Y-3.3031
X6.8425Y-3.3465
X6.8425Y-3.3819
X6.8465Y-2.7756
X6.8701Y-4.0079
X6.878Y-2.937
X6.878Y-3.0197
X6.9094Y-2.7913
X6.9094Y-3.2717
X6.9094Y-3.3071
X6.9094Y-3.3465
X6.9094Y-3.3819
X6.9094Y-3.4764
X6.9094Y-3.5157
X6.9094Y-3.9724
X6.9134Y-2.748
X6.9528Y-2.7165
X6.9567Y-2.7874
X6.9567Y-2.8307
X7.0197Y-2.7874
X7.0197Y-2.8268
X7.0315Y-2.7165
X7.1339Y-2.7874
X7.1339Y-2.8268
X7.1339Y-3.3386
X7.1339Y-3.374
X7.1339Y-3.4094
X7.1339Y-3.4488
X7.1339Y-3.4843
X7.1378Y-3.2992
X7.1654Y-2.7598
X7.1969Y-2.7874
X7.1969Y-2.8268
X7.1969Y-3.3031
X7.1969Y-3.3386
X7.1969Y-3.374
X7.1969Y-3.4094
X7.2008Y-3.4488
X7.2008Y-3.4843
X7.2047Y-5.2441
X7.5354Y-3.3031
X7.5354Y-3.5157
X7.5354Y-4.0394
X7.5512Y-4.6969
X7.5591Y-4.5866
X7.5669Y-4.1063
X7.5669Y-4.2008
X7.5787Y-5.09
X7.5787Y-5.33
X7.6063Y-3.374
X7.6063Y-4.1063
X7.6063Y-4.2008
X7.6339Y-3.3386
X7.6496Y-4.5512
X7.6496Y-4.6614
X7.6535Y-3.4252
X7.6654Y-5.3307
X7.6693Y-5.0315
X7.685Y-3.3898
X7.689Y-4.0394
X7.7244Y-4.7677
X7.8031Y-4.9134
X7.9685Y-4.5945
X7.9685Y-4.6732
X7.9685Y-4.7205
X7.9961Y-4.9173
X8.0039Y-4.7677
X8.0984Y-4.5945
X8.1496Y-3.3307
X8.1614Y-4.3937
X8.2205Y-3.3307
X8.2283Y-4.3937
X8.2402Y-3.0394
X8.2402Y-3.0748
X8.3031Y-3.0394
X8.3346Y-3.0748
X8.7244Y-3.5512
X8.7244Y-3.6142
T5
X3.7165Y-4.815
X3.7165Y-4.9134
X3.83Y-4.91
X3.8431Y-5.14
X4.0269Y-4.91
X4.04Y-5.14
X4.26Y-5.21
X4.3978Y-5.21
X4.61Y-4.69
X4.65Y-4.8813
X4.65Y-4.96
X4.6887Y-4.69
X5.0548Y-4.4648
X5.1532Y-4.4648
X5.3481Y-4.1695
X5.3481Y-4.2679
X5.7402Y-4.7047
X6.0402Y-4.7047
X6.4384Y-4.2655
X6.5408Y-4.7557
X6.5408Y-4.9801
X6.6195Y-4.7557
X6.6195Y-4.9801
X6.6353Y-4.2655
X6.81Y-4.3931
X6.81Y-4.59
X6.8116Y-4.72
X6.91Y-4.72
X7.3931Y-5.21
X7.4Y-4.98
X7.4882Y-4.6063
X7.4882Y-4.7047
X7.59Y-5.21
X7.5969Y-4.98
X7.7669Y-5.2142
X7.9047Y-5.2142
X8.1Y-4.66
X8.14Y-4.8513
X8.14Y-4.93
X8.1787Y-4.66
T6
X3.2913Y-5.1165
X3.2913Y-5.2165
X4.185Y-2.6339
X4.285Y-2.6339
X7.01Y-5.24
X7.11Y-5.24
X7.4508Y-2.628
X7.5508Y-2.628
X8.6811Y-5.1283
X8.6811Y-5.2283
T7
X4.61Y-2.88
X4.61Y-2.98
X4.71Y-2.88
X4.71Y-2.98
X4.81Y-2.88
X4.81Y-2.98
X4.91Y-2.88
X4.91Y-2.98
X5.01Y-2.88
X5.01Y-2.98
X5.11Y-2.88
X5.11Y-2.98
X5.21Y-2.88
X5.21Y-2.98
X5.31Y-2.88
X5.31Y-2.98
X5.41Y-2.88
X5.41Y-2.98
X5.51Y-2.88
X5.51Y-2.98
X5.61Y-2.88
X5.61Y-2.98
X5.71Y-2.88
X5.71Y-2.98
X5.81Y-2.88
X5.81Y-2.98
X5.91Y-2.88
X5.91Y-2.98
X6.01Y-2.88
X6.01Y-2.98
X6.11Y-2.88
X6.11Y-2.98
X6.21Y-2.88
X6.21Y-2.98
X6.31Y-2.88
X6.31Y-2.98
X6.41Y-2.88
X6.41Y-2.98
X6.51Y-2.88
X6.51Y-2.98
T8
X6.9386Y-2.5591
X6.9386Y-2.5591
X7.2146Y-2.5591
X7.2146Y-2.5591
T9
X3.5039Y-2.8287
X4.Y-4.4882
X7.9606Y-3.4803
X8.4606Y-2.8346
X8.9646Y-4.3858
T0
M30
