G04 #@! TF.FileFunction,Soldermask,Bot*
%FSLAX46Y46*%
G04 Gerber Fmt 4.6, Leading zero omitted, Abs format (unit mm)*
G04 Created by KiCad (PCBNEW 4.0.7-e2-6376~58~ubuntu16.04.1) date Sun Sep 24 14:08:17 2017*
%MOMM*%
%LPD*%
G01*
G04 APERTURE LIST*
%ADD10C,0.100000*%
%ADD11C,2.000000*%
%ADD12R,2.000000X2.000000*%
%ADD13O,1.910000X3.410000*%
%ADD14O,3.410000X1.910000*%
%ADD15R,2.127200X2.127200*%
%ADD16O,2.127200X2.127200*%
%ADD17O,2.000000X2.000000*%
%ADD18C,1.924000*%
%ADD19C,1.150000*%
%ADD20C,4.400000*%
G04 APERTURE END LIST*
D10*
D11*
X130891000Y-113405000D03*
X128391000Y-113405000D03*
X172974000Y-116586000D03*
X172974000Y-111586000D03*
D12*
X166136000Y-120794000D03*
D11*
X168136000Y-120794000D03*
X168536000Y-108344000D03*
X163536000Y-108344000D03*
X175514000Y-119888000D03*
X173014000Y-119888000D03*
X190200000Y-119500000D03*
X190200000Y-117000000D03*
D12*
X197280000Y-132440000D03*
D11*
X200780000Y-132440000D03*
X192786000Y-132334000D03*
X187786000Y-132334000D03*
X94400000Y-122300000D03*
X94400000Y-124800000D03*
D12*
X108204000Y-132334000D03*
D11*
X111704000Y-132334000D03*
X97282000Y-124714000D03*
X102282000Y-124714000D03*
X102616000Y-130556000D03*
X97616000Y-130556000D03*
X187960000Y-126492000D03*
X192960000Y-126492000D03*
D13*
X178054000Y-133096000D03*
X180594000Y-133096000D03*
D14*
X220500000Y-132800000D03*
X220500000Y-130260000D03*
X83600000Y-132500000D03*
X83600000Y-129960000D03*
D15*
X117094000Y-75692000D03*
D16*
X117094000Y-73152000D03*
X119634000Y-75692000D03*
X119634000Y-73152000D03*
X122174000Y-75692000D03*
X122174000Y-73152000D03*
X124714000Y-75692000D03*
X124714000Y-73152000D03*
X127254000Y-75692000D03*
X127254000Y-73152000D03*
X129794000Y-75692000D03*
X129794000Y-73152000D03*
X132334000Y-75692000D03*
X132334000Y-73152000D03*
X134874000Y-75692000D03*
X134874000Y-73152000D03*
X137414000Y-75692000D03*
X137414000Y-73152000D03*
X139954000Y-75692000D03*
X139954000Y-73152000D03*
X142494000Y-75692000D03*
X142494000Y-73152000D03*
X145034000Y-75692000D03*
X145034000Y-73152000D03*
X147574000Y-75692000D03*
X147574000Y-73152000D03*
X150114000Y-75692000D03*
X150114000Y-73152000D03*
X152654000Y-75692000D03*
X152654000Y-73152000D03*
X155194000Y-75692000D03*
X155194000Y-73152000D03*
X157734000Y-75692000D03*
X157734000Y-73152000D03*
X160274000Y-75692000D03*
X160274000Y-73152000D03*
X162814000Y-75692000D03*
X162814000Y-73152000D03*
X165354000Y-75692000D03*
X165354000Y-73152000D03*
D12*
X166136000Y-126494000D03*
D11*
X168136000Y-126494000D03*
D13*
X106300000Y-66900000D03*
X108840000Y-66900000D03*
X189250000Y-66750000D03*
X191790000Y-66750000D03*
D12*
X145800000Y-119500000D03*
D17*
X153420000Y-119500000D03*
D18*
X89662000Y-87884000D03*
X84582000Y-92964000D03*
X89662000Y-106934000D03*
X84582000Y-112014000D03*
X79756000Y-97536000D03*
X74676000Y-102616000D03*
X99314000Y-97536000D03*
X94234000Y-102616000D03*
X231140000Y-97536000D03*
X226060000Y-102616000D03*
X217678000Y-107950000D03*
X212598000Y-113030000D03*
X217678000Y-87122000D03*
X212598000Y-92202000D03*
X204216000Y-97536000D03*
X199136000Y-102616000D03*
D11*
X135841000Y-108405000D03*
X135841000Y-105905000D03*
D12*
X206756000Y-125222000D03*
D11*
X206756000Y-123222000D03*
D12*
X205740000Y-118364000D03*
D11*
X207740000Y-118364000D03*
D12*
X117094000Y-119126000D03*
D11*
X119094000Y-119126000D03*
D12*
X118110000Y-125984000D03*
D11*
X118110000Y-123984000D03*
D19*
X221700000Y-73200000D03*
X225700000Y-70600000D03*
X204100000Y-73200000D03*
X208100000Y-70600000D03*
X95700000Y-73200000D03*
X99700000Y-70600000D03*
X78200000Y-73200000D03*
X82200000Y-70600000D03*
D20*
X101600000Y-114000000D03*
X214900000Y-72000000D03*
X89000000Y-71850000D03*
X202200000Y-88400000D03*
X227700000Y-111400000D03*
M02*
